<?xml version="1.0" encoding="UTF-8"?>
<svg id="Layer_2" data-name="Layer 2" xmlns="http://www.w3.org/2000/svg" viewBox="0 0 111.7 122.05">
  <defs>
    <style>
      .cls-1 {
        fill: #f5ec43;
        stroke: #231f20;
        stroke-miterlimit: 10;
        stroke-width: 4.6px;
      }
    </style>
  </defs>
  <g id="Layer_11" data-name="Layer 11">
    <path class="cls-1" d="M32.44,43.82c2.81-6.44-1.75-9.25-.73-21.36.33-3.92,1.48-17.46,8.21-19.8,7.28-2.53,17.83,9.17,20.38,12,8.29,9.2,8.51,16.02,14.24,17,4.48.77,5.67-3.18,14.35-5.3,3.46-.85,13.1-3.21,17.45,1.56,4.73,5.18.45,15.77.09,16.63-3.49,8.36-9.38,8.94-9.44,14.24-.06,5.16,5.51,5.92,9.44,14.35,2.22,4.76,4.94,14.15.85,18.39-4.56,4.73-15.69,1.1-19.69-.2-8.72-2.84-10.26-6.45-13.99-5.41-5.25,1.46-4.36,9.19-11.35,19.71-1.18,1.78-10.45,15.72-17.65,13.97-6.24-1.51-9-14.31-9.64-20.47-.92-8.76,1.43-13.73-1.58-16.02-2.79-2.12-6.05,1.19-13.36,1.07-6.78-.11-16.05-3.16-17.51-8.56-1.46-5.39,5.29-11.56,11.02-16.78,10.56-9.65,16.06-8.46,18.92-15.02Z"/>
  </g>
</svg>