<?xml version="1.0" encoding="UTF-8"?>
<svg id="Layer_2" data-name="Layer 2" xmlns="http://www.w3.org/2000/svg" viewBox="0 0 164.49 153.53">
  <defs>
    <style>
      .cls-1 {
        fill: #231f20;
      }

      .cls-1, .cls-2 {
        stroke-width: 0px;
      }

      .cls-2 {
        fill: #a1cf6d;
      }

      .cls-3 {
        fill: #0a0203;
      }

      .cls-3, .cls-4 {
        stroke: #231f20;
        stroke-miterlimit: 10;
      }

      .cls-4 {
        fill: #fff;
        stroke-width: 4.6px;
      }
    </style>
  </defs>
  <g id="Layer_3" data-name="Layer 3">
    <g>
      <g>
        <path class="cls-2" d="M70.41,9.61c-10.63-1.46-22.05-.72-31.11,5.04-9.05,5.75-14.83,17.5-11.19,27.6l-2.24,7.07c-12.95-.44-23.44,12.88-23.44,25.84,0,11.67,5.48,32.3,26.58,32.3,8.93,0,2.8,14.12,10.36,18.87l3.86-1.06c1.52,9.18,7.81,17.29,16.01,21.67,8.21,4.39,18.12,5.16,27.12,2.8,3.76-.99,5.98-2.33,8.98-4.8.41-.33,1.29-1.33,1.77-1.63.15-.09.31-.12.47-.05,2.2.97,12.29,5.14,18.45,2.55,6.94-2.92,11.64-9.41,15.59-15.82,4.24-6.86,8.14-14.25,8.81-22.29l5.09,3.58c3.9,3.73,10.9,1.42,13.77-3.15s2.77-10.33,2.44-15.71c-.34-5.74-1.07-12.01-5.2-16-5.29-5.1-13.72-4.34-20.98-3.23l6.68-8.66c4.4-5.97,4.3-14.86-.24-20.73-4.54-5.87-13.12-8.2-20.01-5.44l.89-.73c.95-9.09,1.63-19.17-3.89-26.45-6.2-8.16-17.97-9.63-28.11-8.18-6.58.94-13.27,2.96-18.21,7.42-4.93,4.46-7.68,11.82-5.25,18.01"/>
        <path class="cls-1" d="M70.41,7.11c-9.54-1.28-19.48-.8-28.35,3.21-7.84,3.54-14.11,10.37-16.54,18.67-1.33,4.52-1.37,9.45.19,13.92v-1.33c-.75,2.36-1.49,4.71-2.24,7.07l2.41-1.84c-10.29-.25-19.18,7.12-23.22,16.21-3.38,7.61-3.27,15.91-1.18,23.85,1.93,7.34,5.83,14.3,12.19,18.67,3.64,2.5,7.91,3.81,12.27,4.26,1.11.11,2.23.13,3.34.16-.03,0,.77.08.39.02s.34.09.33.08c.11.03.72.28.17.02.17.08.34.18.5.28.51.29-.23-.24,0,0,.1.11.22.22.32.33.41.42-.18-.3,0,.01.08.14.16.27.24.41,0,.01.28.59.13.23s.09.26.1.27c.13.41.25.82.35,1.24.47,2.05.49,3.25.82,5.53.31,2.12.79,4.2,1.79,6.11s3.24,4.74,5.63,4.23c1.29-.27,2.57-.71,3.84-1.06l-3.08-1.75c1.57,9.1,7.46,17.14,15.2,22.03,8.64,5.45,19.48,6.73,29.36,4.59,2.6-.57,5.17-1.4,7.48-2.75,1.06-.62,2.05-1.35,3.02-2.11.51-.4,1.03-.79,1.5-1.23.2-.18.39-.38.58-.57.27-.27.97-.6.04-.25h-1.33c-.51-.07-.06-.07.2.02.39.14.78.33,1.17.49.68.28,1.37.54,2.07.79,1.75.62,3.54,1.15,5.36,1.53,4.4.93,8.76,1.03,12.87-.98,4.37-2.14,7.88-5.67,10.82-9.47,3.1-4.01,5.79-8.41,8.16-12.89,2.89-5.47,5.05-11.24,5.61-17.43l-3.76,2.16c1.24.87,2.47,1.74,3.71,2.61.44.31.91.61,1.34.94.22.17-.74-.6,0,.05.3.26.66.53,1,.75.68.44,1.46.77,2.22,1.01,5.51,1.72,11.76-1.69,14.42-6.53,3.28-5.97,2.79-13.5,2.06-20.05s-2.67-12.67-8.4-16.12c-6.16-3.7-13.89-2.76-20.64-1.74l2.82,3.67c1.41-1.83,2.83-3.66,4.24-5.5,1.72-2.24,3.42-4.31,4.51-6.96,3.85-9.32,0-20.71-9.21-25.14-4.94-2.38-10.78-2.9-15.94-.9l2.43,4.18c.28-.23.61-.45.86-.71.87-.87.81-2.23.92-3.38.18-1.82.33-3.63.41-5.46.17-3.75.05-7.54-.71-11.24-1.43-6.95-5.69-12.92-12.1-16.08S99.94-.42,93.21.22c-7.46.71-15.08,2.67-21.06,7.39s-10.04,13.75-7.13,21.49c.47,1.26,1.69,2.13,3.08,1.75,1.21-.33,2.22-1.8,1.75-3.08-2.01-5.34.11-11.2,4.06-15.07,4.56-4.46,11.09-6.32,17.24-7.23,10.29-1.52,23.64.2,28.08,11.12,2.68,6.59,1.87,14.15,1.16,21.04l.73-1.77-.89.73c-1.89,1.55.14,5.07,2.43,4.18,7.25-2.81,16.34.37,19.26,7.87,1.45,3.74,1.45,8.07-.15,11.76-.94,2.17-2.54,3.98-3.97,5.84s-2.92,3.79-4.38,5.68c-.59.77-.35,2.09.2,2.78.68.85,1.59,1.05,2.63.9,4.89-.74,10.44-1.49,15.17.41,4.85,1.95,6.69,6.75,7.41,11.57.4,2.69.53,5.46.59,8.18s-.07,5.66-.96,8.37c-.71,2.18-1.98,4.07-3.96,5.27-1.68,1.02-3.7,1.52-5.4,1.07-1.34-.36-2.59-1.57-3.85-2.45-1.18-.83-2.35-1.65-3.53-2.48-1.69-1.19-3.61.45-3.76,2.16-.44,4.81-2.15,9.43-4.32,13.72s-4.57,8.25-7.28,12.07c-2.4,3.37-5.25,6.6-8.82,8.75-3.29,1.98-6.47,2.22-10.21,1.5-1.72-.33-3.41-.81-5.08-1.36-.66-.22-1.31-.46-1.96-.7-.27-.1-.53-.21-.8-.32-.12-.05-.23-.1-.35-.14-.32-.13.48.21.08.03-1.02-.44-1.97-.73-3.04-.22-.96.45-1.63,1.29-2.4,1.99-1.46,1.32-3.2,2.47-4.99,3.28-3.98,1.8-8.77,2.31-13.09,2.25s-9.14-.95-13.28-2.83c-8.62-3.92-15.13-11.71-16.76-21.11-.23-1.33-1.87-2.08-3.08-1.75-1.29.35-2.58.71-3.86,1.06l1.93.25c-.49-.32-.29-.16-.7-.55-.24-.23-.46-.46-.66-.72.22.29-.29-.49-.35-.6-.27-.47-.37-.7-.42-.83-.56-1.45-.83-2.99-1.06-4.53-.06-.43.04.33-.01-.09-.03-.21-.05-.42-.08-.63-.04-.33-.08-.66-.12-.99-.12-.94-.24-1.88-.4-2.8-.25-1.4-.65-2.85-1.4-4.07-.86-1.42-2.13-2.44-3.7-2.99-1.83-.64-3.9-.37-5.8-.56-3.46-.36-6.64-1.5-9.52-3.43-5-3.35-8.16-9.05-9.85-14.86-.42-1.46-.77-2.95-1.03-4.45-.06-.35-.12-.7-.18-1.06-.02-.15-.05-.31-.07-.47-.11-.74.04.31-.02-.14-.09-.71-.16-1.42-.22-2.13-.27-3.53-.03-6.97,1.04-10.37,2.72-8.57,10.31-16.33,19.77-16.1,1.13.03,2.08-.8,2.41-1.84.72-2.28,1.58-4.56,2.17-6.87.24-.91,0-1.66-.27-2.54-.34-1.13-.56-2.29-.64-3.47-.14-2.24.12-4.44.73-6.6,1.27-4.45,3.92-8.4,7.35-11.47,3.85-3.44,8.81-5.48,13.8-6.57,6.21-1.36,12.69-1.18,18.97-.34,1.34.18,2.5-1.28,2.5-2.5,0-1.5-1.16-2.32-2.5-2.5h0Z"/>
      </g>
      <g>
        <path class="cls-4" d="M43.45,47.09c-5.21,11.93-4.54,30.56-4.77,40.74.2,3.06,2.46,6.93,5.27,8.07,2.34,1.16,4.43,1.39,7.28,1.41,6.29.04,12.19-3.43,14.89-9.11,1.48-3.11,2.36-6.51,3.31-9.56.94-4.34,2.54-11.04,3.21-17.85-9.05-6.46-18.7-11.85-29.19-13.7Z"/>
        <path class="cls-3" d="M65.11,112.33c-1.62.17-2.74,1.69-2.42,3.28.38,1.85,1.2,4.16,2.92,6.33,3.89,4.89,9.72,5.7,12.79,5.75,1.16.02,2.28-.47,2.99-1.38,4.93-6.28,12.05-11.16,20.1-15.27,1.22-.63.67-2.48-.7-2.34-11.9,1.21-23.79,2.43-35.69,3.64Z"/>
        <path class="cls-2" d="M63.04,71.57c.7,6.52-7.82,9.67-9.49,2.47-1.17-3.5,1.5-7.55,5.04-7.83,2.17,1.06,4.92,2.57,4.45,5.36Z"/>
      </g>
      <g>
        <path class="cls-4" d="M114.59,49.63c5.21,11.93,4.54,30.56,4.77,40.74-.2,3.06-2.46,6.93-5.27,8.07-2.97,1.48-6.05,1.77-9.02.8-1.34-.44-2.75-.63-4.13-.88-7.17-1.29-10.4-11-12.33-17.19-.94-4.34-2.54-11.04-3.21-17.85,9.05-6.46,18.7-11.85,29.19-13.7Z"/>
        <path class="cls-2" d="M95,74.11c-.7,6.52,7.82,9.67,9.49,2.47,1.17-3.5-1.5-7.55-5.04-7.83-2.17,1.06-4.92,2.57-4.45,5.36Z"/>
      </g>
    </g>
  </g>
</svg>