<?xml version="1.0" encoding="UTF-8"?>
<svg id="Bakgrunn" xmlns="http://www.w3.org/2000/svg" xmlns:xlink="http://www.w3.org/1999/xlink" viewBox="0 0 1683.78 735.32">
  <defs>
    <style>
      .cls-1 {
        fill: #00b1dc;
      }

      .cls-1, .cls-2, .cls-3, .cls-4, .cls-5 {
        stroke: #231f20;
        stroke-miterlimit: 10;
      }

      .cls-1, .cls-3 {
        stroke-width: 4.6px;
      }

      .cls-2, .cls-6 {
        fill: none;
      }

      .cls-6 {
        stroke-width: 0px;
      }

      .cls-3 {
        fill: #a1cf6d;
      }

      .cls-4 {
        fill: #fff;
      }

      .cls-5 {
        fill: #0a0203;
      }
    </style>
    <clipPath id="clippath">
      <rect class="cls-6" x="13.59" y="582.43" width="143.02" height="142.32"/>
    </clipPath>
    <clipPath id="clippath-1">
      <rect class="cls-6" x="13.59" y="582.43" width="143.72" height="143.02"/>
    </clipPath>
  </defs>
  <g>
    <path class="cls-1" d="M1811.63,943.43c-.62-4.16-47.05-579.41-244.59-761.94-11.09-9-22.46-18.66-34.2-28.18.42.29.88.49,1.28.82-29.08-23.05-59.9-46.19-94.75-55.98.88-.16-247.68-83.39-372.12-85.12C686.53,4.43,184.26,174.7-20.48,518.43c-8.6,11.27-14.67,24.16-21.73,36.36,6.96,15.03,13.34,30.39,20.41,45.24,2.75,5.79-5.87,10.85-8.63,5.05-6.38-13.41-12.18-27.34-18.38-41.06-80.34,108-96.04,254-128.74,381.86-22.67,109.22-4.66,223.17,35.03,325.59-.13-.21.37.92.24.71.04.25.44,2.26.48,2.22,28.65,182.92,116.87,370.35,285.97,461.99,61.93,69.54,219.32,183.93,218.93,183.52,10.05,5.91,20.17,11.58,30.38,16.72,0,0,34.16,12.65,34.33,12.58,52.06,32.23,118.38,17.96,179.22,31.39,228.9,33.49,460.81-8.76,663.83-108.13-.64.49-1.28.99-1.92,1.48,155.6-69.92,266.49-234.62,363.99-372.82,0,.08.03.16.1.25,49.4-81.08,93.43-165.31,127.2-253.68,43.19-83.16,53.89-173.14,59.33-263.02-1.45-14.26-.16-28.49-7.91-41.25Z"/>
    <g>
      <g>
        <path class="cls-5" d="M1171.45,1007.37c-.48.03-.96.13-1.41.29-.6.38-1.16.3-1.68-.16-10.2,5.2-21.24,7.14-32.47,8.34-25.15,7.94-48.64,3.36-71.1-9.32-18.03-10.17-29.93-25.66-38.55-44.06,1.58-10.43-2.67-20.19-3.5-30.38-1.52-18.59-1.61-37.12-.19-55.69.21-2.71.24-5.38-.25-8.05-1.16-17.07,1.36-33.79,5.25-50.31,1.42-6.02,2.72-12.06,4.14-18.07,2.99-12.66,6.85-25.07,12.19-36.98,6.4-22.15,14.31-43.76,22.64-65.25,5.6-14.45,10.65-29.11,17.29-43.14.54-9.08,5.02-16.7,10.82-22.93,18.25-19.62,39.88-33.6,67.25-36.94,7.77-.95,15.16-3.74,22.85-5.16,14.57-2.69,26.59,1.62,36.19,12.77,3.36,3.9,6.89,7.72,11.23,10.4,8.2,5.07,14.61,11.82,20.15,19.55,3.75,3.74,3.88,8.91,5.35,13.55,1.78,5.4,3.35,10.83,2.95,16.61-.57,6.09,4.71,11.59,1.77,17.91-2.41,4.58-1.71,10.05-4.21,14.6-.74,1.35-1.2,3.27-3.21,3.01-1.92-.25-2.29-2.11-2.58-3.65-.55-2.89-.23-5.92-1.31-8.73-3.06-14.98-3.67-30.54-10.94-44.52-7.5-14.41-17.18-26.07-34.42-28.89-9.64-1.58-25.89,5.56-30.69,14.09-7.78,13.82-11.18,28.71-12.66,44.57-2.15,23.02,7.89,41.85,17.78,61,1.48,2.86,3.44,5.52,4.52,8.56,3.29,9.25,10.48,13.72,19.55,14.71,14.1,1.55,36.38-3.28,41.44-22.07.67-2.47-8.77-57.48,17.61-56.29,4.15,25.58-9.35,101.93-15.69,126.86-1.63,6.42-.76,12.83-2.09,19.16-4.46,21.11-4.88,42.33-3.84,63.91.68,14.1,1.07,28.4.52,42.62-.15,3.94-.7,7.51-4.41,9.76h.08c-.08.84-.83,1.34-1.09,2.08-.2,1.9-.4,3.79-.61,5.69-6.91,14.74-15.25,28.32-29.87,36.81l-.04.27c-5.31,11.57-15.6,16.34-26.93,19.7l-.08-.02c-1.44,3.6-5.46,1.9-7.73,3.78Z"/>
        <path class="cls-4" d="M1253.14,685.6c-.07,13.63-.91,27.2-3.44,40.62-1.92,3.85-1.88,8.25-3.82,12.22-9.29,18.94-38.1,24.18-53.66,15.42-2.43-1.36-4.2-3.37-5.53-5.75-5.3-9.57-11.31-18.82-15.1-29.11-2.24-6.09-6.92-10.78-8.27-17.57-.81-4.06-2.13-8.14-2.47-12.4-1.19-15.07-1.39-30.44,3.31-44.64,3.36-10.16,6.43-22.43,17.39-27.71,7.04-3.39,13.81-8.33,22.78-7.62,8.21.64,14.81,3.91,20.96,8.7,14.33,11.16,20.95,26.67,24.13,43.95,1.46,7.92,2.48,15.92,3.7,23.89Z"/>
      </g>
      <g>
        <path class="cls-5" d="M364.75,932.98c-3.62-40.37,1.01-80.53,3.08-120.76.11-2.15.36-4.32.22-6.46-1.46-22.38,3.31-43.88,9.14-65.24.42-1.54,1.17-3.38.71-4.72-4.95-14.61,1.47-28.48,2.58-42.69,1.17-13.1,1.78-26.29,6-38.92,4.05-6.64,4.42-15.11,10.29-20.85.55-.23.74-.63.56-1.2.11-.82.72-1.39,1.09-2.08,2.78-5.99,5.57-11.97,8.35-17.96,7.6-18.93,19.62-34.34,33.97-49.03,15.97-16.35,35.02-23.47,56.22-26.96,11.08-1.83,22.63-3.83,33.63-2.48,7.76.95,16.67.34,23.61,5.83.22.87.64,1.48,1.68,1.24,5.69,2.38,11.55,4.44,17.04,7.21,19.29,9.73,32.31,24.7,39.08,45.51,3.47,10.67,6.46,21.65,12.16,31.57,3.03,5.28,2.86,11.3,1.61,17.14-1.02,4.76-1.56,9.33-1.44,14.35.12,5.27-2.01,10.61-.46,16.31,4.58,16.78,2.74,33.76,2.68,50.91-.09,24.21-4.09,47.15-10.93,70.04-2.44,8.15-3.42,16.73-5.06,25.12-.78,4,.26,8.82-4.9,10.83-.67.26-.69.64-.54,1.27,2.57,11-5.37,20.58-4.27,31.41.36,3.56-2.86,5.82-3.92,9.03-2.2,6.61-3.29,13.32-4.36,20.01-1.04,6.59-4.52,12.02-7.4,17.58-1.87,3.6-3.43,7.13-4.54,10.96l-.34.49c-3.96,5.25-5.61,11.73-8.64,17.47-6.35,12.03-15.97,20.72-24.59,30.59-5.56,6.37-11.49,12.19-17.56,18.02-4.25,4.09-8.88,5.54-14.13,6.76-8.95,2.08-17.89,3.76-27.08,1.94-2.91-.57-5.27.72-7.55,2.05-11.62,6.83-23.65,9.95-37.57,8.86-7.51-.59-14.12-1.97-20.5-5.25-5.57-2.86-11.8-3.54-17.46-6-3,.82-5.32-.7-7.25-2.54-15.32-14.67-27.86-31.13-32.93-52.27-.57-2.36-1.04-4.72-.28-7.13Z"/>
        <path class="cls-4" d="M598.27,640.91c.62,14.21-4.36,27.03-10.1,39.54-2.22,4.83-6.01,8.05-11.54,10.32-19.37,7.93-35.86.76-52.97-7.38-24.8-11.81-38.01-33.37-50.17-56.12-6.24-11.67-4.8-24.05-2.15-36.16,1.83-8.39,8.27-13.06,16.18-16.16,9.47-3.71,18.77-7.88,27.99-12.18,23.93-11.16,60.73,6.67,69.85,31.38,3.31,8.97,7.79,17.56,10.52,26.84,1.93,6.55,2.57,13.19,2.38,19.93Z"/>
      </g>
    </g>
    <g>
      <path class="cls-3" d="M907.61,697.39c-15.06-4.75-35.94,3.05-45.12-9.46-6.24-8.5-18.14,3.01-26.97,1.89-4.4-.55-13.34,2.05-14.75,2.79-14.57,7.65-31.76,2.5-37.32-10.85-2.01-6.58-14.8-.7-14-11.04-4.05-20.65-1.25-43.47,6.62-64.38,3.5-15.59-4.43-34.49,4.59-48.72,11.18-1.56-.59-8.59,3.19-12.8,12.51-3.96,9.25-26.31,18.67-26.02,6.79-.1,9.77-5.47,13.93-9.24,22.59,4.59,52.82,1.53,68.65,25.15,2.42-3.42,4.92-7.3,6.79-.08.42,14.72,19.11,18.9,20.04,30.11-.17,2.84.29,4.89,3.92,5.83,14.31,2.89,4.49,24.32,19.81,25.72,4.78,3.07,4.7,11.74,12.02,12.62,3.13.97,3.64,2.58,3.63,5.2-2.62,9.26,11.68,13.9,5.06,22.07-4.18,16.96-.43,43.08-20.28,51.44-4.02,13.15-15.82,15.1-28.47,9.76Z"/>
      <path class="cls-3" d="M1419.92,265.55c-16.43-25.24-40.27-46.07-52.5-73.06-5.57-36.5,24.21-63.66,36.25-94.94,10.98-2.79,35.69.59,35.69.59,48.4,13.82,127.62,83.13,127.62,83.13,156.7,134.7,218.06,335.13,261.11,532.81,13.12,51.93-19.52,96.88-12.74,148.18-3.37,20.17,10.11,64.32-14.89,69.63-44.66-49.16-99.61-74.18-163.5-36.49-33.26-8.07-70.28-.88-100.88,18.49-18.33,1.11-37.83-3.21-57.69-2.12-23.28,6.13-43.82,10.62-65.68,22.57-19.53,8.71-26.68,3.71-46.7,2.8-5.98,7.22-10-16.07-15.82-18.7-9.07-18.7-6.65-44,10.15-59.56,4.9-8.39,2.62-19.36,12.83-25.55,13.21-38.58-.44-82.09,25.22-117.43,40-34.88,87.12-90.38,66.72-152.07-67.84-107.07,52.71-212.7-45.19-298.28Z"/>
      <path class="cls-3" d="M1003.9,116.15c-.42,7.02-9.68,7.95-5.89,16.05.88,1.8.45,4.66-1.92,5.6-11.35,6.48,7.58,22.36-9.69,25.81-3.92,26.66,18.74,50.86,24.13,76.36,11.64,28.85-12.22,63.24-38.99,73.36-5.05.64-46.31,18.52-46.31,18.52-13.15,7.75-32.55-10.28-43.22-15.79-16.68-8.62-21.87-33-31.2-50.46-15.68-16.63-27.73-42.22-53.8-41.69-7.79-4.77-18.38-12.16-27.53-7.71-53.24.61-114.97-92.63-108.39-140.08,17.66-43.81,453.03-110.13,408.33-37.37,0,0,3.97,8.24-.31,12.7h0c-7.47,6.95-18.48,13.53-27.26,19.61-5.69,5.11-4.03,18.06-13.47,17.8-3.4-.4-3.92,1.79-4.54,4.23-4.89,8.97-12.94,15.68-19.92,23.06Z"/>
      <path class="cls-3" d="M450.79,267.29c-23.51,56.58-3.93,128.27-52.36,174.56-11.57,12.97-35.21,6.56-43.5,16.71-10.02,7.98-28.22,12.36-37.91,23.69-47.07,25.19-94.76,76.24-76.47,133.38,9.74,19.9-20.42,32.97-28.97,49.23-24.9,23.34-41.9,57.73-76.67,67.78-20.08,6.37-25.34-21.52-39.94-28.89-35.8-39.63,38.77-93.51,4.19-137.44-7.86-19.63-30.97-37.18-25.55-60.5,22.45-20.61,26.2-54.98,53.46-71.19,8.56-23.89,32.94-39.38,29.78-66.33,13.89-18.2-1.86-52.34,16.68-68.06,97.52-82.73,221.57-141.86,338.28-188.42,18.26-1.77,18.9,20.41,22.61,32.78-1.19,8.9-15.02,17.43-22.38,23.56-2.83.84-1.83,8.46-5.33,11.64,2.42,3.71,5.06-1.58,7.37.78-1.31,4.88-6.13,3.3-9.14,4.98-2.81,1.57-8.49.18-6.97,6.51-1.73,3.22-8.97,1.6-9.4,7.73-10.3,23.12-24.82,45.87-37.76,67.5Z"/>
    </g>
    <path class="cls-2" d="M1811.63,943.43c-.06-.41-.58-6.53-1.65-17.26,11.36-13.79,2.57-47.12,5.37-63.91-6.77-51.3,25.86-96.25,12.74-148.18-43.04-197.69-104.4-398.12-261.11-532.81,0,0-11.95-10.44-29.36-24.02-1.61-1.32-3.17-2.63-4.79-3.94.42.29.88.49,1.28.82-27.14-21.51-55.84-42.96-87.88-53.7-2.34-.86-4.65-1.65-6.88-2.28.88-.16-247.68-83.39-372.12-85.12-4.15-.09-8.33-.14-12.51-.19-63.53-20.42-278.86,10.99-361.5,42.99C405.43,125.75,121.22,280.53-20.48,518.43c-8.6,11.27-14.67,24.16-21.73,36.36,6.96,15.03,13.34,30.39,20.41,45.24,2.75,5.79-5.87,10.85-8.63,5.05-6.38-13.41-12.18-27.34-18.38-41.06-80.34,108-96.04,254-128.74,381.86-22.67,109.22-4.66,223.16,35.03,325.59-.13-.21.37.92.24.71.04.25.44,2.26.48,2.22,0,0,0,0,0,0,.58,4.1,1.31,8.43,2.16,12.98,15.14,88.06,44.18,176.6,89.49,254.49,17.97,37.89,34,64.93,42.99,69.01,5.41,5.38,11.02,10.53,16.72,15.59,40.23,54.66,83.93,88.55,134.6,109.92,19.47,21.86,48.38,48.16,78.85,73.92,45.77,45.46,98.77,87.04,154.16,117.65.48.27.96.54,1.45.81,4.93,2.7,9.87,5.34,14.83,7.87,0,0,.02,0,.02,0,0,0,34.16,12.65,34.33,12.58,52.06,32.23,118.38,17.96,179.22,31.39,228.9,33.49,460.81-8.76,663.83-108.13-.64.49-1.28.99-1.92,1.48,155.62-69.93,266.51-234.64,364.01-372.85,0,.09,0,.18.07.28,49.4-81.08,93.43-165.31,127.2-253.68,41.37-79.66,52.92-165.58,58.6-251.66.33-.37.54-.79.35-1.38-.1.25-.21.51-.31.76.23-3.58.48-7.16.69-10.74-1.45-14.26-.16-28.49-7.91-41.25Z"/>
    <path class="cls-2" d="M4.64,479.24s81.71-103.25,132-147.91C287.51,197.38,489.47,105.33,693.23,55.82c82.64-32,297.98-63.41,361.5-42.99,4.18.05,8.36.1,12.51.19,124.44,1.73,372.99,84.96,372.12,85.12,2.22.63,4.53,1.42,6.88,2.28,32.03,10.75,60.74,32.19,87.88,53.7-.4-.32-.87-.52-1.28-.82,1.62,1.31,3.18,2.63,4.79,3.94,17.42,13.57,29.36,24.02,29.36,24.02,156.7,134.7,218.06,335.13,261.11,532.81,13.12,51.93-19.52,96.88-12.74,148.18-2.81,16.79,5.99,50.12-5.37,63.91,1.07,10.73,1.59,16.85,1.65,17.26,7.75,12.75,6.46,26.99,7.91,41.25-.22,3.58-.46,7.16-.69,10.74.1-.25.21-.51.31-.76.19.58-.01,1.01-.35,1.38-5.68,86.09-17.23,172-58.6,251.66-33.77,88.37-77.79,172.6-127.2,253.68-.08-.1-.08-.19-.07-.28-97.5,138.21-208.39,302.92-364.01,372.85.64-.49,1.28-.99,1.92-1.48-203.02,99.38-434.93,141.62-663.83,108.13-60.83-13.43-127.15.85-179.22-31.39-.17.07-34.34-12.58-34.33-12.58,0,0-.02,0-.02,0-4.96-2.52-9.9-5.16-14.83-7.87-.48-.27-.96-.54-1.45-.81-55.39-30.6-108.38-72.19-154.16-117.65-30.47-25.77-59.38-52.06-78.85-73.92-50.67-21.36-94.38-55.25-134.6-109.92-5.7-5.06-11.31-10.21-16.72-15.59-8.99-4.07-25.02-31.12-42.99-69.01-45.31-77.89-74.35-166.43-89.49-254.49-.86-4.55-1.58-8.88-2.16-12.98,0,0,0,0,0,0-.04.05-.44-1.96-.48-2.22.13.21-.37-.92-.24-.71-39.7-102.42-57.71-216.37-35.03-325.59,32.71-127.85,48.4-273.86,128.74-381.86,6.2,13.72,11.99,27.65,18.38,41.06,2.76,5.81,11.39.74,8.63-5.05-7.07-14.85-13.45-30.21-20.41-45.24,7.06-12.2,21.73-32.36,21.73-32.36,0,0,20.48-36.35,25.12-43.19"/>
  </g>
  <rect class="cls-6" x="0" y="-4.09" width="1683.78" height="742.43"/>
</svg>