<?xml version="1.0" encoding="UTF-8"?>
<svg id="Layer_2" data-name="Layer 2" xmlns="http://www.w3.org/2000/svg" viewBox="0 0 83.59 84.27">
  <defs>
    <style>
      .cls-1 {
        fill: #f5ec43;
        stroke: #231f20;
        stroke-miterlimit: 10;
        stroke-width: 4.6px;
      }
    </style>
  </defs>
  <g id="Layer_11" data-name="Layer 11">
    <path class="cls-1" d="M27.87,55.14c-3.64-3.28-6.51-.89-14.29-4.24-2.52-1.08-11.22-4.83-11.28-9.8-.06-5.37,10-9.76,12.44-10.82,7.92-3.45,12.47-2.09,14.39-5.66,1.5-2.79-.85-4.45-.34-10.66.2-2.47.77-9.37,4.89-11.2,4.47-1.98,10.53,3.18,11.02,3.61,4.76,4.16,3.84,8.18,7.33,9.39,3.4,1.18,5.14-2.34,11.58-3.08,3.64-.42,10.45-.14,12.35,3.5,2.12,4.06-2.74,10.62-4.48,12.98-3.8,5.14-6.53,5.36-6.67,8.06-.2,3.79,5.11,4.91,10.53,11.86.91,1.17,8.09,10.38,5.34,14.76-2.38,3.79-11.45,2.79-15.66,1.85-6-1.33-8.76-3.98-10.94-2.49-2.02,1.38-.55,4.26-2.24,9.07-1.57,4.46-5.63,9.92-9.53,9.69-3.89-.22-6.48-6.05-8.67-10.99-4.05-9.12-2.05-12.49-5.76-15.83Z"/>
  </g>
</svg>