<?xml version="1.0" encoding="utf-8"?>
<!-- Generator: Adobe Illustrator 28.3.0, SVG Export Plug-In . SVG Version: 6.00 Build 0)  -->
<svg version="1.1" id="Layer_1" xmlns="http://www.w3.org/2000/svg" xmlns:xlink="http://www.w3.org/1999/xlink" x="0px" y="0px"
	 viewBox="0 0 2000 1200" style="enable-background:new 0 0 2000 1200;" xml:space="preserve">
<style type="text/css">
	.st0{fill:#4A4B4D;stroke:#000000;stroke-miterlimit:10;}
	.st1{fill:#A2BCCC;stroke:#000000;stroke-miterlimit:10;}
	.st2{opacity:0.78;fill:#E1E8EF;stroke:#000000;stroke-width:0.25;stroke-miterlimit:10;}
	.st3{fill:#A3A5A7;stroke:#000000;stroke-miterlimit:10;}
	.st4{fill:#4D6472;stroke:#000000;stroke-miterlimit:10;}
	.st5{fill:#525759;stroke:#000000;stroke-miterlimit:10;}
	.st6{fill:#657F8C;stroke:#000000;stroke-miterlimit:10;}
	.st7{fill:#A4B2BC;stroke:#000000;stroke-miterlimit:10;}
	.st8{fill:#8AACC6;stroke:#000000;stroke-miterlimit:10;}
	.st9{fill:#8F9EAA;stroke:#000000;stroke-miterlimit:10;}
	.st10{fill:#8099A8;stroke:#000000;stroke-miterlimit:10;}
	.st11{fill:#839BAA;stroke:#000000;stroke-miterlimit:10;}
	.st12{fill:#778389;stroke:#000000;stroke-miterlimit:10;}
	.st13{opacity:0.78;fill:#E1E8EF;stroke:#000000;stroke-miterlimit:10;}
	.st14{opacity:0.73;}
	.st15{fill:#E1E8EF;}
	.st16{fill:#AA9379;}
	.st17{fill:#3A3A3A;}
	.st18{fill:#444545;}
	.st19{fill:#534F57;}
	.st20{fill:#91CA68;}
	.st21{fill:#6F577C;}
	.st22{fill:#A5A4A4;stroke:#000000;stroke-miterlimit:10;}
	.st23{fill:#7F7F7F;stroke:#000000;stroke-miterlimit:10;}
	.st24{fill:#282828;stroke:#000000;stroke-miterlimit:10;}
	.st25{fill:#E4DED0;stroke:#000000;stroke-miterlimit:10;}
	.st26{fill:#63625F;stroke:#000000;stroke-miterlimit:10;}
	.st27{fill:#DB464C;}
	.st28{fill:#1D90A3;}
	.st29{fill:#6698D0;}
	.st30{fill:#577F60;}
</style>
<g>
	<rect x="1860.89" y="301.83" class="st0" width="27.9" height="46.96"/>
	<g>
		<rect x="1182.67" y="351.84" class="st0" width="27.9" height="46.96"/>
		<g>
			<g>
				<polygon class="st1" points="1146.61,797.76 975.79,797.76 975.79,445.58 1146.61,336.77 				"/>
				
					<rect x="1004.45" y="463.68" transform="matrix(-1 -4.489266e-11 4.489266e-11 -1 2122.3972 964.8068)" class="st2" width="113.49" height="37.44"/>
				
					<rect x="1004.45" y="648.58" transform="matrix(-1 -4.489266e-11 4.489266e-11 -1 2122.3972 1334.5996)" class="st2" width="113.49" height="37.44"/>
				
					<rect x="1004.45" y="589.79" transform="matrix(-1 -4.489266e-11 4.489266e-11 -1 2122.3972 1217.012)" class="st2" width="113.49" height="37.44"/>
				
					<rect x="1004.45" y="525.11" transform="matrix(-1 -4.489266e-11 4.489266e-11 -1 2122.3972 1087.6595)" class="st2" width="113.49" height="37.44"/>
				
					<rect x="1004.45" y="715.89" transform="matrix(-1 -4.489266e-11 4.489266e-11 -1 2122.3972 1469.217)" class="st2" width="113.49" height="37.44"/>
			</g>
			<g>
				
					<rect x="1109.74" y="386.49" transform="matrix(-1 -4.489665e-11 4.489665e-11 -1 2373.9233 1134.5251)" class="st3" width="154.44" height="361.54"/>
				
					<rect x="1130.22" y="413.4" transform="matrix(-1 -4.489266e-11 4.489266e-11 -1 2373.9233 864.2491)" class="st2" width="113.49" height="37.44"/>
				
					<rect x="1130.22" y="467.23" transform="matrix(-1 -4.489266e-11 4.489266e-11 -1 2373.9233 971.8915)" class="st2" width="113.49" height="37.44"/>
				
					<rect x="1130.22" y="521.05" transform="matrix(-1 -4.489266e-11 4.489266e-11 -1 2373.9233 1079.5339)" class="st2" width="113.49" height="37.44"/>
				
					<rect x="1130.22" y="682.51" transform="matrix(-1 -4.489266e-11 4.489266e-11 -1 2373.9233 1402.4611)" class="st2" width="113.49" height="37.44"/>
				
					<rect x="1130.22" y="628.69" transform="matrix(-1 -4.489266e-11 4.489266e-11 -1 2373.9233 1294.8187)" class="st2" width="113.49" height="37.44"/>
				
					<rect x="1130.22" y="574.87" transform="matrix(-1 -4.489266e-11 4.489266e-11 -1 2373.9233 1187.1763)" class="st2" width="113.49" height="37.44"/>
			</g>
			<g>
				
					<rect x="1752.98" y="343.79" transform="matrix(-1 -4.490420e-11 4.490420e-11 -1 3656.8909 964.9359)" class="st4" width="150.93" height="277.36"/>
				
					<rect x="1772.99" y="364.43" transform="matrix(-1 -4.490376e-11 4.490376e-11 -1 3656.8909 757.5886)" class="st2" width="110.91" height="28.72"/>
				
					<rect x="1772.99" y="405.72" transform="matrix(-1 -4.490376e-11 4.490376e-11 -1 3656.8909 840.1685)" class="st2" width="110.91" height="28.72"/>
				
					<rect x="1772.99" y="447.01" transform="matrix(-1 -4.490376e-11 4.490376e-11 -1 3656.8909 922.7484)" class="st2" width="110.91" height="28.72"/>
				
					<rect x="1772.99" y="570.88" transform="matrix(-1 -4.490376e-11 4.490376e-11 -1 3656.8909 1170.488)" class="st2" width="110.91" height="28.72"/>
				
					<rect x="1772.99" y="529.59" transform="matrix(-1 -4.490376e-11 4.490376e-11 -1 3656.8909 1087.9081)" class="st2" width="110.91" height="28.72"/>
				
					<rect x="1772.99" y="488.3" transform="matrix(-1 -4.490376e-11 4.490376e-11 -1 3656.8909 1005.3282)" class="st2" width="110.91" height="28.72"/>
			</g>
			<g>
				
					<rect x="1236.7" y="344.99" transform="matrix(-1 -4.490331e-11 4.490331e-11 -1 2693.3745 1051.5178)" class="st5" width="219.96" height="361.54"/>
				
					<rect x="1265.87" y="371.9" transform="matrix(-1 -4.490065e-11 4.490065e-11 -1 2693.3745 781.2418)" class="st2" width="161.64" height="37.44"/>
				
					<rect x="1265.87" y="425.72" transform="matrix(-1 -4.490065e-11 4.490065e-11 -1 2693.3745 888.8842)" class="st2" width="161.64" height="37.44"/>
				
					<rect x="1265.87" y="479.54" transform="matrix(-1 -4.490065e-11 4.490065e-11 -1 2693.3745 996.5266)" class="st2" width="161.64" height="37.44"/>
				
					<rect x="1265.87" y="641.01" transform="matrix(-1 -4.490065e-11 4.490065e-11 -1 2693.3745 1319.4537)" class="st2" width="161.64" height="37.44"/>
				
					<rect x="1265.87" y="587.19" transform="matrix(-1 -4.490065e-11 4.490065e-11 -1 2693.3745 1211.8114)" class="st2" width="161.64" height="37.44"/>
				
					<rect x="1265.87" y="533.36" transform="matrix(-1 -4.490065e-11 4.490065e-11 -1 2693.3745 1104.1689)" class="st2" width="161.64" height="37.44"/>
			</g>
			<g>
				<polygon class="st6" points="1616,821.19 1445.17,821.19 1445.17,469.01 1616,360.2 				"/>
				
					<rect x="1473.84" y="487.12" transform="matrix(-1 -4.490909e-11 4.490909e-11 -1 3061.1704 1011.6724)" class="st2" width="113.49" height="37.44"/>
				
					<rect x="1473.84" y="672.01" transform="matrix(-1 -4.490909e-11 4.490909e-11 -1 3061.1704 1381.4652)" class="st2" width="113.49" height="37.44"/>
				
					<rect x="1473.84" y="613.22" transform="matrix(-1 -4.490909e-11 4.490909e-11 -1 3061.1704 1263.8776)" class="st2" width="113.49" height="37.44"/>
				
					<rect x="1473.84" y="548.54" transform="matrix(-1 -4.490909e-11 4.490909e-11 -1 3061.1704 1134.5251)" class="st2" width="113.49" height="37.44"/>
				
					<rect x="1473.84" y="739.32" transform="matrix(-1 -4.490909e-11 4.490909e-11 -1 3061.1704 1516.0826)" class="st2" width="113.49" height="37.44"/>
			</g>
			<g>
				
					<rect x="1604.38" y="452.34" transform="matrix(-1 -4.490021e-11 4.490021e-11 -1 3386.3687 1196.6011)" class="st7" width="177.6" height="291.91"/>
				
					<rect x="1627.93" y="474.07" transform="matrix(-1 -4.489221e-11 4.489221e-11 -1 3386.3687 978.3746)" class="st2" width="130.51" height="30.23"/>
				
					<rect x="1627.93" y="517.53" transform="matrix(-1 -4.489932e-11 4.489932e-11 -1 3386.3687 1065.2874)" class="st2" width="130.51" height="30.23"/>
				
					<rect x="1627.93" y="560.98" transform="matrix(-1 -4.489221e-11 4.489221e-11 -1 3386.3687 1152.2)" class="st2" width="130.51" height="30.23"/>
				
					<rect x="1627.93" y="691.35" transform="matrix(-1 -4.489221e-11 4.489221e-11 -1 3386.3687 1412.9381)" class="st2" width="130.51" height="30.23"/>
				
					<rect x="1627.93" y="647.9" transform="matrix(-1 -4.489221e-11 4.489221e-11 -1 3386.3687 1326.0254)" class="st2" width="130.51" height="30.23"/>
				
					<rect x="1627.93" y="604.44" transform="matrix(-1 -4.489221e-11 4.489221e-11 -1 3386.3687 1239.1127)" class="st2" width="130.51" height="30.23"/>
			</g>
			<g>
				
					<rect x="1854.37" y="432.45" transform="matrix(-1 -4.489665e-11 4.489665e-11 -1 3863.1736 1226.4368)" class="st8" width="154.44" height="361.54"/>
				
					<rect x="1874.84" y="459.36" transform="matrix(-1 -4.489266e-11 4.489266e-11 -1 3863.1736 956.1607)" class="st2" width="113.49" height="37.44"/>
				
					<rect x="1874.84" y="513.18" transform="matrix(-1 -4.488466e-11 4.488466e-11 -1 3863.1736 1063.8031)" class="st2" width="113.49" height="37.44"/>
				
					<rect x="1874.84" y="567" transform="matrix(-1 -4.489266e-11 4.489266e-11 -1 3863.1736 1171.4454)" class="st2" width="113.49" height="37.44"/>
				
					<rect x="1874.84" y="728.47" transform="matrix(-1 -4.489266e-11 4.489266e-11 -1 3863.1736 1494.3727)" class="st2" width="113.49" height="37.44"/>
				
					<rect x="1874.84" y="674.64" transform="matrix(-1 -4.489266e-11 4.489266e-11 -1 3863.1736 1386.7302)" class="st2" width="113.49" height="37.44"/>
				
					<rect x="1874.84" y="620.82" transform="matrix(-1 -4.489266e-11 4.489266e-11 -1 3863.1736 1279.0879)" class="st2" width="113.49" height="37.44"/>
			</g>
		</g>
	</g>
</g>
<g>
	<rect x="147.64" y="222.59" class="st0" width="32.04" height="53.94"/>
	<g>
		<g>
			<polygon class="st1" points="887.75,710.55 1058.57,710.55 1058.57,358.38 887.75,249.56 			"/>
			<rect x="916.42" y="376.48" class="st2" width="113.49" height="37.44"/>
			<rect x="916.42" y="561.37" class="st2" width="113.49" height="37.44"/>
			<rect x="916.42" y="502.58" class="st2" width="113.49" height="37.44"/>
			<rect x="916.42" y="437.9" class="st2" width="113.49" height="37.44"/>
			<rect x="916.42" y="628.68" class="st2" width="113.49" height="37.44"/>
		</g>
		<g>
			<rect x="770.18" y="299.29" class="st3" width="154.44" height="361.54"/>
			<rect x="790.65" y="326.2" class="st2" width="113.49" height="37.44"/>
			<rect x="790.65" y="380.02" class="st2" width="113.49" height="37.44"/>
			<rect x="790.65" y="433.84" class="st2" width="113.49" height="37.44"/>
			<rect x="790.65" y="595.31" class="st2" width="113.49" height="37.44"/>
			<rect x="790.65" y="541.48" class="st2" width="113.49" height="37.44"/>
			<rect x="790.65" y="487.66" class="st2" width="113.49" height="37.44"/>
		</g>
		<g>
			<rect x="130.45" y="256.58" class="st4" width="150.93" height="277.36"/>
			<rect x="150.46" y="277.23" class="st2" width="110.91" height="28.72"/>
			<rect x="150.46" y="318.52" class="st2" width="110.91" height="28.72"/>
			<rect x="150.46" y="359.81" class="st2" width="110.91" height="28.72"/>
			<rect x="150.46" y="483.68" class="st2" width="110.91" height="28.72"/>
			<rect x="150.46" y="442.39" class="st2" width="110.91" height="28.72"/>
			<rect x="150.46" y="401.1" class="st2" width="110.91" height="28.72"/>
		</g>
		<g>
			<rect x="577.69" y="257.79" class="st5" width="219.96" height="361.54"/>
			<rect x="606.85" y="284.7" class="st2" width="161.64" height="37.44"/>
			<rect x="606.85" y="338.52" class="st2" width="161.64" height="37.44"/>
			<rect x="606.85" y="392.34" class="st2" width="161.64" height="37.44"/>
			<rect x="606.85" y="553.8" class="st2" width="161.64" height="37.44"/>
			<rect x="606.85" y="499.98" class="st2" width="161.64" height="37.44"/>
			<rect x="606.85" y="446.16" class="st2" width="161.64" height="37.44"/>
		</g>
		<g>
			<polygon class="st6" points="418.36,733.99 589.19,733.99 589.19,381.81 418.36,273 			"/>
			<rect x="447.03" y="399.91" class="st2" width="113.49" height="37.44"/>
			<rect x="447.03" y="584.81" class="st2" width="113.49" height="37.44"/>
			<rect x="447.03" y="526.01" class="st2" width="113.49" height="37.44"/>
			<rect x="447.03" y="461.34" class="st2" width="113.49" height="37.44"/>
			<rect x="447.03" y="652.12" class="st2" width="113.49" height="37.44"/>
		</g>
		<g>
			<rect x="252.37" y="365.14" class="st7" width="177.6" height="291.91"/>
			<rect x="275.92" y="386.87" class="st2" width="130.51" height="30.23"/>
			<rect x="275.92" y="430.32" class="st2" width="130.51" height="30.23"/>
			<rect x="275.92" y="473.78" class="st2" width="130.51" height="30.23"/>
			<rect x="275.92" y="604.15" class="st2" width="130.51" height="30.23"/>
			<rect x="275.92" y="560.69" class="st2" width="130.51" height="30.23"/>
			<rect x="275.92" y="517.24" class="st2" width="130.51" height="30.23"/>
		</g>
		<g>
			<rect x="25.55" y="345.24" class="st8" width="154.44" height="361.54"/>
			<rect x="46.03" y="372.16" class="st2" width="113.49" height="37.44"/>
			<rect x="46.03" y="425.98" class="st2" width="113.49" height="37.44"/>
			<rect x="46.03" y="479.8" class="st2" width="113.49" height="37.44"/>
			<rect x="46.03" y="641.26" class="st2" width="113.49" height="37.44"/>
			<rect x="46.03" y="587.44" class="st2" width="113.49" height="37.44"/>
			<rect x="46.03" y="533.62" class="st2" width="113.49" height="37.44"/>
		</g>
	</g>
</g>
<g>
	<rect x="571.01" y="355.29" class="st8" width="402.63" height="402.63"/>
	<rect x="621.22" y="395.65" class="st1" width="107.61" height="84.29"/>
	<rect x="820.3" y="656.59" class="st1" width="107.61" height="84.29"/>
	<rect x="621.22" y="656.59" class="st1" width="107.61" height="84.29"/>
	<rect x="820.3" y="520.29" class="st1" width="107.61" height="84.29"/>
	<rect x="621.22" y="520.29" class="st1" width="107.61" height="84.29"/>
	<rect x="820.3" y="395.65" class="st1" width="107.61" height="84.29"/>
</g>
<g>
	<polyline class="st1" points="503.54,1208.49 185.79,1208.49 185.79,553.4 503.54,351 	"/>
	<polyline class="st2" points="450.22,587.08 239.11,587.08 239.11,656.72 450.22,656.72 	"/>
	<polyline class="st2" points="450.22,931.01 239.11,931.01 239.11,1000.65 450.22,1000.65 	"/>
	<polyline class="st2" points="450.22,821.64 239.11,821.64 239.11,891.29 450.22,891.29 	"/>
	<polyline class="st2" points="450.22,701.34 239.11,701.34 239.11,770.98 450.22,770.98 	"/>
	<polyline class="st2" points="450.22,1056.21 239.11,1056.21 239.11,1125.85 450.22,1125.85 	"/>
</g>
<g>
	<rect x="-3.56" y="529.46" class="st9" width="316.39" height="672.5"/>
	<rect x="38.39" y="579.52" class="st2" width="232.5" height="69.64"/>
	<rect x="38.39" y="679.63" class="st2" width="232.5" height="69.64"/>
	<rect x="38.39" y="779.75" class="st2" width="232.5" height="69.64"/>
	<rect x="38.39" y="1080.09" class="st2" width="232.5" height="69.64"/>
	<rect x="38.39" y="979.97" class="st2" width="232.5" height="69.64"/>
	<rect x="38.39" y="879.86" class="st2" width="232.5" height="69.64"/>
</g>
<g>
	<rect x="1545.37" y="575.07" class="st10" width="463.57" height="672.5"/>
	<rect x="1606.83" y="625.12" class="st2" width="340.65" height="69.64"/>
	<rect x="1606.83" y="725.24" class="st2" width="340.65" height="69.64"/>
	<rect x="1606.83" y="825.35" class="st2" width="340.65" height="69.64"/>
	<rect x="1606.83" y="1125.69" class="st2" width="340.65" height="69.64"/>
	<rect x="1606.83" y="1025.58" class="st2" width="340.65" height="69.64"/>
	<rect x="1606.83" y="925.46" class="st2" width="340.65" height="69.64"/>
</g>
<g>
	<rect x="283.73" y="720.11" class="st11" width="488.6" height="488.6"/>
	<rect x="344.66" y="769.08" class="st1" width="130.58" height="102.29"/>
	<rect x="586.24" y="1085.75" class="st1" width="130.58" height="102.29"/>
	<rect x="344.66" y="1085.75" class="st1" width="130.58" height="102.29"/>
	<rect x="586.24" y="920.34" class="st1" width="130.58" height="102.29"/>
	<rect x="344.66" y="920.34" class="st1" width="130.58" height="102.29"/>
	<rect x="586.24" y="769.08" class="st1" width="130.58" height="102.29"/>
</g>
<rect x="1604.25" y="119.52" class="st0" width="129.78" height="95.31"/>
<g>
	<g>
		<polygon class="st12" points="1313.09,178.01 1313.09,591.41 709.66,591.41 709.66,1208.17 1313.09,1208.17 1326.43,1208.17 
			1753.16,1208.17 1753.16,178.01 		"/>
	</g>
</g>
<rect x="786.58" y="653.22" class="st13" width="164.84" height="129.12"/>
<rect x="786.58" y="1052.95" class="st13" width="164.84" height="129.12"/>
<rect x="786.58" y="844.16" class="st13" width="164.84" height="129.12"/>
<g class="st14">
	
		<ellipse transform="matrix(0.9859 -0.1672 0.1672 0.9859 -109.818 208.4938)" class="st15" cx="1183.64" cy="756.62" rx="134.07" ry="132.09"/>
	
		<ellipse transform="matrix(0.9859 -0.1672 0.1672 0.9859 -101.0503 242.5592)" class="st15" cx="1390.39" cy="721.57" rx="126.54" ry="124.67"/>
	
		<ellipse transform="matrix(0.9859 -0.1672 0.1672 0.9859 -138.5688 207.0577)" class="st15" cx="1160.74" cy="926.69" rx="117.2" ry="115.46"/>
	
		<ellipse transform="matrix(0.9859 -0.1672 0.1672 0.9859 -111.4839 260.5913)" class="st15" cx="1492.29" cy="792.56" rx="114.23" ry="112.55"/>
	
		<ellipse transform="matrix(0.9859 -0.1672 0.1672 0.9859 -162.4381 224.3035)" class="st15" cx="1251.25" cy="1077.11" rx="110.51" ry="108.87"/>
	
		<ellipse transform="matrix(0.9859 -0.1672 0.1672 0.9859 -133.8365 275.7387)" class="st15" cx="1571.1" cy="932.92" rx="126.98" ry="125.1"/>
	
		<ellipse transform="matrix(0.9859 -0.1672 0.1672 0.9859 -151.3647 261.133)" class="st15" cx="1475.57" cy="1029.74" rx="119.85" ry="118.08"/>
	
		<ellipse transform="matrix(0.9859 -0.1672 0.1672 0.9859 -137.5269 235.4324)" class="st15" cx="1329.82" cy="934.69" rx="122.22" ry="120.41"/>
</g>
<g>
	
		<rect x="1175.17" y="760.11" transform="matrix(-1 -4.483581e-11 4.483581e-11 -1 2363.0015 1528.8309)" class="st16" width="12.66" height="8.62"/>
	<ellipse class="st16" cx="1179.91" cy="740.14" rx="19.29" ry="22.35"/>
	<g>
		
			<ellipse transform="matrix(0.5516 -0.8341 0.8341 0.5516 -80.7413 1298.6033)" class="st17" cx="1167.4" cy="724.4" rx="8.5" ry="9.12"/>
		
			<ellipse transform="matrix(0.5516 -0.8341 0.8341 0.5516 -77.552 1306.4293)" class="st17" cx="1176.27" cy="725.34" rx="9.47" ry="10.31"/>
		
			<ellipse transform="matrix(0.5516 -0.8341 0.8341 0.5516 -74.2709 1314.8333)" class="st17" cx="1185.73" cy="726.49" rx="8.55" ry="9.31"/>
		
			<ellipse transform="matrix(0.5516 -0.8341 0.8341 0.5516 -69.1028 1323.4784)" class="st17" cx="1196.36" cy="726.01" rx="6.49" ry="7.06"/>
		
			<ellipse transform="matrix(0.5516 -0.8341 0.8341 0.5516 -68.871 1307.3822)" class="st17" cx="1181.5" cy="717.74" rx="9.15" ry="9.96"/>
		
			<ellipse transform="matrix(0.999 -0.0455 0.0455 0.999 -31.4102 54.9867)" class="st17" cx="1191.83" cy="717.27" rx="7.45" ry="6"/>
		
			<ellipse transform="matrix(0.999 -0.0455 0.0455 0.999 -31.3894 54.1152)" class="st17" cx="1172.7" cy="716.38" rx="7.45" ry="6"/>
	</g>
	<circle class="st18" cx="1187.15" cy="739.93" r="2.65"/>
	<g>
		<g>
			<path class="st19" d="M1188.92,747.23c-0.72-0.75-1.84-1.2-2.84-1.37c-2.58-0.45-5.15,0.18-7.53,1.18
				c-2.37,0.99-4.57,2.25-6.69,3.69c-1.08,0.73-1.66,2.23-0.9,3.42c0.69,1.08,2.26,1.68,3.42,0.9c1.7-1.15,3.47-2.23,5.34-3.1
				c0.17-0.08,0.34-0.15,0.51-0.23c0.26-0.13-0.18,0.07-0.19,0.08c0.08-0.04,0.16-0.07,0.24-0.1c0.35-0.14,0.71-0.27,1.06-0.39
				c0.57-0.19,1.14-0.35,1.73-0.48c0.12-0.02,0.24-0.05,0.36-0.07c0.47-0.08,0.12,0.01-0.16,0.01c0.22,0,0.44-0.05,0.66-0.06
				c0.39-0.02,0.77,0.02,1.16,0.02c0.34,0.01-0.69-0.13-0.38-0.05c0.07,0.02,0.13,0.02,0.2,0.04c0.14,0.03,0.28,0.06,0.42,0.1
				c0.1,0.03,0.2,0.07,0.3,0.1c0.32,0.09-0.7-0.37-0.27-0.11c0.02,0.01,0.4,0.23,0.39,0.24c-0.04,0.04-0.65-0.57-0.37-0.28
				c0.91,0.95,2.64,0.98,3.54,0C1189.85,749.75,1189.88,748.24,1188.92,747.23L1188.92,747.23z"/>
		</g>
	</g>
	<circle class="st18" cx="1172.7" cy="741.17" r="2.65"/>
	<g>
		<path class="st20" d="M1170.48,812.62l22.51-0.32c2.58-0.04,4.66-2.29,4.67-5.05l0.08-37.74c0.01-2.83-2.16-5.13-4.8-5.09
			l-22.51,0.32c-2.58,0.04-4.66,2.29-4.67,5.05l-0.08,37.74C1165.67,810.36,1167.83,812.66,1170.48,812.62z"/>
		<path class="st20" d="M1155.24,792.78l-1.12-0.67c-2.31-1.39-2.96-4.44-1.42-6.66l12.31-17.74c1.4-2.02,4.14-2.61,6.25-1.34
			l1.12,0.67c2.31,1.39,2.96,4.44,1.42,6.66l-12.31,17.74C1160.09,793.47,1157.35,794.05,1155.24,792.78z"/>
		<path class="st20" d="M1209.49,789.95l-1,0.85c-2.05,1.75-5.15,1.39-6.77-0.77l-12.9-17.31c-1.47-1.97-1.16-4.75,0.72-6.35l1-0.85
			c2.05-1.75,5.15-1.39,6.77,0.77l12.9,17.31C1211.68,785.57,1211.36,788.35,1209.49,789.95z"/>
	</g>
	<g>
		<polygon class="st21" points="1172.6,815.88 1165.54,787.84 1226.36,771.02 1233.42,799.06 		"/>
		<polygon class="st21" points="1195.47,816.72 1204.51,822.23 1232.87,799.01 1223.83,793.5 		"/>
		<polygon class="st21" points="1184.84,774.81 1190.13,765.31 1225.86,770.87 1220.57,780.36 		"/>
	</g>
	<g>
		<path class="st17" d="M1239.72,829.76h-121.91c-5.62,0-10.17-4.55-10.17-10.17v0c0-5.62,4.55-10.17,10.17-10.17h121.91
			c5.62,0,10.17,4.55,10.17,10.17v0C1249.89,825.21,1245.34,829.76,1239.72,829.76z"/>
		<rect x="1117.14" y="829.76" class="st17" width="5.89" height="44.36"/>
		<rect x="1221.64" y="829.76" class="st17" width="5.89" height="44.36"/>
		<rect x="1137.92" y="817.28" class="st17" width="5.89" height="44.36"/>
		<rect x="1238.51" y="817.28" class="st17" width="5.89" height="44.36"/>
	</g>
	<g>
		<path class="st22" d="M1125.56,799.51L1125.56,799.51c-2.18,0-3.95-1.77-3.95-3.95v-16.5c0-2.18,1.77-3.95,3.95-3.95l0,0
			c2.18,0,3.95,1.77,3.95,3.95v16.5C1129.51,797.75,1127.74,799.51,1125.56,799.51z"/>
		<rect x="1177.17" y="779.45" class="st22" width="0.35" height="10.44"/>
		<rect x="1175.94" y="769.52" class="st22" width="2.83" height="15.46"/>
		<rect x="1130.74" y="756.46" class="st22" width="0.57" height="10.95"/>
		<g>
			<rect x="1169.36" y="761.74" class="st23" width="5.3" height="1.54"/>
			<rect x="1171.06" y="760.48" class="st24" width="1.7" height="1.26"/>
			<rect x="1170.44" y="758.55" class="st22" width="2.95" height="1.93"/>
		</g>
		<g>
			<rect x="1139.59" y="761.93" class="st23" width="5.3" height="1.54"/>
			<rect x="1141.29" y="760.68" class="st24" width="1.7" height="1.26"/>
			<rect x="1140.67" y="758.74" class="st22" width="2.95" height="1.93"/>
		</g>
		<g>
			<g>
				<path class="st25" d="M1175.21,793.77h-29.18v-20.26c0-0.02,0-0.05,0-0.07h31.93c2.81,0,5.08-2.27,5.08-5.08
					c0-2.81-2.27-5.08-5.08-5.08h-38.61c-0.49,0-0.96,0.09-1.42,0.23c-0.69-0.15-1.4-0.23-2.13-0.23c-5.65,0-10.23,4.58-10.23,10.23
					v25.67c0,5.65,4.58,10.23,10.23,10.23c1.91,0,3.69-0.53,5.22-1.45c1.28,0.91,2.83,1.45,4.52,1.45h29.67
					c4.32,0,7.82-3.5,7.82-7.82C1183.03,797.27,1179.53,793.77,1175.21,793.77z"/>
			</g>
		</g>
		<path class="st26" d="M1138.12,781.05h-5.56c-2.1,0-3.8-1.7-3.8-3.8l0,0c0-2.1,1.7-3.8,3.8-3.8h5.56c2.1,0,3.8,1.7,3.8,3.8l0,0
			C1141.92,779.34,1140.22,781.05,1138.12,781.05z"/>
		<path class="st23" d="M1131.03,788.03L1131.03,788.03c-0.93,0-1.68-0.75-1.68-1.68l0,0c0-0.93,0.75-1.68,1.68-1.68l0,0
			c0.93,0,1.68,0.75,1.68,1.68l0,0C1132.71,787.28,1131.96,788.03,1131.03,788.03z"/>
		<path class="st23" d="M1135.8,788.03L1135.8,788.03c-0.93,0-1.68-0.75-1.68-1.68l0,0c0-0.93,0.75-1.68,1.68-1.68l0,0
			c0.93,0,1.68,0.75,1.68,1.68l0,0C1137.48,787.28,1136.72,788.03,1135.8,788.03z"/>
		<path class="st23" d="M1140.87,788.03L1140.87,788.03c-0.93,0-1.68-0.75-1.68-1.68l0,0c0-0.93,0.75-1.68,1.68-1.68l0,0
			c0.93,0,1.68,0.75,1.68,1.68l0,0C1142.55,787.28,1141.8,788.03,1140.87,788.03z"/>
		<path class="st23" d="M1130.87,793.77L1130.87,793.77c-0.93,0-1.68-0.75-1.68-1.68v0c0-0.93,0.75-1.68,1.68-1.68h0
			c0.93,0,1.68,0.75,1.68,1.68v0C1132.56,793.02,1131.8,793.77,1130.87,793.77z"/>
		<path class="st23" d="M1135.64,793.77L1135.64,793.77c-0.93,0-1.68-0.75-1.68-1.68v0c0-0.93,0.75-1.68,1.68-1.68l0,0
			c0.93,0,1.68,0.75,1.68,1.68v0C1137.32,793.02,1136.57,793.77,1135.64,793.77z"/>
		<path class="st23" d="M1140.72,793.77L1140.72,793.77c-0.93,0-1.68-0.75-1.68-1.68v0c0-0.93,0.75-1.68,1.68-1.68l0,0
			c0.93,0,1.68,0.75,1.68,1.68v0C1142.4,793.02,1141.65,793.77,1140.72,793.77z"/>
		<path class="st23" d="M1130.72,799.51L1130.72,799.51c-0.93,0-1.68-0.75-1.68-1.68l0,0c0-0.93,0.75-1.68,1.68-1.68l0,0
			c0.93,0,1.68,0.75,1.68,1.68l0,0C1132.4,798.76,1131.65,799.51,1130.72,799.51z"/>
		<path class="st23" d="M1135.49,799.51L1135.49,799.51c-0.93,0-1.68-0.75-1.68-1.68l0,0c0-0.93,0.75-1.68,1.68-1.68l0,0
			c0.93,0,1.68,0.75,1.68,1.68l0,0C1137.17,798.76,1136.41,799.51,1135.49,799.51z"/>
		<path class="st23" d="M1140.56,799.51L1140.56,799.51c-0.93,0-1.68-0.75-1.68-1.68l0,0c0-0.93,0.75-1.68,1.68-1.68l0,0
			c0.93,0,1.68,0.75,1.68,1.68l0,0C1142.24,798.76,1141.49,799.51,1140.56,799.51z"/>
		<circle class="st22" cx="1175.31" cy="768.81" r="1.96"/>
	</g>
</g>
<g>
	
		<rect x="1566.04" y="892.02" transform="matrix(-1 -4.488821e-11 4.488821e-11 -1 3146.1853 1793.6326)" class="st16" width="14.1" height="9.6"/>
	<ellipse class="st16" cx="1571.32" cy="869.77" rx="21.49" ry="24.9"/>
	<g>
		
			<ellipse transform="matrix(0.5516 -0.8341 0.8341 0.5516 -12.4922 1681.2251)" class="st17" cx="1557.38" cy="852.23" rx="9.47" ry="10.16"/>
		
			<ellipse transform="matrix(0.5516 -0.8341 0.8341 0.5516 -8.9391 1689.9438)" class="st17" cx="1567.27" cy="853.29" rx="10.55" ry="11.48"/>
		
			<ellipse transform="matrix(0.5516 -0.8341 0.8341 0.5516 -5.2837 1699.3064)" class="st17" cx="1577.81" cy="854.57" rx="9.52" ry="10.37"/>
		
			<ellipse transform="matrix(0.5516 -0.8341 0.8341 0.5516 0.474 1708.9377)" class="st17" cx="1589.64" cy="854.03" rx="7.23" ry="7.87"/>
		
			<ellipse transform="matrix(0.5516 -0.8341 0.8341 0.5516 0.7322 1691.0055)" class="st17" cx="1573.09" cy="844.82" rx="10.19" ry="11.09"/>
		
			<ellipse transform="matrix(0.999 -0.0455 0.0455 0.999 -36.7843 72.9943)" class="st17" cx="1584.6" cy="844.3" rx="8.3" ry="6.69"/>
		
			<ellipse transform="matrix(0.999 -0.0455 0.0455 0.999 -36.7612 72.0235)" class="st17" cx="1563.29" cy="843.3" rx="8.3" ry="6.69"/>
	</g>
	<circle class="st18" cx="1579.38" cy="869.54" r="2.96"/>
	<g>
		<g>
			<path class="st19" d="M1581.15,877.88c-0.77-0.8-1.97-1.27-3.03-1.45c-2.82-0.49-5.64,0.22-8.24,1.31
				c-2.61,1.1-5.04,2.5-7.39,4.08c-1.08,0.73-1.66,2.23-0.9,3.42c0.69,1.08,2.26,1.68,3.42,0.9c1.9-1.29,3.86-2.49,5.95-3.45
				c0.19-0.09,0.38-0.17,0.57-0.26c0.26-0.13-0.11,0.05-0.14,0.06c0.09-0.04,0.18-0.07,0.27-0.11c0.39-0.16,0.79-0.31,1.19-0.44
				c0.63-0.21,1.27-0.4,1.93-0.53c0.13-0.03,0.26-0.05,0.4-0.08c0.47-0.08,0.21,0.03-0.1,0c0.24,0.02,0.5-0.06,0.74-0.07
				c0.43-0.02,0.86,0.02,1.29,0.03c0.35,0.01-0.67-0.13-0.34-0.05c0.07,0.02,0.15,0.02,0.22,0.04c0.16,0.03,0.31,0.07,0.46,0.11
				c0.11,0.03,0.22,0.08,0.34,0.11c0.33,0.09-0.69-0.37-0.23-0.09c0.13,0.08,0.29,0.21,0.44,0.27c-0.11-0.04-0.63-0.55-0.36-0.26
				c0.91,0.95,2.64,0.98,3.54,0C1582.08,880.4,1582.12,878.89,1581.15,877.88L1581.15,877.88z"/>
		</g>
	</g>
	<circle class="st18" cx="1563.29" cy="870.92" r="2.96"/>
	<g>
		<path class="st27" d="M1560.81,950.52l25.08-0.35c2.88-0.04,5.19-2.55,5.2-5.63l0.09-42.05c0.01-3.16-2.4-5.71-5.35-5.67
			l-25.08,0.35c-2.88,0.04-5.19,2.55-5.2,5.63l-0.09,42.05C1555.46,948.01,1557.87,950.56,1560.81,950.52z"/>
		<path class="st27" d="M1543.84,928.42l-1.25-0.75c-2.57-1.55-3.3-4.95-1.59-7.42l13.71-19.76c1.56-2.25,4.61-2.91,6.96-1.49
			l1.25,0.75c2.57,1.55,3.3,4.95,1.59,7.42l-13.71,19.76C1549.24,929.18,1546.19,929.83,1543.84,928.42z"/>
		<path class="st27" d="M1604.27,925.26l-1.11,0.94c-2.29,1.94-5.74,1.55-7.54-0.85l-14.38-19.28c-1.64-2.2-1.29-5.29,0.8-7.07
			l1.11-0.94c2.29-1.94,5.74-1.55,7.54,0.85l14.38,19.28C1606.71,920.39,1606.36,923.48,1604.27,925.26z"/>
	</g>
	<g>
		<polygon class="st28" points="1563.18,954.15 1555.31,922.91 1623.07,904.18 1630.94,935.41 		"/>
		<polygon class="st28" points="1588.66,955.09 1598.73,961.23 1630.32,935.36 1620.25,929.22 		"/>
		<polygon class="st28" points="1576.82,908.39 1582.7,897.82 1622.51,904.01 1616.62,914.58 		"/>
	</g>
	<g>
		<path class="st17" d="M1637.95,969.62h-135.81c-6.26,0-11.33-5.07-11.33-11.33v0c0-6.26,5.07-11.33,11.33-11.33h135.81
			c6.26,0,11.33,5.07,11.33,11.33v0C1649.28,964.54,1644.21,969.62,1637.95,969.62z"/>
		<rect x="1501.39" y="969.62" class="st17" width="6.56" height="49.42"/>
		<rect x="1617.81" y="969.62" class="st17" width="6.56" height="49.42"/>
		<rect x="1524.54" y="955.71" class="st17" width="6.56" height="49.42"/>
		<rect x="1636.61" y="955.71" class="st17" width="6.56" height="49.42"/>
	</g>
	<g>
		<path class="st22" d="M1510.77,935.92L1510.77,935.92c-2.43,0-4.4-1.97-4.4-4.4v-18.38c0-2.43,1.97-4.4,4.4-4.4l0,0
			c2.43,0,4.4,1.97,4.4,4.4v18.38C1515.17,933.95,1513.2,935.92,1510.77,935.92z"/>
		<rect x="1568.27" y="913.57" class="st22" width="0.39" height="11.63"/>
		<rect x="1566.89" y="902.5" class="st22" width="3.15" height="17.22"/>
		<rect x="1516.54" y="887.95" class="st22" width="0.64" height="12.2"/>
		<g>
			<rect x="1559.56" y="893.83" class="st23" width="5.91" height="1.72"/>
			<rect x="1561.46" y="892.43" class="st24" width="1.9" height="1.4"/>
			<rect x="1560.77" y="890.28" class="st22" width="3.28" height="2.15"/>
		</g>
		<g>
			<rect x="1526.4" y="894.05" class="st23" width="5.91" height="1.72"/>
			<rect x="1528.3" y="892.65" class="st24" width="1.9" height="1.4"/>
			<rect x="1527.61" y="890.5" class="st22" width="3.28" height="2.15"/>
		</g>
		<g>
			<g>
				<path class="st25" d="M1566.08,929.52h-32.51v-22.57c0-0.03,0-0.05,0-0.08h35.57c3.13,0,5.66-2.53,5.66-5.66
					s-2.53-5.66-5.66-5.66h-43.01c-0.56,0-1.11,0.09-1.62,0.24c-0.75-0.16-1.53-0.24-2.33-0.24l0,0c-6.3,0-11.4,5.1-11.4,11.4v28.6
					c0,6.3,5.1,11.4,11.4,11.4l0,0c2.13,0,4.11-0.59,5.82-1.61c1.42,1.01,3.16,1.61,5.04,1.61h33.05c4.81,0,8.71-3.9,8.71-8.71
					C1574.8,933.42,1570.89,929.52,1566.08,929.52z"/>
			</g>
		</g>
		<path class="st26" d="M1524.76,915.34h-6.19c-2.34,0-4.24-1.9-4.24-4.24l0,0c0-2.34,1.9-4.24,4.24-4.24h6.19
			c2.34,0,4.24,1.9,4.24,4.24l0,0C1529,913.45,1527.1,915.34,1524.76,915.34z"/>
		<path class="st23" d="M1516.86,923.12L1516.86,923.12c-1.03,0-1.87-0.84-1.87-1.87l0,0c0-1.03,0.84-1.87,1.87-1.87l0,0
			c1.03,0,1.87,0.84,1.87,1.87l0,0C1518.74,922.29,1517.9,923.12,1516.86,923.12z"/>
		<path class="st23" d="M1522.17,923.12L1522.17,923.12c-1.03,0-1.87-0.84-1.87-1.87l0,0c0-1.03,0.84-1.87,1.87-1.87l0,0
			c1.03,0,1.87,0.84,1.87,1.87l0,0C1524.05,922.29,1523.21,923.12,1522.17,923.12z"/>
		<path class="st23" d="M1527.83,923.12L1527.83,923.12c-1.03,0-1.87-0.84-1.87-1.87l0,0c0-1.03,0.84-1.87,1.87-1.87h0
			c1.03,0,1.87,0.84,1.87,1.87l0,0C1529.7,922.29,1528.86,923.12,1527.83,923.12z"/>
		<path class="st23" d="M1516.69,929.52L1516.69,929.52c-1.03,0-1.87-0.84-1.87-1.87l0,0c0-1.03,0.84-1.87,1.87-1.87l0,0
			c1.03,0,1.87,0.84,1.87,1.87l0,0C1518.56,928.68,1517.73,929.52,1516.69,929.52z"/>
		<path class="st23" d="M1522,929.52L1522,929.52c-1.03,0-1.87-0.84-1.87-1.87l0,0c0-1.03,0.84-1.87,1.87-1.87l0,0
			c1.03,0,1.87,0.84,1.87,1.87l0,0C1523.87,928.68,1523.04,929.52,1522,929.52z"/>
		<path class="st23" d="M1527.66,929.52L1527.66,929.52c-1.03,0-1.87-0.84-1.87-1.87l0,0c0-1.03,0.84-1.87,1.87-1.87l0,0
			c1.03,0,1.87,0.84,1.87,1.87l0,0C1529.53,928.68,1528.69,929.52,1527.66,929.52z"/>
		<path class="st23" d="M1516.52,935.92L1516.52,935.92c-1.03,0-1.87-0.84-1.87-1.87l0,0c0-1.03,0.84-1.87,1.87-1.87l0,0
			c1.03,0,1.87,0.84,1.87,1.87l0,0C1518.39,935.08,1517.55,935.92,1516.52,935.92z"/>
		<path class="st23" d="M1521.83,935.92L1521.83,935.92c-1.03,0-1.87-0.84-1.87-1.87l0,0c0-1.03,0.84-1.87,1.87-1.87l0,0
			c1.03,0,1.87,0.84,1.87,1.87l0,0C1523.7,935.08,1522.86,935.92,1521.83,935.92z"/>
		<path class="st23" d="M1527.48,935.92L1527.48,935.92c-1.03,0-1.87-0.84-1.87-1.87l0,0c0-1.03,0.84-1.87,1.87-1.87l0,0
			c1.03,0,1.87,0.84,1.87,1.87l0,0C1529.36,935.08,1528.52,935.92,1527.48,935.92z"/>
		<circle class="st22" cx="1566.19" cy="901.71" r="2.19"/>
	</g>
</g>
<g>
	
		<rect x="1427.37" y="733.11" transform="matrix(-1 -4.496460e-11 4.496460e-11 -1 2870.4343 1476.9056)" class="st16" width="15.7" height="10.68"/>
	<ellipse class="st16" cx="1433.24" cy="708.35" rx="23.92" ry="27.72"/>
	<g>
		
			<ellipse transform="matrix(0.5516 -0.8341 0.8341 0.5516 61.1838 1491.4626)" class="st17" cx="1417.73" cy="688.83" rx="10.54" ry="11.3"/>
		
			<ellipse transform="matrix(0.5516 -0.8341 0.8341 0.5516 65.1386 1501.167)" class="st17" cx="1428.74" cy="690" rx="11.74" ry="12.78"/>
		
			<ellipse transform="matrix(0.5516 -0.8341 0.8341 0.5516 69.2073 1511.588)" class="st17" cx="1440.46" cy="691.43" rx="10.6" ry="11.54"/>
		
			<ellipse transform="matrix(0.5516 -0.8341 0.8341 0.5516 75.6159 1522.3082)" class="st17" cx="1453.64" cy="690.83" rx="8.04" ry="8.76"/>
		
			<ellipse transform="matrix(0.5516 -0.8341 0.8341 0.5516 75.9033 1502.3486)" class="st17" cx="1435.22" cy="680.58" rx="11.34" ry="12.35"/>
		
			<ellipse transform="matrix(0.999 -0.0455 0.0455 0.999 -29.4481 66.6082)" class="st17" cx="1448.02" cy="680" rx="9.24" ry="7.44"/>
		
			<ellipse transform="matrix(0.999 -0.0455 0.0455 0.999 -29.4223 65.5276)" class="st17" cx="1424.3" cy="678.89" rx="9.24" ry="7.44"/>
	</g>
	<circle class="st18" cx="1442.22" cy="708.09" r="3.29"/>
	<g>
		<g>
			<path class="st19" d="M1443.99,717.57c-0.82-0.86-2.11-1.35-3.25-1.54c-3.08-0.53-6.18,0.27-9.02,1.46
				c-2.88,1.21-5.57,2.77-8.16,4.52c-1.12,0.76-1.61,2.2-0.9,3.42c0.65,1.11,2.3,1.66,3.42,0.9c2.11-1.43,4.3-2.77,6.62-3.85
				c0.21-0.1,0.42-0.19,0.63-0.29c0.27-0.12-0.05,0.02-0.09,0.03c0.1-0.04,0.2-0.08,0.3-0.12c0.44-0.17,0.88-0.34,1.32-0.49
				c0.7-0.24,1.42-0.44,2.15-0.59c0.15-0.03,0.29-0.06,0.44-0.08c0.67-0.12-0.03,0.03-0.04-0.01c0,0.01,0.75-0.07,0.82-0.08
				c0.48-0.03,0.95,0.02,1.44,0.03c0.37,0.01-0.66-0.13-0.31-0.04c0.08,0.02,0.17,0.03,0.25,0.04c0.17,0.04,0.35,0.08,0.52,0.13
				c0.13,0.04,0.25,0.09,0.37,0.12c0.35,0.1-0.68-0.36-0.19-0.08c0.14,0.09,0.33,0.24,0.49,0.3c-0.14-0.05-0.62-0.54-0.34-0.25
				c0.93,0.97,2.59,0.94,3.54,0C1444.96,720.13,1444.92,718.55,1443.99,717.57L1443.99,717.57z"/>
		</g>
	</g>
	<circle class="st18" cx="1424.3" cy="709.63" r="3.29"/>
	<g>
		<path class="st29" d="M1421.55,798.23l27.91-0.39c3.2-0.04,5.78-2.83,5.79-6.27l0.1-46.8c0.01-3.51-2.67-6.36-5.95-6.31
			l-27.91,0.39c-3.2,0.04-5.78,2.83-5.79,6.27l-0.1,46.8C1415.59,795.43,1418.27,798.27,1421.55,798.23z"/>
		<path class="st29" d="M1402.66,773.63l-1.39-0.84c-2.86-1.73-3.67-5.51-1.77-8.26l15.26-21.99c1.74-2.51,5.13-3.23,7.75-1.66
			l1.39,0.84c2.86,1.73,3.67,5.51,1.77,8.26l-15.26,21.99C1408.66,774.48,1405.27,775.2,1402.66,773.63z"/>
		<path class="st29" d="M1469.92,770.11l-1.23,1.05c-2.55,2.16-6.39,1.73-8.39-0.95l-16-21.46c-1.83-2.45-1.44-5.89,0.89-7.87
			l1.23-1.05c2.55-2.16,6.39-1.73,8.39,0.95l16,21.46C1472.64,764.69,1472.25,768.13,1469.92,770.11z"/>
	</g>
	<g>
		<polygon class="st30" points="1424.18,802.27 1415.42,767.5 1490.84,746.65 1499.6,781.41 		"/>
		<polygon class="st30" points="1452.54,803.32 1463.75,810.14 1498.92,781.35 1487.71,774.52 		"/>
		<polygon class="st30" points="1439.36,751.34 1445.91,739.57 1490.22,746.46 1483.66,758.23 		"/>
	</g>
	<g>
		<path class="st17" d="M1507.41,819.48h-151.17c-6.97,0-12.61-5.65-12.61-12.61l0,0c0-6.97,5.65-12.61,12.61-12.61h151.17
			c6.97,0,12.61,5.65,12.61,12.61l0,0C1520.02,813.84,1514.37,819.48,1507.41,819.48z"/>
		<rect x="1355.41" y="819.48" class="st17" width="7.3" height="55.01"/>
		<rect x="1484.99" y="819.48" class="st17" width="7.3" height="55.01"/>
		<rect x="1381.17" y="804.01" class="st17" width="7.3" height="55.01"/>
		<rect x="1505.91" y="804.01" class="st17" width="7.3" height="55.01"/>
	</g>
	<g>
		<path class="st22" d="M1365.85,781.98L1365.85,781.98c-2.7,0-4.89-2.19-4.89-4.89v-20.46c0-2.7,2.19-4.89,4.89-4.89l0,0
			c2.7,0,4.89,2.19,4.89,4.89v20.46C1370.75,779.79,1368.56,781.98,1365.85,781.98z"/>
		<rect x="1429.85" y="757.1" class="st22" width="0.44" height="12.94"/>
		<rect x="1428.32" y="744.78" class="st22" width="3.51" height="19.17"/>
		<rect x="1372.28" y="728.58" class="st22" width="0.71" height="13.57"/>
		<g>
			<rect x="1420.16" y="735.13" class="st23" width="6.58" height="1.92"/>
			<rect x="1422.27" y="733.58" class="st24" width="2.11" height="1.56"/>
			<rect x="1421.5" y="731.18" class="st22" width="3.65" height="2.39"/>
		</g>
		<g>
			<rect x="1383.25" y="735.37" class="st23" width="6.58" height="1.92"/>
			<rect x="1385.36" y="733.81" class="st24" width="2.11" height="1.56"/>
			<rect x="1384.59" y="731.42" class="st22" width="3.65" height="2.39"/>
		</g>
		<g>
			<g>
				<path class="st25" d="M1437.11,743.35L1437.11,743.35c0-3.48-2.82-6.3-6.3-6.3h-47.88c-0.63,0-1.23,0.09-1.81,0.27
					c-0.84-0.17-1.7-0.27-2.59-0.27l0,0c-7.01,0-12.69,5.68-12.69,12.69v31.83c0,7.01,5.68,12.69,12.69,12.69l0,0
					c2.37,0,4.58-0.66,6.48-1.79c1.58,1.12,3.51,1.79,5.6,1.79h36.79c5.36,0,9.7-4.34,9.7-9.7v0c0-5.36-4.34-9.7-9.7-9.7h-36.18
					v-25.12c0-0.03,0-0.06,0-0.09h39.59C1434.29,749.65,1437.11,746.83,1437.11,743.35z"/>
			</g>
		</g>
		<path class="st26" d="M1381.42,759.08h-6.89c-2.6,0-4.72-2.11-4.72-4.72l0,0c0-2.6,2.11-4.72,4.72-4.72h6.89
			c2.6,0,4.72,2.11,4.72,4.72l0,0C1386.14,756.96,1384.03,759.08,1381.42,759.08z"/>
		<path class="st23" d="M1372.63,767.74L1372.63,767.74c-1.15,0-2.08-0.93-2.08-2.08l0,0c0-1.15,0.93-2.08,2.08-2.08l0,0
			c1.15,0,2.08,0.93,2.08,2.08l0,0C1374.72,766.8,1373.78,767.74,1372.63,767.74z"/>
		<path class="st23" d="M1378.54,767.74L1378.54,767.74c-1.15,0-2.08-0.93-2.08-2.08l0,0c0-1.15,0.93-2.08,2.08-2.08l0,0
			c1.15,0,2.08,0.93,2.08,2.08l0,0C1380.63,766.8,1379.69,767.74,1378.54,767.74z"/>
		<path class="st23" d="M1384.84,767.74L1384.84,767.74c-1.15,0-2.08-0.93-2.08-2.08l0,0c0-1.15,0.93-2.08,2.08-2.08l0,0
			c1.15,0,2.08,0.93,2.08,2.08l0,0C1386.92,766.8,1385.99,767.74,1384.84,767.74z"/>
		<path class="st23" d="M1372.44,774.86L1372.44,774.86c-1.15,0-2.08-0.93-2.08-2.08v0c0-1.15,0.93-2.08,2.08-2.08l0,0
			c1.15,0,2.08,0.93,2.08,2.08v0C1374.52,773.92,1373.59,774.86,1372.44,774.86z"/>
		<path class="st23" d="M1378.35,774.86L1378.35,774.86c-1.15,0-2.08-0.93-2.08-2.08v0c0-1.15,0.93-2.08,2.08-2.08l0,0
			c1.15,0,2.08,0.93,2.08,2.08v0C1380.43,773.92,1379.5,774.86,1378.35,774.86z"/>
		<path class="st23" d="M1384.64,774.86L1384.64,774.86c-1.15,0-2.08-0.93-2.08-2.08v0c0-1.15,0.93-2.08,2.08-2.08l0,0
			c1.15,0,2.08,0.93,2.08,2.08v0C1386.73,773.92,1385.8,774.86,1384.64,774.86z"/>
		<path class="st23" d="M1372.25,781.98L1372.25,781.98c-1.15,0-2.08-0.93-2.08-2.08l0,0c0-1.15,0.93-2.08,2.08-2.08l0,0
			c1.15,0,2.08,0.93,2.08,2.08l0,0C1374.33,781.04,1373.4,781.98,1372.25,781.98z"/>
		<path class="st23" d="M1378.16,781.98L1378.16,781.98c-1.15,0-2.08-0.93-2.08-2.08l0,0c0-1.15,0.93-2.08,2.08-2.08l0,0
			c1.15,0,2.08,0.93,2.08,2.08l0,0C1380.24,781.04,1379.31,781.98,1378.16,781.98z"/>
		<path class="st23" d="M1384.45,781.98L1384.45,781.98c-1.15,0-2.08-0.93-2.08-2.08l0,0c0-1.15,0.93-2.08,2.08-2.08l0,0
			c1.15,0,2.08,0.93,2.08,2.08l0,0C1386.54,781.04,1385.6,781.98,1384.45,781.98z"/>
		<circle class="st22" cx="1427.54" cy="743.9" r="2.43"/>
	</g>
</g>
<g>
	
		<rect x="1308.17" y="683.06" transform="matrix(-1 -4.484780e-11 4.484780e-11 -1 2625.1875 1372.1395)" class="st16" width="8.84" height="6.02"/>
	<ellipse class="st16" cx="1311.48" cy="669.11" rx="13.48" ry="15.61"/>
	<g>
		
			<ellipse transform="matrix(0.5516 -0.8341 0.8341 0.5516 35.2377 1381.775)" class="st17" cx="1302.74" cy="658.11" rx="5.94" ry="6.37"/>
		
			<ellipse transform="matrix(0.5516 -0.8341 0.8341 0.5516 37.4655 1387.2418)" class="st17" cx="1308.94" cy="658.78" rx="6.61" ry="7.2"/>
		
			<ellipse transform="matrix(0.5516 -0.8341 0.8341 0.5516 39.7575 1393.1122)" class="st17" cx="1315.55" cy="659.58" rx="5.97" ry="6.5"/>
		
			<ellipse transform="matrix(0.5516 -0.8341 0.8341 0.5516 43.3676 1399.1511)" class="st17" cx="1322.97" cy="659.24" rx="4.53" ry="4.93"/>
		
			<ellipse transform="matrix(0.5516 -0.8341 0.8341 0.5516 43.5295 1387.9075)" class="st17" cx="1312.59" cy="653.47" rx="6.39" ry="6.95"/>
		
			<ellipse transform="matrix(0.999 -0.0455 0.0455 0.999 -28.3586 60.7449)" class="st17" cx="1319.81" cy="653.14" rx="5.21" ry="4.19"/>
		
			<ellipse transform="matrix(0.999 -0.0455 0.0455 0.999 -28.3441 60.1362)" class="st17" cx="1306.45" cy="652.52" rx="5.21" ry="4.19"/>
	</g>
	<circle class="st18" cx="1316.54" cy="668.97" r="1.85"/>
	<g>
		<g>
			<path class="st19" d="M1318.31,673.54c-0.59-0.61-1.49-1.01-2.31-1.15c-1.94-0.34-3.86,0.07-5.66,0.82
				c-1.72,0.72-3.31,1.61-4.86,2.65c-1.08,0.73-1.66,2.23-0.9,3.42c0.69,1.08,2.26,1.68,3.42,0.9c1.19-0.81,2.42-1.56,3.73-2.17
				c0.12-0.05,0.24-0.1,0.36-0.16c0.16-0.08-0.58,0.23-0.14,0.06c0.25-0.1,0.49-0.19,0.74-0.28c0.4-0.13,0.8-0.25,1.21-0.33
				c0.08-0.02,0.17-0.03,0.25-0.05c0.46-0.08-0.19,0.05-0.31,0.04c0.14,0.01,0.32-0.03,0.46-0.04c0.27-0.01,0.54,0.01,0.81,0.02
				c0.3,0.01-0.74-0.13-0.46-0.06c0.05,0.01,0.09,0.01,0.14,0.02c0.1,0.02,0.19,0.04,0.29,0.07c0.07,0.02,0.14,0.05,0.21,0.07
				c0.27,0.08-0.73-0.37-0.37-0.15c0.08,0.05,0.19,0.14,0.27,0.17c-0.01,0-0.65-0.56-0.41-0.31c0.91,0.95,2.64,0.98,3.54,0
				C1319.24,676.06,1319.27,674.54,1318.31,673.54L1318.31,673.54z"/>
		</g>
	</g>
	<circle class="st18" cx="1306.45" cy="669.83" r="1.85"/>
	<g>
		<path class="st27" d="M1304.89,719.74l15.72-0.22c1.8-0.03,3.26-1.6,3.26-3.53l0.06-26.37c0-1.98-1.51-3.58-3.35-3.55l-15.72,0.22
			c-1.8,0.03-3.26,1.6-3.26,3.53l-0.06,26.37C1301.54,718.17,1303.05,719.77,1304.89,719.74z"/>
		<path class="st27" d="M1294.25,705.88l-0.78-0.47c-1.61-0.97-2.07-3.1-0.99-4.65l8.6-12.39c0.98-1.41,2.89-1.82,4.36-0.93
			l0.78,0.47c1.61,0.97,2.07,3.1,0.99,4.65l-8.6,12.39C1297.64,706.36,1295.73,706.77,1294.25,705.88z"/>
		<path class="st27" d="M1332.14,703.9l-0.7,0.59c-1.43,1.22-3.6,0.97-4.73-0.54l-9.01-12.09c-1.03-1.38-0.81-3.32,0.5-4.43
			l0.7-0.59c1.43-1.22,3.6-0.97,4.73,0.54l9.01,12.09C1333.67,700.85,1333.45,702.79,1332.14,703.9z"/>
	</g>
	<g>
		<polygon class="st28" points="1306.38,722.02 1301.44,702.43 1343.93,690.69 1348.86,710.27 		"/>
		<polygon class="st28" points="1322.35,722.61 1328.67,726.46 1348.48,710.23 1342.16,706.39 		"/>
		<polygon class="st28" points="1314.93,693.33 1318.62,686.7 1343.58,690.58 1339.88,697.21 		"/>
	</g>
	<g>
		<path class="st17" d="M1353.26,731.72h-85.16c-3.92,0-7.11-3.18-7.11-7.11l0,0c0-3.92,3.18-7.11,7.11-7.11h85.16
			c3.92,0,7.11,3.18,7.11,7.11l0,0C1360.37,728.53,1357.18,731.72,1353.26,731.72z"/>
		<rect x="1267.63" y="731.72" class="st17" width="4.11" height="30.99"/>
		<rect x="1340.63" y="731.72" class="st17" width="4.11" height="30.99"/>
		<rect x="1282.15" y="723" class="st17" width="4.11" height="30.99"/>
		<rect x="1352.42" y="723" class="st17" width="4.11" height="30.99"/>
	</g>
	<g>
		<path class="st22" d="M1273.52,710.59L1273.52,710.59c-1.52,0-2.76-1.23-2.76-2.76v-11.52c0-1.52,1.23-2.76,2.76-2.76l0,0
			c1.52,0,2.76,1.23,2.76,2.76v11.52C1276.28,709.35,1275.04,710.59,1273.52,710.59z"/>
		<rect x="1309.57" y="696.57" class="st22" width="0.25" height="7.29"/>
		<rect x="1308.71" y="689.63" class="st22" width="1.98" height="10.8"/>
		<rect x="1277.14" y="680.51" class="st22" width="0.4" height="7.65"/>
		<g>
			<rect x="1304.11" y="684.2" class="st23" width="3.71" height="1.08"/>
			<rect x="1305.3" y="683.32" class="st24" width="1.19" height="0.88"/>
			<rect x="1304.87" y="681.97" class="st22" width="2.06" height="1.35"/>
		</g>
		<g>
			<rect x="1283.32" y="684.33" class="st23" width="3.71" height="1.08"/>
			<rect x="1284.51" y="683.46" class="st24" width="1.19" height="0.88"/>
			<rect x="1284.07" y="682.11" class="st22" width="2.06" height="1.35"/>
		</g>
		<g>
			<g>
				<path class="st25" d="M1308.2,706.58h-20.38v-14.15c0-0.02,0-0.03,0-0.05h22.3c1.96,0,3.55-1.59,3.55-3.55
					c0-1.96-1.59-3.55-3.55-3.55h-26.97c-0.35,0-0.67,0.06-0.99,0.16c-0.48-0.1-0.98-0.16-1.49-0.16l0,0c-3.95,0-7.15,3.2-7.15,7.15
					v17.93c0,3.95,3.2,7.15,7.15,7.15l0,0c1.33,0,2.58-0.37,3.65-1.01c0.89,0.63,1.98,1.01,3.16,1.01h20.72
					c3.02,0,5.46-2.45,5.46-5.46C1313.66,709.02,1311.22,706.58,1308.2,706.58z"/>
			</g>
		</g>
		<path class="st26" d="M1282.29,697.69h-3.88c-1.47,0-2.66-1.19-2.66-2.66l0,0c0-1.47,1.19-2.66,2.66-2.66h3.88
			c1.47,0,2.66,1.19,2.66,2.66l0,0C1284.95,696.5,1283.76,697.69,1282.29,697.69z"/>
		<path class="st23" d="M1277.34,702.57L1277.34,702.57c-0.65,0-1.17-0.53-1.17-1.17l0,0c0-0.65,0.53-1.17,1.17-1.17l0,0
			c0.65,0,1.17,0.53,1.17,1.17l0,0C1278.51,702.04,1277.99,702.57,1277.34,702.57z"/>
		<path class="st23" d="M1280.67,702.57L1280.67,702.57c-0.65,0-1.17-0.53-1.17-1.17l0,0c0-0.65,0.53-1.17,1.17-1.17l0,0
			c0.65,0,1.17,0.53,1.17,1.17l0,0C1281.84,702.04,1281.32,702.57,1280.67,702.57z"/>
		<path class="st23" d="M1284.21,702.57L1284.21,702.57c-0.65,0-1.17-0.53-1.17-1.17l0,0c0-0.65,0.53-1.17,1.17-1.17l0,0
			c0.65,0,1.17,0.53,1.17,1.17l0,0C1285.39,702.04,1284.86,702.57,1284.21,702.57z"/>
		<path class="st23" d="M1277.23,706.58L1277.23,706.58c-0.65,0-1.17-0.53-1.17-1.17l0,0c0-0.65,0.53-1.17,1.17-1.17l0,0
			c0.65,0,1.17,0.53,1.17,1.17l0,0C1278.4,706.05,1277.88,706.58,1277.23,706.58z"/>
		<path class="st23" d="M1280.56,706.58L1280.56,706.58c-0.65,0-1.17-0.53-1.17-1.17l0,0c0-0.65,0.53-1.17,1.17-1.17l0,0
			c0.65,0,1.17,0.53,1.17,1.17l0,0C1281.73,706.05,1281.21,706.58,1280.56,706.58z"/>
		<path class="st23" d="M1284.1,706.58L1284.1,706.58c-0.65,0-1.17-0.53-1.17-1.17l0,0c0-0.65,0.53-1.17,1.17-1.17l0,0
			c0.65,0,1.17,0.53,1.17,1.17l0,0C1285.28,706.05,1284.75,706.58,1284.1,706.58z"/>
		<path class="st23" d="M1277.12,710.59L1277.12,710.59c-0.65,0-1.17-0.53-1.17-1.17l0,0c0-0.65,0.53-1.17,1.17-1.17l0,0
			c0.65,0,1.17,0.53,1.17,1.17l0,0C1278.3,710.06,1277.77,710.59,1277.12,710.59z"/>
		<path class="st23" d="M1280.45,710.59L1280.45,710.59c-0.65,0-1.17-0.53-1.17-1.17l0,0c0-0.65,0.53-1.17,1.17-1.17l0,0
			c0.65,0,1.17,0.53,1.17,1.17l0,0C1281.63,710.06,1281.1,710.59,1280.45,710.59z"/>
		<path class="st23" d="M1284,710.59L1284,710.59c-0.65,0-1.17-0.53-1.17-1.17l0,0c0-0.65,0.53-1.17,1.17-1.17l0,0
			c0.65,0,1.17,0.53,1.17,1.17l0,0C1285.17,710.06,1284.65,710.59,1284,710.59z"/>
		<circle class="st22" cx="1308.27" cy="689.14" r="1.37"/>
	</g>
</g>
<rect x="1384.65" y="418.11" class="st2" width="323.39" height="106.68"/>
<rect x="1378.39" y="255.89" class="st2" width="323.39" height="106.68"/>
</svg>
