<?xml version="1.0" encoding="utf-8"?>
<!-- Generator: Adobe Illustrator 28.3.0, SVG Export Plug-In . SVG Version: 6.00 Build 0)  -->
<svg version="1.1" id="Layer_1" xmlns="http://www.w3.org/2000/svg" xmlns:xlink="http://www.w3.org/1999/xlink" x="0px" y="0px"
	 viewBox="0 0 2000 1200" style="enable-background:new 0 0 2000 1200;" xml:space="preserve">
<style type="text/css">
	.st0{fill:url(#SVGID_1_);}
	.st1{fill:#B09C9A;stroke:#000000;stroke-width:0.25;stroke-miterlimit:10;}
	.st2{fill:#B09C9A;}
	.st3{opacity:0.7;fill:#DF724A;stroke:#000000;stroke-miterlimit:10;}
	.st4{opacity:0.73;fill:#E7AF5F;stroke:#000000;stroke-miterlimit:10;}
	.st5{fill:url(#SVGID_00000020370422182988473210000009136767976446597791_);stroke:#000000;stroke-miterlimit:10;}
	.st6{fill:#585759;stroke:#000000;stroke-miterlimit:10;}
	.st7{fill:#B09C9A;stroke:#000000;stroke-miterlimit:10;}
	.st8{fill:#534E56;stroke:#000000;stroke-miterlimit:10;}
	.st9{fill:#B19782;stroke:#000000;stroke-miterlimit:10;}
	.st10{fill:#534F57;stroke:#000000;stroke-miterlimit:10;}
	.st11{fill:#534F57;}
	.st12{fill:#ED7872;}
	.st13{fill:#805656;}
	.st14{fill:#466F7F;}
	.st15{fill:#759DAA;}
	.st16{fill:#CD5A9B;}
	.st17{fill:#724442;}
	.st18{fill:#1D363D;}
	.st19{fill:#577F60;}
	.st20{fill:#197665;}
	.st21{fill:#AF722A;}
	.st22{fill:#4A4747;}
	.st23{fill:#276743;}
	.st24{fill:#E9E672;}
	.st25{fill:#C97654;}
	.st26{opacity:0.78;}
	.st27{fill:#5953A3;}
	.st28{fill:#B72D2C;}
	.st29{fill:#9D9796;}
	.st30{fill:#694159;}
	.st31{opacity:0.91;}
	.st32{opacity:0.93;}
	.st33{opacity:0.94;}
	.st34{opacity:0.9;}
</style>
<linearGradient id="SVGID_1_" gradientUnits="userSpaceOnUse" x1="1006" y1="883.4122" x2="1006" y2="-2.3799" gradientTransform="matrix(-1 0 0 -1 2006 841.7922)">
	<stop  offset="0.1454" style="stop-color:#5177A7"/>
	<stop  offset="1" style="stop-color:#FFFFFF"/>
</linearGradient>
<polygon class="st0" points="-20,-41.62 2020,-41.62 2020,844.17 -20,844.17 "/>
<g>
	<path class="st1" d="M712.59,581.01L712.59,581.01c-5.28,0-9.57-4.28-9.57-9.57V389.66c0-5.28,4.28-9.57,9.57-9.57l0,0
		c5.28,0,9.57,4.28,9.57,9.57v181.78C722.15,576.73,717.87,581.01,712.59,581.01z"/>
	<g>
		<g>
			<path class="st2" d="M649.52,422.2c-2,20.14,6.38,44.11,27.53,50.09c10.9,3.08,22.68,1.13,33.31-2.07
				c9.22-2.77,5.29-17.26-3.99-14.46c-5.66,1.7-11.37,3.05-17.31,3.07c-1.96,0.01-4.13-0.14-5.53-0.41c-1.11-0.21-2.2-0.5-3.28-0.83
				c-0.21-0.06-2.26-0.8-1.19-0.36c-3.92-1.63-5.21-2.83-7.68-5.63c-1.04-1.18,0.48,0.76-0.52-0.63c-0.53-0.73-1.01-1.49-1.47-2.27
				c-0.34-0.58-0.67-1.17-0.97-1.76c-0.13-0.26-1.27-2.77-0.63-1.23c-1.15-2.77-1.95-5.68-2.53-8.62c-0.16-0.79-0.28-1.59-0.42-2.38
				c-0.27-1.61,0.13,1.44-0.07-0.58c-0.13-1.31-0.25-2.63-0.32-3.94c-0.14-2.65-0.18-5.35,0.09-7.99c0.4-4.04-3.73-7.5-7.5-7.5
				C652.63,414.7,649.92,418.15,649.52,422.2L649.52,422.2z"/>
		</g>
	</g>
	<g>
		<g>
			<path class="st2" d="M750.46,448.3c0.1,0.7,0.15,1.82-0.16-1.23c0.06,0.62,0.16,1.24,0.23,1.86c0.24,2.16,0.46,4.32,0.63,6.49
				c0.52,6.56,0.72,13.16,0.46,19.73c-0.07,1.78-0.17,3.55-0.32,5.32c-0.18,2.2-0.39,3.96-0.52,4.74c-0.55,3.51-1.28,7-2.4,10.38
				c-0.27,0.82-0.56,1.64-0.88,2.45c0.61-1.53-0.36,0.79-0.52,1.09c-0.75,1.43-1.52,2.81-2.47,4.12c0.88-1.21-1.58,1.62-2.3,2.23
				c1.65-1.39-3.49,1.66-1.49,0.9c-0.82,0.31-1.66,0.53-2.51,0.74c-0.25,0.06-1.52,0.25-0.5,0.12c1.1-0.15-0.85,0.03-0.89,0.03
				c-2.9-0.08-2.74,0.04-5.1-0.52c-5.58-1.32-10.49-4.04-15.36-7.08c-8.22-5.12-15.76,7.85-7.57,12.95
				c9.5,5.91,20.75,11.16,32.22,9.17c8.15-1.41,14.67-7.11,18.5-14.28c7.76-14.53,7.88-32.85,6.88-48.91
				c-0.3-4.79-0.77-9.57-1.47-14.32c-0.59-4-5.67-6.24-9.23-5.24C751.4,440.28,749.86,444.26,750.46,448.3L750.46,448.3z"/>
		</g>
	</g>
</g>
<g>
	<circle class="st3" cx="1665.33" cy="225.48" r="146.21"/>
	<circle class="st4" cx="1665.33" cy="225.48" r="127.21"/>
	
		<radialGradient id="SVGID_00000124870836249402668470000013824174946965787813_" cx="1665.3341" cy="225.4763" r="95.4307" gradientUnits="userSpaceOnUse">
		<stop  offset="0" style="stop-color:#FFFCEA;stop-opacity:0.62"/>
		<stop  offset="1.293298e-03" style="stop-color:#FCF5DE;stop-opacity:0.6178"/>
		<stop  offset="0.0107" style="stop-color:#FAEDD1;stop-opacity:0.6173"/>
		<stop  offset="0.0413" style="stop-color:#F4D9AB;stop-opacity:0.6155"/>
		<stop  offset="0.0726" style="stop-color:#EFC98E;stop-opacity:0.6137"/>
		<stop  offset="0.1042" style="stop-color:#ECBD7A;stop-opacity:0.6119"/>
		<stop  offset="0.1364" style="stop-color:#E9B56B;stop-opacity:0.6101"/>
		<stop  offset="0.1695" style="stop-color:#E8B061;stop-opacity:0.6082"/>
		<stop  offset="0.2046" style="stop-color:#E7AE5E;stop-opacity:0.6062"/>
		<stop  offset="0.253" style="stop-color:#E7AF5F;stop-opacity:0.5"/>
		<stop  offset="0.6597" style="stop-color:#F3903F;stop-opacity:0.9"/>
		<stop  offset="0.8943" style="stop-color:#ED683C"/>
		<stop  offset="1" style="stop-color:#DF724A"/>
	</radialGradient>
	
		<circle style="fill:url(#SVGID_00000124870836249402668470000013824174946965787813_);stroke:#000000;stroke-miterlimit:10;" cx="1665.33" cy="225.48" r="95.43"/>
</g>
<path class="st6" d="M1524.52,475.75c314.75-321.68,487.95-149.79,487.95-149.79l-4.04,542.89l-363.71,61.43"/>
<path class="st7" d="M365.33,668.49c315-70,255-162.5,457.5-117.5s190-95,362.5-35s195-117.5,325-47.5s155,91.69,155,91.69v145.81
	l-1280,52.5L365.33,668.49z"/>
<path class="st8" d="M2011.92,511.06c0,0-198.57-199.43-361.31-33.08s-267.96,215.69-419.27,234.9S690.88,578.84,690.88,578.84
	C-16.51,322.36-60.66,651.69-60.66,651.69L72.72,1172.2l1987.94-219.33"/>
<path class="st9" d="M0,755.5c0,0,175.5-220,355.5-72.5s290,185,442.5,187.5S1320.5,678,1320.5,678c675-332.5,755-10,755-10
	l-75.5,532H0"/>
<g>
	<path class="st1" d="M1304.59,546.77L1304.59,546.77c5.28,0,9.57-4.28,9.57-9.57V355.42c0-5.28-4.28-9.57-9.57-9.57h0
		c-5.28,0-9.57,4.28-9.57,9.57V537.2C1295.02,542.48,1299.3,546.77,1304.59,546.77z"/>
	<g>
		<g>
			<path class="st2" d="M1352.66,387.96c0.26,2.64,0.22,5.34,0.09,7.99c-0.06,1.23-0.17,2.45-0.29,3.67
				c-0.21,2.18,0.13-0.5-0.11,0.86c-0.14,0.8-0.26,1.59-0.42,2.38c-0.58,2.93-1.38,5.86-2.53,8.62c0.63-1.5-0.33,0.65-0.48,0.93
				c-0.37,0.69-0.72,1.39-1.12,2.06c-0.46,0.78-0.95,1.53-1.47,2.27c-1.27,1.77,0.94-1.02-0.52,0.63c-2.44,2.76-3.76,3.99-7.68,5.63
				c1.05-0.43-1.23,0.37-1.19,0.36c-1.08,0.33-2.17,0.61-3.28,0.83c-1.4,0.27-3.56,0.41-5.53,0.41c-5.93-0.02-11.65-1.37-17.31-3.07
				c-9.26-2.79-13.22,11.69-3.99,14.46c16.28,4.9,36.22,6.26,48.9-7.24c8.26-8.8,11.42-21.02,12.02-32.79
				c0.14-2.65,0.18-5.35-0.09-7.99c-0.4-4.03-3.16-7.5-7.5-7.5C1356.41,380.46,1352.25,383.9,1352.66,387.96L1352.66,387.96z"/>
		</g>
	</g>
	<g>
		<g>
			<path class="st2" d="M1252.25,410.07c-1.67,11.34-2.29,22.96-1.52,34.39c1.08,15.9,5.16,37.19,22.81,42.52
				c12.02,3.63,24.83-2.36,34.83-8.59c8.18-5.09,0.66-18.07-7.57-12.95c-4.4,2.74-8.85,5.25-13.79,6.66
				c-2.12,0.61-3.45,0.84-4.33,0.89c-0.89,0.05-1.77,0.03-2.66,0.03c-1.73-0.01,0.63,0.36-1.36-0.19c-0.66-0.18-1.31-0.36-1.95-0.58
				c-1.02-0.35,1.17,0.58,0.23,0.1c-0.33-0.17-0.67-0.32-0.99-0.52c-0.55-0.34-1.11-0.67-1.63-1.06c1.53,1.11-0.6-0.65-1-1.05
				c-0.83-0.83-3.04-4.39-3.79-6.21c-2.39-5.82-3.42-13.1-3.82-19.4c-0.45-6.93-0.33-13.9,0.14-20.83c0.18-2.66,0.42-5.31,0.72-7.96
				c0.08-0.74,0.19-1.48,0.27-2.22c0.1-0.97-0.34,2.4-0.13,0.95c0.59-4.04-1.01-8.02-5.24-9.23
				C1257.95,403.82,1252.84,406.07,1252.25,410.07L1252.25,410.07z"/>
		</g>
	</g>
</g>
<g>
	<path class="st10" d="M121.24,545.46L121.24,545.46c8.28,0,15-6.72,15-15v-285c0-8.28-6.72-15-15-15h0c-8.28,0-15,6.72-15,15v285
		C106.24,538.74,112.96,545.46,121.24,545.46z"/>
	<g>
		<g>
			<path class="st11" d="M193.36,296.47c0.28,2.79,0.3,5.61,0.27,8.41c-0.04,2.93-0.2,5.86-0.48,8.77c-0.08,0.83-0.2,1.66-0.27,2.49
				c-0.2,2.24,0.72-4.4,0.14-1.11c-0.34,1.9-0.64,3.8-1.05,5.68c-0.86,3.92-2.2,7.6-3.46,11.4c-0.73,2.22,1.76-3.7,0.2-0.54
				c-0.44,0.9-0.87,1.8-1.34,2.69c-1,1.89-2.16,3.67-3.34,5.45c-1.89,2.86,1.8-1.97,0.28-0.33c-0.7,0.76-1.34,1.57-2.05,2.31
				c-0.72,0.76-1.46,1.49-2.24,2.18c-0.34,0.31-0.73,0.6-1.06,0.92c-1.89,1.86,3.06-2.04,0.8-0.59c-1.76,1.13-3.45,2.31-5.31,3.27
				c-0.56,0.29-1.15,0.54-1.71,0.83c-1.93,1.03,1.43-0.98,1.43-0.6c0,0.3-3.33,1.16-3.82,1.31c-1.36,0.4-2.73,0.74-4.12,1.02
				c-0.57,0.12-1.17,0.19-1.73,0.32c-2.97,0.7,3.27-0.15,0.37-0.05c-3.35,0.11-6.62,0.39-9.98,0.23c-1.84-0.09-3.67-0.27-5.51-0.45
				c-3.71-0.35,2.22,0.61-0.09-0.02c-1.17-0.32-2.44-0.41-3.63-0.64c-4.66-0.9-9.25-2.12-13.8-3.5
				c-7.51-2.28-16.69,2.72-18.45,10.48c-1.85,8.1,2.44,16.01,10.48,18.45c26.74,8.13,59.83,9.86,80.3-12.71
				c13.32-14.69,18.48-34.49,19.35-53.9c0.18-3.91,0.22-7.89-0.17-11.8c-0.78-7.78-6.34-15.39-15-15
				C200.91,281.81,192.53,288.11,193.36,296.47L193.36,296.47z"/>
		</g>
	</g>
	<g>
		<g>
			<path class="st11" d="M36.06,330.28c-2.63,17.79-3.68,35.98-2.55,53.93c1.69,26.82,8.63,61.48,38.12,70.62
				c19.62,6.08,40.82-3.54,57.18-13.77c6.86-4.29,9.56-13.38,5.38-20.52c-4-6.85-13.63-9.7-20.52-5.38
				c-3.98,2.49-8.05,4.84-12.28,6.88c-0.9,0.43-1.86,0.8-2.73,1.27c-1.46,0.79,1.38-0.57,1.37-0.56c-0.58,0.21-1.15,0.47-1.73,0.69
				c-1.78,0.66-3.57,1.29-5.39,1.82c-1.54,0.44-3.09,0.79-4.66,1.13c-0.65,0.14-3.43,0.54-0.58,0.15c2.86-0.38-0.14-0.02-0.84,0.03
				c-1.34,0.09-2.66,0.06-4,0.04c-0.5-0.01-1.44-0.31-1.9-0.15c1.22-0.42,3.99,0.79,1.27,0.11c-1.24-0.31-2.44-0.66-3.67-1.02
				c-2.47-0.73,1.07,0.01,1.47,0.65c-0.22-0.35-1.37-0.66-1.75-0.89c-0.92-0.56-1.86-1.33-2.82-1.81c-0.67-0.33,2.97,2.69,1.29,0.95
				c-0.45-0.47-0.98-0.87-1.45-1.33c-0.82-0.8-1.52-1.7-2.3-2.52c-1.51-1.57,2.08,3.07,0.93,1.2c-0.36-0.58-0.79-1.13-1.16-1.71
				c-1.46-2.26-2.49-4.68-3.74-7.04c-0.42-0.8,1.42,3.75,0.54,1.22c-0.21-0.61-0.46-1.22-0.68-1.83c-0.48-1.35-0.93-2.72-1.33-4.1
				c-0.81-2.74-1.48-5.53-2.04-8.33c-0.3-1.5-0.57-3-0.82-4.5c-0.11-0.7-0.21-1.41-0.32-2.11c-0.39-2.31,0.46,3.94,0.11,0.8
				c-0.33-2.97-0.64-5.93-0.84-8.91c-0.76-11.01-0.59-22.08,0.15-33.08c0.29-4.25,0.66-8.5,1.14-12.74
				c0.14-1.25,0.33-2.49,0.45-3.74c0.09-0.87-0.73,5.2-0.34,2.53c1.14-7.73-1.92-16.5-10.48-18.45
				C47.39,318.18,37.29,321.98,36.06,330.28L36.06,330.28z"/>
		</g>
	</g>
</g>
<g>
	<path class="st10" d="M1693.99,878.97L1693.99,878.97c-8.44,0-15.28-6.84-15.28-15.28V573.36c0-8.44,6.84-15.28,15.28-15.28l0,0
		c8.44,0,15.28,6.84,15.28,15.28v290.33C1709.27,872.13,1702.43,878.97,1693.99,878.97z"/>
	<g>
		<g>
			<path class="st11" d="M1597.74,625.34c-3.02,30.14,8.87,66.87,40.87,75.73c16.59,4.6,34.48,1.55,50.62-3.36
				c9.21-2.8,5.28-17.28-3.99-14.46c-12.51,3.8-26.91,6.72-39.34,4.15c-9.14-1.89-15.49-5.54-21.41-12.52
				c-1.26-1.49-0.21-0.16-1.11-1.44c-0.58-0.83-1.15-1.67-1.68-2.53c-1.18-1.9-2.21-3.87-3.17-5.88c-0.19-0.4-0.37-0.8-0.54-1.21
				c0.12,0.27,0.53,1.31-0.01-0.04c-0.36-0.91-0.71-1.84-1.04-2.77c-0.68-1.93-1.26-3.89-1.78-5.86c-0.47-1.81-0.88-3.64-1.23-5.48
				c-0.17-0.89-0.32-1.78-0.47-2.67c-0.2-1.27-0.34-2.45-0.22-1.47c-0.38-3.17-0.63-6.35-0.74-9.55c-0.11-3.54-0.13-7.13,0.23-10.65
				c0.4-4.04-3.74-7.5-7.5-7.5C1600.85,617.84,1598.14,621.29,1597.74,625.34L1597.74,625.34z"/>
		</g>
	</g>
	<g>
		<g>
			<path class="st11" d="M1758.79,665.83c0.2,1.37,0.02,0.31-0.11-0.82c0.11,1,0.26,2.01,0.38,3.01c0.41,3.44,0.74,6.9,1.01,10.35
				c0.87,10.9,1.19,21.86,0.69,32.79c-0.56,12.22-1.55,22.1-5.81,34.14c-1.1,3.11-1.02,3.05-2.77,6.36
				c-0.57,1.07-1.17,2.12-1.82,3.15c-0.32,0.5-0.65,0.99-0.98,1.48c-0.98,1.48,0.03,0.08-0.58,0.81c-0.73,0.88-1.48,1.74-2.29,2.55
				c-0.57,0.57-2.59,2.31-2.19,2c0.81-0.62-0.81,0.55-1.06,0.7c-0.48,0.29-0.95,0.59-1.43,0.87c-0.49,0.28-0.99,0.52-1.49,0.78
				c-1.11,0.56,1.07-0.33-0.56,0.24c-1.4,0.48-2.79,0.86-4.24,1.18c-1.41,0.31-0.69,0.13-0.74,0.13c-0.74,0.07-1.48,0.12-2.23,0.15
				c-4.21,0.14-5.28-0.07-9.03-0.95c-9.31-2.19-17.67-6.72-25.78-11.79c-8.21-5.14-15.74,7.84-7.57,12.95
				c14.11,8.83,31.03,17.02,48.14,14.18c12.25-2.03,21.75-10.87,27.22-21.68c11.42-22.57,11.42-50.56,9.85-75.24
				c-0.45-7.13-1.12-14.26-2.16-21.32c-0.59-4-5.67-6.24-9.23-5.24C1759.74,657.81,1758.2,661.79,1758.79,665.83L1758.79,665.83z"/>
		</g>
	</g>
</g>
<g>
	<path class="st10" d="M1881.66,470.57L1881.66,470.57c6.2,0,11.23-5.03,11.23-11.23V246.04c0-6.2-5.03-11.23-11.23-11.23l0,0
		c-6.2,0-11.23,5.03-11.23,11.23v213.31C1870.43,465.54,1875.45,470.57,1881.66,470.57z"/>
	<g>
		<g>
			<path class="st11" d="M1939.36,284.22c0.2,2.03,0.22,4.08,0.2,6.12c-0.02,2.17-0.13,4.34-0.34,6.5c-0.05,0.55-0.11,1.1-0.17,1.64
				c-0.19,1.82,0.16-0.83-0.07,0.57c-0.23,1.4-0.47,2.79-0.77,4.17c-0.59,2.72-1.38,5.38-2.35,7.98c-0.44,1.18,0.32-0.58-0.39,0.94
				c-0.28,0.6-0.57,1.2-0.87,1.79c-0.72,1.39-1.53,2.72-2.39,4.03c-2.54,3.85-7.47,7.59-12.66,9.14c-9.72,2.91-20.9,0.76-30.95-2.27
				c-9.26-2.8-13.22,11.67-3.99,14.46c18.67,5.64,41.68,7.34,56.2-8.26c9.45-10.15,13.01-24.26,13.66-37.79
				c0.14-3,0.18-6.05-0.12-9.04c-0.4-4.03-3.16-7.5-7.5-7.5C1943.12,276.72,1938.96,280.17,1939.36,284.22L1939.36,284.22z"/>
		</g>
	</g>
	<g>
		<g>
			<path class="st11" d="M1821.5,310.51c-1.94,13.15-2.63,26.66-1.74,39.92c1.22,18.11,5.72,42.53,25.79,48.72
				c13.71,4.23,28.5-2.83,39.89-9.94c8.17-5.1,0.65-18.08-7.57-12.95c-5.25,3.28-10.61,6.27-16.52,7.96
				c-1.15,0.33-2.31,0.59-3.48,0.84c-1.65,0.35,0.02,0.14-1.96,0.25c-1,0.06-1.99,0.04-2.99,0.03c-0.52-0.01-1.06-0.06-1.58-0.12
				c1.31,0.16,0.31,0.05-0.4-0.14c-0.75-0.2-1.5-0.41-2.24-0.65c-1.76-0.59,0.99,0.51-0.04-0.01c-0.42-0.21-0.85-0.4-1.24-0.64
				c-0.63-0.4-1.26-0.77-1.87-1.2c1.52,1.08-0.84-0.81-1.23-1.2c-0.6-0.61-1.17-1.25-1.7-1.92c1.14,1.42-0.44-0.72-0.69-1.11
				c-1.04-1.64-1.93-3.38-2.7-5.16c0.65,1.52-0.51-1.45-0.64-1.82c-0.29-0.84-0.55-1.68-0.8-2.53c-0.64-2.19-1.17-4.42-1.6-6.66
				c-0.22-1.15-0.41-2.31-0.6-3.46c-0.27-1.66-0.1-0.51-0.22-1.53c-0.28-2.36-0.5-4.73-0.65-7.11c-0.52-8.12-0.38-16.28,0.17-24.39
				c0.21-3.11,0.49-6.21,0.84-9.31c0.1-0.91,0.25-1.82,0.33-2.73c0.02-0.27-0.34,2.37-0.11,0.84c0.6-4.04-1.01-8.02-5.24-9.23
				C1827.2,304.27,1822.09,306.51,1821.5,310.51L1821.5,310.51z"/>
		</g>
	</g>
</g>
<g>
	<path class="st10" d="M1824.97,985.41L1824.97,985.41c6.4,0,11.58-5.19,11.58-11.58V753.75c0-6.4-5.19-11.58-11.58-11.58h0
		c-6.4,0-11.58,5.19-11.58,11.58v220.08C1813.39,980.23,1818.58,985.41,1824.97,985.41z"/>
	<g>
		<g>
			<path class="st11" d="M1884.75,793.15c0.21,2.06,0.23,4.15,0.21,6.21c-0.02,2.25-0.13,4.5-0.34,6.75
				c-0.06,0.64-0.13,1.28-0.2,1.93c-0.16,1.47,0.2-1.2-0.04,0.3c-0.24,1.5-0.49,3-0.82,4.48c-0.62,2.83-1.43,5.61-2.45,8.32
				c-0.44,1.18,0.31-0.56-0.4,0.96c-0.33,0.71-0.66,1.41-1.03,2.1c-0.73,1.39-1.54,2.74-2.42,4.04c-0.9,1.33-0.55,0.9-2.02,2.48
				c-0.55,0.59-1.12,1.17-1.72,1.72c-0.31,0.29-2.12,1.76-1.21,1.08c-2.9,2.17-5.35,3.29-8.08,4.12
				c-10.22,3.09-21.7,0.84-32.14-2.32c-9.26-2.8-13.22,11.67-3.99,14.46c19.27,5.83,43.12,7.58,57.98-8.7
				c9.52-10.44,13.13-24.75,13.79-38.54c0.15-3.11,0.19-6.27-0.12-9.37c-0.4-4.03-3.16-7.5-7.5-7.5
				C1888.51,785.65,1884.35,789.09,1884.75,793.15L1884.75,793.15z"/>
		</g>
	</g>
	<g>
		<g>
			<path class="st11" d="M1763.14,820.34c-2,13.57-2.71,27.5-1.78,41.18c1.24,18.44,5.82,43.64,26.32,49.95
				c14.16,4.36,29.32-2.85,41.09-10.2c8.17-5.1,0.65-18.08-7.57-12.95c-5.51,3.44-11.16,6.59-17.42,8.32
				c-1.02,0.28-2.06,0.51-3.09,0.74c-1.98,0.43-0.4,0.21-2.33,0.31c-1,0.05-1.99,0.04-3,0.03c-0.53-0.01-1.06-0.06-1.58-0.12
				c1.86,0.22-0.11-0.06-0.41-0.13c-0.95-0.24-1.87-0.5-2.79-0.83c1.53,0.55-0.19-0.08-0.77-0.42c-0.81-0.47-1.59-0.95-2.34-1.5
				c1.5,1.1-0.61-0.61-1.02-1.02c-0.67-0.67-1.3-1.39-1.9-2.13c1.15,1.43-0.6-0.95-0.85-1.36c-0.43-0.68-0.83-1.39-1.21-2.1
				c-0.26-0.48-1.7-3.65-1.1-2.18c-1.62-3.93-2.71-8.09-3.53-12.26c-0.91-4.64-1.17-7.05-1.52-12.48
				c-0.54-8.36-0.4-16.76,0.16-25.12c0.22-3.26,0.51-6.52,0.88-9.77c0.11-0.94,0.25-1.88,0.34-2.82c0.06-0.63-0.35,2.48-0.11,0.87
				c0.6-4.04-1.01-8.02-5.24-9.23C1768.84,814.09,1763.73,816.34,1763.14,820.34L1763.14,820.34z"/>
		</g>
	</g>
</g>
<g>
	<g>
		
			<rect x="551.02" y="785.43" transform="matrix(-0.5486 -0.8361 0.8361 -0.5486 209.1791 1806.0466)" class="st12" width="82.18" height="122.26"/>
		
			<rect x="533.84" y="777.19" transform="matrix(-0.9172 -0.3985 0.3985 -0.9172 723.608 1781.6517)" class="st12" width="26.23" height="76.87"/>
		
			<rect x="590.12" y="862.9" transform="matrix(4.879441e-04 1 -1 4.879441e-04 1504.4509 297.748)" class="st12" width="26.32" height="77.14"/>
	</g>
	<g>
		
			<rect x="453.17" y="998.35" transform="matrix(0.9312 0.3644 -0.3644 0.9312 410.5726 -103.4444)" class="st13" width="52.39" height="75.48"/>
		<polygon class="st13" points="511.24,1060.87 527.5,1057.7 516.95,1010.94 500.69,1014.11 		"/>
		<polygon class="st13" points="438.25,1032.39 428.43,1018.98 468.05,991.71 477.87,1005.12 		"/>
	</g>
	<g>
		<path class="st14" d="M431.52,1031.84l0.9-48.09c0.09-4.92,4.16-8.84,9.08-8.75l13.81,0.26c4.92,0.09,8.84,4.16,8.75,9.08
			l-0.9,48.09c-0.09,4.92-4.16,8.84-9.08,8.75l-13.81-0.26C435.35,1040.83,431.43,1036.76,431.52,1031.84z"/>
		
			<rect x="371.26" y="971.24" transform="matrix(0.0953 0.9954 -0.9954 0.0953 1374.588 545.0768)" class="st14" width="32.33" height="115.04"/>
		
			<rect x="372.05" y="928.8" transform="matrix(-0.0944 0.9955 -0.9955 -0.0944 1406.7838 692.9488)" class="st14" width="32.33" height="115.04"/>
	</g>
	<g>
		<path class="st15" d="M532.83,869.21l-36.03-31.87c-3.69-3.26-4.03-8.9-0.77-12.59l9.15-10.34c3.26-3.69,8.9-4.03,12.59-0.77
			l36.03,31.87c3.69,3.26,4.03,8.9,0.77,12.59l-9.15,10.34C542.16,872.13,536.52,872.47,532.83,869.21z"/>
		
			<rect x="485.73" y="843.27" transform="matrix(0.8197 0.5728 -0.5728 0.8197 606.5264 -125.0624)" class="st15" width="32.33" height="115.04"/>
		
			<rect x="453.93" y="815.14" transform="matrix(0.6967 0.7173 -0.7173 0.6967 768.5463 -72.567)" class="st15" width="32.33" height="115.04"/>
	</g>
	<g>
		
			<rect x="411.2" y="888.31" transform="matrix(0.9039 -0.4278 0.4278 0.9039 -362.6952 284.7607)" class="st16" width="82.18" height="122.26"/>
		
			<rect x="476.06" y="870.55" transform="matrix(0.5214 -0.8533 0.8533 0.5214 -541.5358 852.4434)" class="st16" width="26.23" height="76.87"/>
		
			<rect x="383.21" y="914.34" transform="matrix(-0.9905 -0.1377 0.1377 -0.9905 657.7134 1951.3348)" class="st16" width="26.32" height="77.14"/>
	</g>
	<g>
		
			<rect x="522.85" y="883.35" transform="matrix(0.3395 0.9406 -0.9406 0.3395 1236.432 92.9135)" class="st17" width="58.42" height="86.91"/>
		
			<rect x="568.86" y="928.32" transform="matrix(0.7996 0.6006 -0.6006 0.7996 689.8254 -155.6977)" class="st17" width="18.64" height="54.64"/>
		
			<rect x="544.05" y="859.58" transform="matrix(0.2318 -0.9728 0.9728 0.2318 -437.7008 1219.7551)" class="st17" width="18.71" height="54.83"/>
	</g>
	<g>
		<path class="st18" d="M562.4,951.89l-17.53,44.79c-1.79,4.59-6.97,6.85-11.55,5.05l-12.86-5.03c-4.59-1.79-6.85-6.97-5.05-11.55
			l17.53-44.79c1.79-4.59,6.97-6.85,11.55-5.05l12.86,5.03C561.94,942.13,564.2,947.3,562.4,951.89z"/>
		
			<rect x="586.53" y="912.55" transform="matrix(0.2559 -0.9667 0.9667 0.2559 -489.3182 1304.4164)" class="st18" width="32.33" height="115.04"/>
		
			<rect x="571.06" y="952.08" transform="matrix(0.4339 -0.901 0.901 0.4339 -577.1835 1100.6262)" class="st18" width="32.33" height="115.04"/>
	</g>
	<g>
		
			<rect x="480.71" y="934.5" transform="matrix(-0.9785 0.2062 -0.2062 -0.9785 1203.3781 1819.0676)" class="st19" width="52.39" height="75.48"/>
		<polygon class="st19" points="466.66,969.02 454.81,980.59 489.28,1013.89 501.13,1002.32 		"/>
		<polygon class="st19" points="543.31,952.78 558.87,958.6 540.71,1003.14 525.14,997.31 		"/>
	</g>
</g>
<g>
	<g>
		
			<rect x="889.2" y="623.49" transform="matrix(-0.9753 0.221 -0.221 -0.9753 1971.0157 1125.6526)" class="st20" width="66.67" height="99.19"/>
		
			<rect x="875.57" y="667.42" transform="matrix(-0.6945 0.7195 -0.7195 -0.6945 2004.3176 546.1858)" class="st20" width="21.28" height="62.37"/>
		
			<rect x="956.76" y="648.91" transform="matrix(0.9368 0.3498 -0.3498 0.9368 299.0996 -295.4703)" class="st20" width="21.35" height="62.58"/>
	</g>
	<g>
		
			<rect x="977.56" y="725.22" transform="matrix(0.6676 -0.7446 0.7446 0.6676 -230.7261 994.9338)" class="st13" width="42.5" height="61.24"/>
		<polygon class="st13" points="1026.7,738.66 1028.91,725.41 990.38,720.14 988.17,733.39 		"/>
		<polygon class="st13" points="984.31,786.03 971.34,789.68 961.88,751.83 974.85,748.18 		"/>
	</g>
	<g>
		<path class="st14" d="M1019.42,851.46l-33.16-13.12c-4.58-1.81-6.82-6.99-5.01-11.57l2.88-7.29c1.81-4.58,6.99-6.82,11.57-5.01
			l33.16,13.12c4.58,1.81,6.82,6.99,5.01,11.57l-2.88,7.29C1029.18,851.02,1024,853.27,1019.42,851.46z"/>
		
			<rect x="992.99" y="838.05" transform="matrix(0.9658 0.2595 -0.2595 0.9658 264.0031 -230.7474)" class="st14" width="26.23" height="93.33"/>
		
			<rect x="960.97" y="825.38" transform="matrix(0.8994 0.4372 -0.4372 0.8994 479.2361 -338.0905)" class="st14" width="26.23" height="93.33"/>
	</g>
	<g>
		<path class="st15" d="M924.71,729.66l-31.49,16.74c-4.35,2.31-9.75,0.66-12.06-3.69l-3.68-6.92c-2.31-4.35-0.66-9.75,3.69-12.06
			L912.65,707c4.35-2.31,9.75-0.66,12.06,3.69l3.68,6.92C930.71,721.95,929.06,727.35,924.71,729.66z"/>
		
			<rect x="928.28" y="714.69" transform="matrix(0.8237 -0.5671 0.5671 0.8237 -265.7438 668.0692)" class="st15" width="26.23" height="93.33"/>
		
			<rect x="897.87" y="730.86" transform="matrix(0.9159 -0.4013 0.4013 0.9159 -235.4539 430.9481)" class="st15" width="26.23" height="93.33"/>
	</g>
	<g>
		
			<rect x="930.93" y="763.28" transform="matrix(-0.0841 -0.9965 0.9965 -0.0841 235.3381 1842.0664)" class="st21" width="66.67" height="99.19"/>
		
			<rect x="933.37" y="742.17" transform="matrix(-0.6166 -0.7873 0.7873 -0.6166 917.2225 1993.408)" class="st21" width="21.28" height="62.37"/>
		
			<rect x="940.34" y="825.07" transform="matrix(-0.476 0.8795 -0.8795 -0.476 2156.8013 427.576)" class="st21" width="21.35" height="62.58"/>
	</g>
	<g>
		
			<rect x="951.73" y="695.37" transform="matrix(0.9999 0.0116 -0.0116 0.9999 8.5071 -11.2217)" class="st17" width="47.39" height="70.51"/>
		
			<rect x="997.2" y="696.81" transform="matrix(0.8426 -0.5385 0.5385 0.8426 -229.0481 654.2392)" class="st17" width="15.12" height="44.33"/>
		
			<rect x="937.97" y="696.05" transform="matrix(-0.8299 -0.5578 0.5578 -0.8299 1329.6152 1841.9132)" class="st17" width="15.18" height="44.49"/>
	</g>
	<g>
		<path class="st18" d="M995.13,735.79l26.55,23.81c3.67,3.29,3.97,8.93,0.69,12.59l-5.23,5.84c-3.29,3.67-8.93,3.97-12.59,0.69
			l-26.55-23.81c-3.67-3.29-3.97-8.93-0.69-12.59l5.23-5.84C985.82,732.81,991.46,732.5,995.13,735.79z"/>
		
			<rect x="1006.03" y="662.54" transform="matrix(-0.8158 -0.5784 0.5784 -0.8158 1440.3662 1877.2047)" class="st18" width="26.23" height="93.33"/>
		
			<rect x="1031.67" y="685.54" transform="matrix(-0.6919 -0.722 0.722 -0.6919 1239.0106 1993.1469)" class="st18" width="26.23" height="93.33"/>
	</g>
	<g>
		
			<rect x="975.86" y="747.24" transform="matrix(-0.1497 0.9887 -0.9887 -0.1497 1915.4294 -91.6219)" class="st19" width="42.5" height="61.24"/>
		<polygon class="st19" points="983.23,807.52 988.65,819.82 1023.75,803.09 1018.33,790.79 		"/>
		<polygon class="st19" points="992.67,744.66 1001.52,734.49 1030.2,760.95 1021.35,771.12 		"/>
	</g>
</g>
<g>
	<g>
		
			<rect x="952.64" y="1051.15" transform="matrix(0.521 -0.8536 0.8536 0.521 -473.9424 1382.0769)" class="st12" width="83.57" height="124.32"/>
		
			<rect x="989.87" y="1019.26" transform="matrix(-0.0322 -0.9995 0.9995 -0.0322 -22.2821 2095.1189)" class="st12" width="26.67" height="78.17"/>
		
			<rect x="935.43" y="1108.24" transform="matrix(-0.9037 0.4282 -0.4282 -0.9037 2297.6057 1778.0507)" class="st12" width="26.76" height="78.44"/>
	</g>
	<g>
		
			<rect x="826.77" y="1071.23" transform="matrix(0.069 0.9976 -0.9976 0.069 1901.5122 181.7118)" class="st13" width="53.27" height="76.76"/>
		<polygon class="st13" points="844.5,1149.68 854.49,1163.24 892.87,1133.21 882.88,1119.65 		"/>
		<polygon class="st13" points="838.92,1070.21 846.97,1055.35 889.27,1079.91 881.22,1094.76 		"/>
	</g>
	<g>
		<path class="st14" d="M747.39,1045.56l44.87-20.21c4.49-2.02,9.77-0.02,11.79,4.47l5.89,13.08c2.02,4.49,0.02,9.77-4.47,11.79
			l-44.87,20.21c-4.49,2.02-9.77,0.02-11.79-4.47l-5.89-13.08C740.9,1052.87,742.9,1047.59,747.39,1045.56z"/>
		
			<rect x="714.73" y="945.14" transform="matrix(-0.859 0.512 -0.512 -0.859 1873.0808 1491.3994)" class="st14" width="32.88" height="116.98"/>
		
			<rect x="754.09" y="927.41" transform="matrix(-0.9402 0.3406 -0.3406 -0.9402 1830.7504 1650.4556)" class="st14" width="32.88" height="116.98"/>
	</g>
	<g>
		<path class="st15" d="M941.03,1068.01l13.7-47.27c1.37-4.73,6.32-7.45,11.05-6.08l13.77,3.99c4.73,1.37,7.45,6.32,6.08,11.05
			l-13.7,47.27c-1.37,4.73-6.32,7.45-11.05,6.08l-13.77-3.99C942.38,1077.69,939.66,1072.74,941.03,1068.01z"/>
		
			<rect x="882.15" y="994.68" transform="matrix(-0.1671 0.9859 -0.9859 -0.1671 2087.123 343.241)" class="st15" width="32.88" height="116.98"/>
		
			<rect x="894.16" y="953.22" transform="matrix(-0.3503 0.9366 -0.9366 -0.3503 2177.1963 513.2152)" class="st15" width="32.88" height="116.98"/>
	</g>
	<g>
		
			<rect x="790.51" y="966.59" transform="matrix(0.7734 0.634 -0.634 0.7734 840.8278 -294.4916)" class="st16" width="83.57" height="124.32"/>
		
			<rect x="872.18" y="1005.96" transform="matrix(0.9943 0.1062 -0.1062 0.9943 116.0385 -88.1635)" class="st16" width="26.67" height="78.17"/>
		
			<rect x="791.4" y="939.64" transform="matrix(-0.2992 -0.9542 0.9542 -0.2992 111.584 2039.6649)" class="st16" width="26.76" height="78.44"/>
	</g>
	<g>
		
			<rect x="866.8" y="1066.41" transform="matrix(-0.705 0.7092 -0.7092 -0.705 2316.179 1257.7269)" class="st17" width="59.4" height="88.37"/>
		
			<rect x="871.88" y="1119.36" transform="matrix(-0.2008 0.9796 -0.9796 -0.2008 2182.1055 514.0773)" class="st17" width="18.96" height="55.56"/>
		
			<rect x="924.16" y="1066.64" transform="matrix(0.9784 -0.2067 0.2067 0.9784 -206.0431 216.5878)" class="st17" width="19.02" height="55.76"/>
	</g>
	<g>
		<path class="st18" d="M876.91,1123.65l-49.1,3.39c-4.91,0.34-9.17-3.37-9.51-8.28l-0.99-14.31c-0.34-4.91,3.37-9.17,8.28-9.51
			l49.1-3.39c4.91-0.34,9.17,3.37,9.51,8.28l0.99,14.31C885.53,1119.05,881.82,1123.31,876.91,1123.65z"/>
		
			<rect x="861.13" y="1110.12" transform="matrix(0.9833 -0.1822 0.1822 0.9833 -198.2471 179.4719)" class="st18" width="32.88" height="116.98"/>
		
			<rect x="818.07" y="1113.1" transform="matrix(1 6.739844e-03 -6.739844e-03 1 7.9153 -5.5979)" class="st18" width="32.88" height="116.98"/>
	</g>
	<g>
		
			<rect x="808.46" y="1050.48" transform="matrix(-0.605 -0.7962 0.7962 -0.605 473.3183 2412.5298)" class="st19" width="53.27" height="76.76"/>
		<polygon class="st19" points="820.55,1050.46 804.76,1044.61 789.15,1090.77 804.94,1096.63 		"/>
		<polygon class="st19" points="868.82,1113.85 870.23,1130.69 821.4,1133.37 819.98,1116.53 		"/>
	</g>
</g>
<g>
	<g>
		
			<rect x="634.14" y="770.27" transform="matrix(-0.398 0.9174 -0.9174 -0.398 1719.679 548.3275)" class="st22" width="91.58" height="136.25"/>
		
			<rect x="664.11" y="856.54" transform="matrix(0.17 0.9854 -0.9854 0.17 1449.5859 77.5967)" class="st22" width="29.23" height="85.67"/>
		
			<rect x="709.6" y="751.43" transform="matrix(0.8358 -0.549 0.549 0.8358 -317.236 528.0894)" class="st22" width="29.33" height="85.96"/>
	</g>
	<g>
		
			<rect x="804.37" y="778.99" transform="matrix(-0.2062 -0.9785 0.9785 -0.2062 202.0203 1805.9813)" class="st13" width="58.38" height="84.12"/>
		<polygon class="st13" points="837.14,776.2 824.25,762.99 787.14,801.4 800.03,814.61 		"/>
		<polygon class="st13" points="855.24,861.61 848.75,878.96 799.12,858.72 805.61,841.37 		"/>
	</g>
	<g>
		<path class="st14" d="M959.05,874.04l-47.09,29.65c-4.17,2.62-9.67,1.37-12.3-2.79l-9.29-14.75c-2.62-4.17-1.37-9.67,2.79-12.3
			l47.09-29.65c4.17-2.62,9.67-1.37,12.3,2.79l9.29,14.75C964.47,865.91,963.22,871.42,959.05,874.04z"/>
		
			<rect x="964.27" y="853.46" transform="matrix(0.78 -0.6258 0.6258 0.78 -358.0892 816.5825)" class="st14" width="36.03" height="128.21"/>
		
			<rect x="924.23" y="878.66" transform="matrix(0.8841 -0.4672 0.4672 0.8841 -331.3219 549.5008)" class="st14" width="36.03" height="128.21"/>
	</g>
	<g>
		<path class="st15" d="M744.87,878.62l-7.96,55.07c-0.7,4.87-5.23,8.25-10.1,7.55l-17.25-2.49c-4.87-0.7-8.25-5.23-7.55-10.1
			l7.96-55.07c0.7-4.87,5.23-8.25,10.1-7.55l17.25,2.49C742.19,869.22,745.57,873.74,744.87,878.62z"/>
		
			<rect x="775.05" y="825.04" transform="matrix(0.0293 -0.9996 0.9996 0.0293 -118.8977 1655.8573)" class="st15" width="36.03" height="128.21"/>
		
			<rect x="768.28" y="871.86" transform="matrix(0.2175 -0.9761 0.9761 0.2175 -298.2698 1499.8865)" class="st15" width="36.03" height="128.21"/>
	</g>
	<g>
		
			<rect x="822.92" y="837.49" transform="matrix(-0.8536 -0.521 0.521 -0.8536 1138.3947 2131.2021)" class="st23" width="91.58" height="136.25"/>
		
			<rect x="793.87" y="853.15" transform="matrix(-0.9995 0.0322 -0.0322 -0.9995 1645.405 1765.4675)" class="st23" width="29.23" height="85.67"/>
		
			<rect x="891.48" y="912.61" transform="matrix(0.4282 0.9037 -0.9037 0.4282 1381.6287 -272.4775)" class="st23" width="29.33" height="85.96"/>
	</g>
	<g>
		
			<rect x="754.08" y="778.07" transform="matrix(0.6002 -0.7999 0.7999 0.6002 -346.5795 959.6338)" class="st17" width="65.1" height="96.85"/>
		
			<rect x="787.14" y="754.09" transform="matrix(0.0635 -0.998 0.998 0.0635 -36.0345 1530.667)" class="st17" width="20.77" height="60.89"/>
		
			<rect x="738.29" y="819.03" transform="matrix(-0.9405 0.3399 -0.3399 -0.9405 1741.6373 1394.0825)" class="st17" width="20.85" height="61.11"/>
	</g>
	<g>
		<path class="st18" d="M805.08,809.54l54.45-11.47c4.82-1.02,9.55,2.07,10.56,6.89l3.59,17.05c1.02,4.82-2.07,9.55-6.89,10.56
			l-54.45,11.47c-4.82,1.02-9.55-2.07-10.56-6.89l-3.59-17.05C797.17,815.28,800.26,810.55,805.08,809.54z"/>
		
			<rect x="780.36" y="696.56" transform="matrix(-0.9486 0.3164 -0.3164 -0.9486 1796.4052 1229.675)" class="st18" width="36.03" height="128.21"/>
		
			<rect x="826.66" y="686.81" transform="matrix(-0.9913 0.1315 -0.1315 -0.9913 1780.7798 1384.1887)" class="st18" width="36.03" height="128.21"/>
	</g>
	<g>
		
			<rect x="827.38" y="798.73" transform="matrix(0.7092 0.705 -0.705 0.7092 841.8124 -359.3832)" class="st19" width="58.38" height="84.12"/>
		<polygon class="st19" points="878.17,880.26 896.2,884.23 906.15,831.75 888.13,827.79 		"/>
		<polygon class="st19" points="816.18,818.78 812.09,800.71 864.69,790.41 868.78,808.47 		"/>
	</g>
</g>
<g>
	<g>
		
			<rect x="1129.81" y="751.24" transform="matrix(-0.5486 -0.8361 0.8361 -0.5486 1133.4592 2230.583)" class="st24" width="78.09" height="116.17"/>
		
			<rect x="1113.48" y="743.42" transform="matrix(-0.9172 -0.3985 0.3985 -0.9172 1847.8564 1943.9353)" class="st24" width="24.92" height="73.04"/>
		
			<rect x="1166.96" y="824.85" transform="matrix(4.879441e-04 1 -1 4.879441e-04 2040.3859 -318.3809)" class="st24" width="25.01" height="73.3"/>
	</g>
	<g>
		
			<rect x="1084.46" y="891.09" transform="matrix(0.9312 0.3644 -0.3644 0.9312 414.1246 -340.5502)" class="st13" width="49.78" height="71.72"/>
		<polygon class="st13" points="1139.64,950.49 1155.09,947.48 1145.07,903.05 1129.62,906.07 		"/>
		<polygon class="st13" points="1070.29,923.43 1060.96,910.69 1098.61,884.78 1107.93,897.52 		"/>
	</g>
	<g>
		<path class="st14" d="M1012.89,990.31l0.84-44.81c0.09-4.92,4.16-8.84,9.08-8.75l12.23,0.23c4.92,0.09,8.84,4.16,8.75,9.08
			l-0.84,44.81c-0.09,4.92-4.16,8.84-9.08,8.75l-12.23-0.23C1016.72,999.3,1012.8,995.23,1012.89,990.31z"/>
		
			<rect x="955.62" y="933.17" transform="matrix(0.0953 0.9954 -0.9954 0.0953 1861.7922 -72.8633)" class="st14" width="30.72" height="109.31"/>
		
			<rect x="956.38" y="892.84" transform="matrix(-0.0944 0.9955 -0.9955 -0.0944 2006.7439 69.5484)" class="st14" width="30.72" height="109.31"/>
	</g>
	<g>
		<path class="st15" d="M1108.81,835.93l-33.57-29.69c-3.69-3.26-4.03-8.9-0.77-12.59l8.1-9.16c3.26-3.69,8.9-4.03,12.59-0.77
			l33.57,29.69c3.69,3.26,4.03,8.9,0.77,12.59l-8.1,9.16C1118.14,838.85,1112.5,839.19,1108.81,835.93z"/>
		
			<rect x="1064.39" y="811.57" transform="matrix(0.8197 0.5728 -0.5728 0.8197 690.9376 -462.318)" class="st15" width="30.72" height="109.31"/>
		
			<rect x="1034.18" y="784.85" transform="matrix(0.6967 0.7173 -0.7173 0.6967 920.4817 -498.2695)" class="st15" width="30.72" height="109.31"/>
	</g>
	<g>
		
			<rect x="993.58" y="854.37" transform="matrix(0.9039 -0.4278 0.4278 0.9039 -291.0874 529.4711)" class="st25" width="78.09" height="116.17"/>
		
			<rect x="1055.2" y="837.5" transform="matrix(0.5214 -0.8533 0.8533 0.5214 -234.8371 1329.3367)" class="st25" width="24.92" height="73.04"/>
		
			<rect x="966.98" y="879.11" transform="matrix(-0.9905 -0.1377 0.1377 -0.9905 1823.5011 1957.6881)" class="st25" width="25.01" height="73.3"/>
	</g>
	<g>
		
			<rect x="1099.66" y="849.66" transform="matrix(0.3395 0.9406 -0.9406 0.3395 1582.7526 -471.9642)" class="st17" width="55.51" height="82.58"/>
		
			<rect x="1143.38" y="892.39" transform="matrix(0.7996 0.6006 -0.6006 0.7996 782.4881 -507.9379)" class="st17" width="17.71" height="51.92"/>
		
			<rect x="1119.81" y="827.07" transform="matrix(0.2318 -0.9728 0.9728 0.2318 37.2066 1753.3578)" class="st17" width="17.77" height="52.1"/>
	</g>
	<g>
		<path class="st18" d="M1130.4,913.26l-16.33,41.74c-1.79,4.59-6.97,6.85-11.55,5.05l-11.39-4.46c-4.59-1.79-6.85-6.97-5.05-11.55
			l16.33-41.74c1.79-4.59,6.97-6.85,11.55-5.05l11.39,4.46C1129.93,903.5,1132.19,908.67,1130.4,913.26z"/>
		
			<rect x="1153.49" y="875.47" transform="matrix(0.2559 -0.9667 0.9667 0.2559 -29.4493 1821.9834)" class="st18" width="30.72" height="109.31"/>
		
			<rect x="1138.79" y="913.03" transform="matrix(0.4339 -0.901 0.901 0.4339 -218.4723 1587.672)" class="st18" width="30.72" height="109.31"/>
	</g>
	<g>
		
			<rect x="1059.62" y="898.26" transform="matrix(-0.9785 0.2062 -0.2062 -0.9785 2338.3193 1624.5498)" class="st19" width="49.78" height="71.72"/>
		<polygon class="st19" points="1046.27,931.06 1035.01,942.05 1067.76,973.69 1079.02,962.7 		"/>
		<polygon class="st19" points="1119.1,915.63 1133.89,921.16 1116.63,963.48 1101.84,957.94 		"/>
	</g>
</g>
<g class="st26">
	<g>
		
			<rect x="1039.84" y="707.3" transform="matrix(0.6258 0.78 -0.78 0.6258 982.8332 -552.5016)" class="st27" width="54.79" height="81.51"/>
		
			<rect x="1090.42" y="740.08" transform="matrix(0.951 0.3093 -0.3093 0.951 290.6842 -302.3885)" class="st27" width="17.48" height="51.25"/>
		
			<rect x="1047.56" y="686.61" transform="matrix(-0.0958 -0.9954 0.9954 -0.0958 448.4494 1832.0178)" class="st27" width="17.54" height="51.43"/>
	</g>
	<g>
		
			<rect x="1112.55" y="589.95" transform="matrix(-0.9617 -0.2741 0.2741 -0.9617 2048.1865 1516.3569)" class="st13" width="34.92" height="50.32"/>
		<polygon class="st13" points="1107.28,600.69 1096.7,603.83 1106.67,634.19 1117.25,631.05 		"/>
		<polygon class="st13" points="1157.53,614.95 1164.9,623.23 1140.34,643.84 1132.97,635.57 		"/>
	</g>
	<g>
		<path class="st14" d="M1162.26,617.86l2,26.05c0.38,4.91-3.3,9.2-8.21,9.57l-3.25,0.25c-4.91,0.38-9.2-3.3-9.57-8.21l-2-26.05
			c-0.38-4.91,3.3-9.2,8.21-9.57l3.25-0.25C1157.6,609.27,1161.88,612.94,1162.26,617.86z"/>
		
			<rect x="1180.72" y="575.78" transform="matrix(-0.1897 -0.9818 0.9818 -0.1897 814.5457 1900.4941)" class="st14" width="21.56" height="76.7"/>
		
			<rect x="1182.88" y="604" transform="matrix(-8.817997e-04 -1 1 -8.817997e-04 552.3636 1836.5776)" class="st14" width="21.56" height="76.7"/>
	</g>
	<g>
		<path class="st15" d="M1107.54,731l21.13,15.36c3.98,2.9,4.86,8.47,1.97,12.46l-1.92,2.64c-2.9,3.98-8.47,4.86-12.46,1.97
			l-21.13-15.36c-3.98-2.9-4.86-8.47-1.97-12.46l1.92-2.64C1097.98,728.99,1103.55,728.11,1107.54,731z"/>
		
			<rect x="1112.88" y="667.98" transform="matrix(-0.8705 -0.4921 0.4921 -0.8705 1754.2046 1874.1964)" class="st15" width="21.56" height="76.7"/>
		
			<rect x="1135.77" y="684.63" transform="matrix(-0.7619 -0.6477 0.6477 -0.7619 1551.8691 2016.4083)" class="st15" width="21.56" height="76.7"/>
	</g>
	<g>
		
			<rect x="1126.09" y="630.14" transform="matrix(-0.859 0.512 -0.512 -0.859 2487.804 656.6271)" class="st28" width="54.79" height="81.51"/>
		
			<rect x="1122.84" y="674.46" transform="matrix(-0.4377 0.8991 -0.8991 -0.4377 2256.3545 -10.8844)" class="st28" width="17.48" height="51.25"/>
		
			<rect x="1181.6" y="639.33" transform="matrix(0.9991 0.0427 -0.0427 0.9991 29.5033 -50.2557)" class="st28" width="17.54" height="51.43"/>
	</g>
	<g>
		
			<rect x="1069.24" y="663.28" transform="matrix(-0.4275 -0.904 0.904 -0.4275 928.3832 1972.4116)" class="st17" width="38.94" height="57.94"/>
		
			<rect x="1063.33" y="656.56" transform="matrix(-0.8532 -0.5217 0.5217 -0.8532 1630.0341 1808.3998)" class="st17" width="12.43" height="36.43"/>
		
			<rect x="1084.11" y="700.48" transform="matrix(-0.138 0.9904 -0.9904 -0.138 1952.7183 -261.9521)" class="st17" width="12.47" height="36.56"/>
	</g>
	<g>
		<path class="st18" d="M1081.07,673.41l7.16-25.12c1.35-4.74,6.28-7.48,11.02-6.13l3.14,0.89c4.74,1.35,7.48,6.28,6.13,11.02
			l-7.16,25.12c-1.35,4.74-6.28,7.48-11.02,6.13l-3.14-0.89C1082.46,683.08,1079.72,678.14,1081.07,673.41z"/>
		
			<rect x="1041.58" y="628.41" transform="matrix(-0.1627 0.9867 -0.9867 -0.1627 1881.4142 -263.1276)" class="st18" width="21.56" height="76.7"/>
		
			<rect x="1049.34" y="601.19" transform="matrix(-0.3461 0.9382 -0.9382 -0.3461 2027.0002 -133.7529)" class="st18" width="21.56" height="76.7"/>
	</g>
	<g>
		
			<rect x="1098.33" y="634.07" transform="matrix(0.9544 -0.2985 0.2985 0.9544 -145.9085 363.105)" class="st19" width="34.92" height="50.32"/>
		<polygon class="st19" points="1142.71,658.81 1149.84,650.38 1124.85,630.47 1117.72,638.9 		"/>
		<polygon class="st19" points="1092.87,674.46 1082.17,671.58 1091.4,640.88 1102.1,643.75 		"/>
	</g>
</g>
<g>
	<g>
		
			<rect x="1256.05" y="1148.93" transform="matrix(0.9854 -0.17 0.17 0.9854 -185.2083 236.8577)" class="st29" width="68.19" height="101.45"/>
		
			<rect x="1317.73" y="1143.62" transform="matrix(0.7309 -0.6825 0.6825 0.7309 -444.7404 1223.0072)" class="st29" width="21.76" height="63.79"/>
		
			<rect x="1233.74" y="1157.99" transform="matrix(-0.9174 -0.398 0.398 -0.9174 1912.8464 2777.0728)" class="st29" width="21.84" height="64.01"/>
	</g>
	<g>
		
			<rect x="1161.44" y="1019.86" transform="matrix(-0.7053 0.7089 -0.7089 -0.7053 2762.8586 953.8691)" class="st13" width="43.47" height="62.64"/>
		<polygon class="st13" points="1153.78,1067.25 1150.82,1080.67 1189.89,1088.1 1192.85,1074.68 		"/>
		<polygon class="st13" points="1199.58,1021.11 1213.04,1018.07 1220.69,1057.24 1207.24,1060.28 		"/>
	</g>
	<g>
		<path class="st14" d="M1203.61,1016.8l33.54,15.33c4.48,2.05,6.45,7.34,4.4,11.82l-3.5,7.66c-2.05,4.48-7.34,6.45-11.82,4.4
			l-33.54-15.33c-4.48-2.05-6.45-7.34-4.4-11.82l3.5-7.66C1193.84,1016.73,1199.13,1014.76,1203.61,1016.8z"/>
		
			<rect x="1205.74" y="935.9" transform="matrix(-0.951 -0.3093 0.3093 -0.951 2074.3447 2296.0664)" class="st14" width="26.83" height="95.46"/>
		
			<rect x="1237.78" y="950.54" transform="matrix(-0.8755 -0.4833 0.4833 -0.8755 1864.1321 2476.8889)" class="st14" width="26.83" height="95.46"/>
	</g>
	<g>
		<path class="st15" d="M1293.88,1146.41l33.42-15.6c4.46-2.08,9.77-0.15,11.85,4.31l3.56,7.63c2.08,4.46,0.15,9.77-4.31,11.85
			l-33.42,15.6c-4.46,2.08-9.77,0.15-11.85-4.31l-3.56-7.63C1287.49,1153.8,1289.42,1148.49,1293.88,1146.41z"/>
		
			<rect x="1265.28" y="1065.33" transform="matrix(-0.852 0.5235 -0.5235 -0.852 2950.8745 1391.9784)" class="st15" width="26.83" height="95.46"/>
		
			<rect x="1297.2" y="1050.43" transform="matrix(-0.9355 0.3532 -0.3532 -0.9355 2924.6367 1662.6163)" class="st15" width="26.83" height="95.46"/>
	</g>
	<g>
		
			<rect x="1223.98" y="1008.5" transform="matrix(0.0322 0.9995 -0.9995 0.0322 2276.2234 -232.3129)" class="st30" width="68.19" height="101.45"/>
		
			<rect x="1265.78" y="1068.77" transform="matrix(0.5749 0.8182 -0.8182 0.5749 1443.3527 -576.7003)" class="st30" width="21.76" height="63.79"/>
		
			<rect x="1263" y="983.51" transform="matrix(0.521 -0.8536 0.8536 0.521 -256.5878 1573.8069)" class="st30" width="21.84" height="64.01"/>
	</g>
	<g>
		
			<rect x="1218.08" y="1106.58" transform="matrix(-0.998 -0.0635 0.0635 -0.998 2409.6089 2361.8159)" class="st17" width="48.47" height="72.12"/>
		
			<rect x="1203.99" y="1130.31" transform="matrix(-0.8694 0.494 -0.494 -0.8694 2834.8721 1556.7883)" class="st17" width="15.47" height="45.34"/>
		
			<rect x="1264.4" y="1134.07" transform="matrix(0.7999 0.6002 -0.6002 0.7999 948.9255 -532.0105)" class="st17" width="15.52" height="45.5"/>
	</g>
	<g>
		<path class="st18" d="M1218.73,1141.15l-26.14-26.01c-3.49-3.47-3.51-9.12-0.03-12.61l5.94-5.97c3.47-3.49,9.12-3.51,12.61-0.03
			l26.14,26.01c3.49,3.47,3.51,9.12,0.03,12.61l-5.94,5.97C1227.86,1144.61,1222.22,1144.62,1218.73,1141.15z"/>
		
			<rect x="1179.22" y="1119.14" transform="matrix(0.7847 0.6199 -0.6199 0.7847 980.2234 -488.077)" class="st18" width="26.83" height="95.46"/>
		
			<rect x="1154.25" y="1094.3" transform="matrix(0.6535 0.757 -0.757 0.6535 1269.1029 -488.1216)" class="st18" width="26.83" height="95.46"/>
	</g>
	<g>
		
			<rect x="1200.93" y="1061.93" transform="matrix(0.2008 -0.9796 0.9796 0.2008 -93.8173 2071.501)" class="st19" width="43.47" height="62.64"/>
		<polygon class="st19" points="1238.42,1063.68 1233.54,1050.84 1196.8,1066.06 1201.68,1078.91 		"/>
		<polygon class="st19" points="1225.44,1127.39 1215.86,1137.31 1187.97,1108.76 1197.55,1098.84 		"/>
	</g>
</g>
<g>
	<g>
		
			<rect x="992" y="1087.47" transform="matrix(0.6258 0.78 -0.78 0.6258 1270.4119 -374.2273)" class="st27" width="66.46" height="98.87"/>
		
			<rect x="1053.35" y="1127.24" transform="matrix(0.951 0.3093 -0.3093 0.951 410.3763 -272.2545)" class="st27" width="21.21" height="62.16"/>
		
			<rect x="1001.36" y="1062.37" transform="matrix(-0.0958 -0.9954 0.9954 -0.0958 20.3883 2205.6443)" class="st27" width="21.28" height="62.38"/>
	</g>
	<g>
		
			<rect x="1080.2" y="945.12" transform="matrix(-0.9617 -0.2741 0.2741 -0.9617 1893.207 2215.7717)" class="st13" width="42.36" height="61.04"/>
		<polygon class="st13" points="1073.81,958.16 1060.97,961.96 1073.06,998.78 1085.9,994.98 		"/>
		<polygon class="st13" points="1134.76,975.45 1143.7,985.49 1113.9,1010.49 1104.97,1000.46 		"/>
	</g>
	<g>
		<path class="st14" d="M1140.35,977.08l2.72,35.38c0.38,4.91-3.3,9.2-8.21,9.57l-7.73,0.59c-4.91,0.38-9.2-3.3-9.57-8.21
			l-2.72-35.38c-0.38-4.91,3.3-9.2,8.21-9.57l7.73-0.59C1135.68,968.49,1139.97,972.17,1140.35,977.08z"/>
		
			<rect x="1162.88" y="927.94" transform="matrix(-0.1897 -0.9818 0.9818 -0.1897 442.2769 2313.9177)" class="st14" width="26.15" height="93.03"/>
		
			<rect x="1165.51" y="962.17" transform="matrix(-8.817997e-04 -1 1 -8.817997e-04 170.9376 2188.1589)" class="st14" width="26.15" height="93.03"/>
	</g>
	<g>
		<path class="st15" d="M1072.58,1115.1l28.7,20.87c3.98,2.9,4.86,8.47,1.97,12.46l-4.56,6.27c-2.9,3.98-8.47,4.86-12.46,1.97
			l-28.7-20.87c-3.98-2.9-4.86-8.47-1.97-12.46l4.56-6.27C1063.02,1113.09,1068.59,1112.21,1072.58,1115.1z"/>
		
			<rect x="1080.59" y="1039.78" transform="matrix(-0.8705 -0.4921 0.4921 -0.8705 1511.1162 2570.1655)" class="st15" width="26.15" height="93.03"/>
		
			<rect x="1108.36" y="1059.97" transform="matrix(-0.7619 -0.6477 0.6477 -0.7619 1259.2343 2675.8545)" class="st15" width="26.15" height="93.03"/>
	</g>
	<g>
		
			<rect x="1096.62" y="993.88" transform="matrix(-0.859 0.512 -0.512 -0.859 2634.5356 1361.0466)" class="st28" width="66.46" height="98.87"/>
		
			<rect x="1092.68" y="1047.63" transform="matrix(-0.4377 0.8991 -0.8991 -0.4377 2556.0967 558.9313)" class="st28" width="21.21" height="62.16"/>
		
			<rect x="1163.96" y="1005.02" transform="matrix(0.9991 0.0427 -0.0427 0.9991 45.3484 -49.2426)" class="st28" width="21.28" height="62.38"/>
	</g>
	<g>
		
			<rect x="1027.66" y="1034.08" transform="matrix(-0.4275 -0.904 0.904 -0.4275 534.1731 2476.7061)" class="st17" width="47.24" height="70.28"/>
		
			<rect x="1020.5" y="1025.92" transform="matrix(-0.8532 -0.5217 0.5217 -0.8532 1358.3982 2478.4185)" class="st17" width="15.08" height="44.19"/>
		
			<rect x="1045.7" y="1079.2" transform="matrix(-0.138 0.9904 -0.9904 -0.138 2289.4656 210.1943)" class="st17" width="15.13" height="44.34"/>
	</g>
	<g>
		<path class="st18" d="M1041.49,1048.18l9.73-34.13c1.35-4.74,6.28-7.48,11.02-6.13l7.46,2.13c4.74,1.35,7.48,6.28,6.13,11.02
			l-9.73,34.13c-1.35,4.74-6.28,7.48-11.02,6.13l-7.46-2.12C1042.88,1057.85,1040.14,1052.92,1041.49,1048.18z"/>
		
			<rect x="994.11" y="991.77" transform="matrix(-0.1627 0.9867 -0.9867 -0.1627 2195.4766 213.4151)" class="st18" width="26.15" height="93.03"/>
		
			<rect x="1003.52" y="958.76" transform="matrix(-0.3461 0.9382 -0.9382 -0.3461 2311.554 399.3847)" class="st18" width="26.15" height="93.03"/>
	</g>
	<g>
		
			<rect x="1062.95" y="998.64" transform="matrix(0.9544 -0.2985 0.2985 0.9544 -257.7726 370.5181)" class="st19" width="42.36" height="61.04"/>
		<polygon class="st19" points="1116.78,1028.66 1125.42,1018.43 1095.11,994.28 1086.46,1004.51 		"/>
		<polygon class="st19" points="1056.33,1047.63 1043.35,1044.15 1054.54,1006.9 1067.52,1010.39 		"/>
	</g>
</g>
<g>
	<g>
		
			<rect x="679.04" y="1100.52" transform="matrix(0.9854 -0.17 0.17 0.9854 -185.3807 138.0337)" class="st29" width="68.19" height="101.45"/>
		
			<rect x="740.72" y="1095.21" transform="matrix(0.7309 -0.6825 0.6825 0.7309 -566.9608 816.2023)" class="st29" width="21.76" height="63.79"/>
		
			<rect x="656.73" y="1109.59" transform="matrix(-0.9174 -0.398 0.398 -0.9174 825.7686 2454.6006)" class="st29" width="21.84" height="64.01"/>
	</g>
	<g>
		
			<rect x="584.43" y="971.45" transform="matrix(-0.7053 0.7089 -0.7089 -0.7053 1744.5555 1280.3524)" class="st13" width="43.47" height="62.64"/>
		<polygon class="st13" points="576.77,1018.84 573.81,1032.26 612.88,1039.69 615.84,1026.27 		"/>
		<polygon class="st13" points="622.58,972.71 636.03,969.67 643.68,1008.84 630.23,1011.88 		"/>
	</g>
	<g>
		<path class="st14" d="M626.6,968.4l33.54,15.33c4.48,2.05,6.45,7.34,4.4,11.82l-3.5,7.66c-2.05,4.48-7.34,6.45-11.82,4.4
			l-33.54-15.33c-4.48-2.05-6.45-7.34-4.4-11.82l3.5-7.66C616.83,968.32,622.12,966.35,626.6,968.4z"/>
		
			<rect x="628.73" y="887.49" transform="matrix(-0.951 -0.3093 0.3093 -0.951 963.5826 2023.1831)" class="st14" width="26.83" height="95.46"/>
		
			<rect x="660.77" y="902.13" transform="matrix(-0.8755 -0.4833 0.4833 -0.8755 805.3632 2107.2512)" class="st14" width="26.83" height="95.46"/>
	</g>
	<g>
		<path class="st15" d="M716.87,1098l33.42-15.6c4.46-2.08,9.77-0.15,11.85,4.31l3.56,7.63c2.08,4.46,0.15,9.77-4.31,11.85
			l-33.42,15.6c-4.46,2.08-9.77,0.15-11.85-4.31l-3.56-7.63C710.48,1105.39,712.41,1100.08,716.87,1098z"/>
		
			<rect x="688.27" y="1016.92" transform="matrix(-0.852 0.5235 -0.5235 -0.852 1856.9049 1604.4064)" class="st15" width="26.83" height="95.46"/>
		
			<rect x="720.19" y="1002.02" transform="matrix(-0.9355 0.3532 -0.3532 -0.9355 1790.7128 1772.7294)" class="st15" width="26.83" height="95.46"/>
	</g>
	<g>
		
			<rect x="646.97" y="960.09" transform="matrix(0.0322 0.9995 -0.9995 0.0322 1669.4204 297.55)" class="st30" width="68.19" height="101.45"/>
		
			<rect x="688.78" y="1020.36" transform="matrix(0.5749 0.8182 -0.8182 0.5749 1158.4436 -125.1461)" class="st30" width="21.76" height="63.79"/>
		
			<rect x="685.99" y="935.11" transform="matrix(0.521 -0.8536 0.8536 0.521 -491.6612 1058.1082)" class="st30" width="21.84" height="64.01"/>
	</g>
	<g>
		
			<rect x="641.07" y="1058.18" transform="matrix(-0.998 -0.0635 0.0635 -0.998 1259.8258 2228.4839)" class="st17" width="48.47" height="72.12"/>
		
			<rect x="626.99" y="1081.9" transform="matrix(-0.8694 0.494 -0.494 -0.8694 1732.274 1751.3612)" class="st17" width="15.47" height="45.34"/>
		
			<rect x="687.4" y="1085.67" transform="matrix(0.7999 0.6002 -0.6002 0.7999 804.3895 -195.3845)" class="st17" width="15.52" height="45.5"/>
	</g>
	<g>
		<path class="st18" d="M641.72,1092.74l-26.14-26.01c-3.49-3.47-3.51-9.12-0.03-12.61l5.94-5.97c3.47-3.49,9.12-3.51,12.61-0.03
			l26.14,26.01c3.49,3.47,3.51,9.12,0.03,12.61l-5.94,5.97C650.85,1096.2,645.21,1096.22,641.72,1092.74z"/>
		
			<rect x="602.21" y="1070.74" transform="matrix(0.7847 0.6199 -0.6199 0.7847 825.9561 -140.7913)" class="st18" width="26.83" height="95.46"/>
		
			<rect x="577.24" y="1045.89" transform="matrix(0.6535 0.757 -0.757 0.6535 1032.5078 -68.1251)" class="st18" width="26.83" height="95.46"/>
	</g>
	<g>
		
			<rect x="623.92" y="1013.52" transform="matrix(0.2008 -0.9796 0.9796 0.2008 -507.5488 1467.5565)" class="st19" width="43.47" height="62.64"/>
		<polygon class="st19" points="661.42,1015.28 656.53,1002.43 619.79,1017.66 624.67,1030.5 		"/>
		<polygon class="st19" points="648.43,1078.98 638.85,1088.9 610.96,1060.35 620.54,1050.43 		"/>
	</g>
</g>
<g>
	<g>
		
			<rect x="1292.98" y="584.28" transform="matrix(-0.5486 -0.8361 0.8361 -0.5486 1521.6129 2065.9065)" class="st24" width="51" height="75.87"/>
		
			<rect x="1282.31" y="579.17" transform="matrix(-0.9172 -0.3985 0.3985 -0.9172 2233.7485 1670.2968)" class="st24" width="16.27" height="47.7"/>
		
			<rect x="1317.24" y="632.35" transform="matrix(4.879441e-04 1 -1 4.879441e-04 1981.0427 -669.4388)" class="st24" width="16.33" height="47.87"/>
	</g>
	<g>
		
			<rect x="1263.36" y="675.61" transform="matrix(0.9312 0.3644 -0.3644 0.9312 342.7695 -418.2787)" class="st13" width="32.51" height="46.84"/>
		<polygon class="st13" points="1299.4,714.4 1309.49,712.44 1302.94,683.42 1292.85,685.39 		"/>
		<polygon class="st13" points="1254.1,696.73 1248.01,688.41 1272.6,671.49 1278.69,679.81 		"/>
	</g>
	<g>
		<path class="st14" d="M1216.68,737.31l0.43-23.08c0.09-4.92,4.16-8.84,9.08-8.75l1.8,0.03c4.92,0.09,8.84,4.16,8.75,9.08
			l-0.43,23.08c-0.09,4.92-4.16,8.84-9.08,8.75l-1.8-0.03C1220.5,746.31,1216.59,742.24,1216.68,737.31z"/>
		
			<rect x="1179.22" y="703.09" transform="matrix(0.0953 0.9954 -0.9954 0.0953 1811.3556 -515.4448)" class="st14" width="20.06" height="71.39"/>
		
			<rect x="1179.71" y="676.75" transform="matrix(-0.0944 0.9955 -0.9955 -0.0944 2011.3306 -404.7191)" class="st14" width="20.06" height="71.39"/>
	</g>
	<g>
		<path class="st15" d="M1276.95,637.54l-17.29-15.29c-3.69-3.26-4.03-8.9-0.77-12.59l1.19-1.35c3.26-3.69,8.9-4.03,12.59-0.77
			l17.29,15.29c3.69,3.26,4.03,8.9,0.77,12.59l-1.19,1.35C1286.27,640.45,1280.64,640.8,1276.95,637.54z"/>
		
			<rect x="1250.25" y="623.68" transform="matrix(0.8197 0.5728 -0.5728 0.8197 604.9977 -603.0399)" class="st15" width="20.06" height="71.39"/>
		
			<rect x="1230.52" y="606.23" transform="matrix(0.6967 0.7173 -0.7173 0.6967 836.6763 -695.2087)" class="st15" width="20.06" height="71.39"/>
	</g>
	<g>
		
			<rect x="1204.01" y="651.63" transform="matrix(0.9039 -0.4278 0.4278 0.9039 -176.8077 592.272)" class="st25" width="51" height="75.87"/>
		
			<rect x="1244.25" y="640.61" transform="matrix(0.5214 -0.8533 0.8533 0.5214 32.3895 1386.674)" class="st25" width="16.27" height="47.7"/>
		
			<rect x="1186.63" y="667.78" transform="matrix(-0.9905 -0.1377 0.1377 -0.9905 2282.9399 1541.4072)" class="st25" width="16.33" height="47.87"/>
	</g>
	<g>
		
			<rect x="1273.29" y="648.55" transform="matrix(0.3395 0.9406 -0.9406 0.3395 1488.4415 -768.5248)" class="st17" width="36.25" height="53.93"/>
		
			<rect x="1301.84" y="676.46" transform="matrix(0.7996 0.6006 -0.6006 0.7996 678.5413 -646.3459)" class="st17" width="11.57" height="33.91"/>
		
			<rect x="1286.44" y="633.8" transform="matrix(0.2318 -0.9728 0.9728 0.2318 359.6548 1757.0388)" class="st17" width="11.61" height="34.03"/>
	</g>
	<g>
		<path class="st18" d="M1292.24,692.97l-8.41,21.5c-1.79,4.59-6.97,6.85-11.55,5.05l-1.68-0.66c-4.59-1.79-6.85-6.97-5.05-11.55
			l8.41-21.5c1.79-4.59,6.97-6.85,11.55-5.05l1.68,0.66C1291.77,683.21,1294.03,688.38,1292.24,692.97z"/>
		
			<rect x="1308.44" y="665.41" transform="matrix(0.2559 -0.9667 0.9667 0.2559 303.2723 1796.2195)" class="st18" width="20.06" height="71.39"/>
		
			<rect x="1298.84" y="689.94" transform="matrix(0.4339 -0.901 0.901 0.4339 87.1996 1590.0448)" class="st18" width="20.06" height="71.39"/>
	</g>
	<g>
		
			<rect x="1247.14" y="680.29" transform="matrix(-0.9785 0.2062 -0.2062 -0.9785 2644.7334 1131.8038)" class="st19" width="32.51" height="46.84"/>
		<polygon class="st19" points="1238.42,701.71 1231.06,708.89 1252.45,729.56 1259.81,722.38 		"/>
		<polygon class="st19" points="1285.98,691.64 1295.64,695.25 1284.37,722.89 1274.71,719.27 		"/>
	</g>
</g>
<g>
	<g>
		
			<rect x="1199.78" y="847.01" transform="matrix(0.6108 0.7918 -0.7918 0.6108 1209.4005 -630.0549)" class="st22" width="91.58" height="136.25"/>
		
			<rect x="1283.77" y="902.83" transform="matrix(0.9449 0.3274 -0.3274 0.9449 381.1215 -372.9357)" class="st22" width="29.23" height="85.67"/>
		
			<rect x="1213.83" y="812.09" transform="matrix(-0.0767 -0.9971 0.9971 -0.0767 470.2215 2145.5681)" class="st22" width="29.33" height="85.96"/>
	</g>
	<g>
		
			<rect x="1275.44" y="730.21" transform="matrix(-0.9563 -0.2924 0.2924 -0.9563 2326.4595 1892.2303)" class="st13" width="58.38" height="84.12"/>
		<polygon class="st13" points="1267.1,747.45 1249.31,752.35 1265,803.41 1282.8,798.5 		"/>
		<polygon class="st13" points="1350.63,772.89 1362.67,786.95 1320.97,820.61 1308.92,806.55 		"/>
	</g>
	<g>
		<path class="st14" d="M1411.68,688.01l3.2,55.55c0.28,4.92-3.47,9.13-8.39,9.42l-17.4,1c-4.92,0.28-9.13-3.47-9.42-8.39
			l-3.2-55.55c-0.28-4.92,3.47-9.13,8.39-9.42l17.4-1C1407.18,679.34,1411.39,683.09,1411.68,688.01z"/>
		
			<rect x="1442.98" y="624.6" transform="matrix(-0.1709 -0.9853 0.9853 -0.1709 1032.1414 2245.9128)" class="st14" width="36.03" height="128.21"/>
		
			<rect x="1445.7" y="671.83" transform="matrix(0.0182 -0.9998 0.9998 0.0182 701.2446 2186.0005)" class="st14" width="36.03" height="128.21"/>
	</g>
	<g>
		<path class="st15" d="M1312.17,877.73l44.37,33.58c3.93,2.97,4.7,8.57,1.73,12.49l-10.52,13.9c-2.97,3.93-8.57,4.7-12.49,1.73
			l-44.37-33.58c-3.93-2.97-4.7-8.57-1.73-12.49l10.52-13.9C1302.65,875.53,1308.25,874.76,1312.17,877.73z"/>
		
			<rect x="1326.66" y="776.52" transform="matrix(-0.861 -0.5087 0.5087 -0.861 2074.7827 2248.3718)" class="st15" width="36.03" height="128.21"/>
		
			<rect x="1364.38" y="805.07" transform="matrix(-0.7494 -0.6621 0.6621 -0.7494 1842.8987 2435.8376)" class="st15" width="36.03" height="128.21"/>
	</g>
	<g>
		
			<rect x="1349.87" y="714.23" transform="matrix(-0.8686 0.4955 -0.4955 -0.8686 2995.5918 770.3962)" class="st23" width="91.58" height="136.25"/>
		
			<rect x="1343.51" y="787.6" transform="matrix(-0.4548 0.8906 -0.8906 -0.4548 2715.396 -1.385)" class="st23" width="29.23" height="85.67"/>
		
			<rect x="1442.84" y="730.76" transform="matrix(0.9981 0.0618 -0.0618 0.9981 50.6063 -88.5997)" class="st23" width="29.33" height="85.96"/>
	</g>
	<g>
		
			<rect x="1254.17" y="767.56" transform="matrix(-0.4102 -0.912 0.912 -0.4102 1070.3571 2324.1865)" class="st17" width="65.1" height="96.85"/>
		
			<rect x="1244.87" y="755.71" transform="matrix(-0.843 -0.5379 0.5379 -0.843 1890.6339 2124.0667)" class="st17" width="20.77" height="60.89"/>
		
			<rect x="1278.19" y="829.78" transform="matrix(-0.1569 0.9876 -0.9876 -0.1569 2340.489 -277.3235)" class="st17" width="20.85" height="61.11"/>
	</g>
	<g>
		<path class="st18" d="M1280.79,791.63l16.27-53.22c1.44-4.71,6.43-7.36,11.14-5.92l16.67,5.1c4.71,1.44,7.36,6.43,5.92,11.14
			l-16.27,53.22c-1.44,4.71-6.43,7.36-11.14,5.92l-16.67-5.1C1282,801.33,1279.35,796.34,1280.79,791.63z"/>
		
			<rect x="1216.75" y="709.77" transform="matrix(-0.1815 0.9834 -0.9834 -0.1815 2219.8828 -299.9442)" class="st18" width="36.03" height="128.21"/>
		
			<rect x="1230.58" y="664.53" transform="matrix(-0.3639 0.9314 -0.9314 -0.3639 2381.6643 -169.1853)" class="st18" width="36.03" height="128.21"/>
	</g>
	<g>
		
			<rect x="1303.85" y="719.6" transform="matrix(0.9599 -0.2802 0.2802 0.9599 -160.0201 404.0376)" class="st19" width="58.38" height="84.12"/>
		<polygon class="st19" points="1378.04,761.82 1390.22,747.96 1349.09,713.89 1336.9,727.75 		"/>
		<polygon class="st19" points="1294.25,786.38 1276.46,781.23 1292.86,730.2 1310.65,735.35 		"/>
	</g>
</g>
<g class="st31">
	<g>
		
			<rect x="1446.63" y="805.05" transform="matrix(0.0296 -0.9996 0.9996 0.0296 577.4951 2329.2822)" class="st12" width="83.57" height="124.32"/>
		
			<rect x="1455.48" y="776.04" transform="matrix(-0.5232 -0.8522 0.8522 -0.5232 1542.6479 2493.3237)" class="st12" width="26.67" height="78.17"/>
		
			<rect x="1452.34" y="880.25" transform="matrix(-0.5728 0.8197 -0.8197 -0.5728 3058.9263 244.6091)" class="st12" width="26.76" height="78.44"/>
	</g>
	<g>
		
			<rect x="1337.46" y="895.49" transform="matrix(0.5542 0.8324 -0.8324 0.5542 1385.4338 -719.1288)" class="st13" width="53.27" height="76.76"/>
		<polygon class="st13" points="1376.22,973.09 1391.61,979.92 1410.07,934.81 1394.67,927.98 		"/>
		<polygon class="st13" points="1331.99,906.82 1331.62,889.93 1380.53,890.3 1380.9,907.19 		"/>
	</g>
	<g>
		<path class="st14" d="M1240.27,930.77l28.96-39.79c2.9-3.98,8.48-4.86,12.46-1.96l11.6,8.44c3.98,2.9,4.86,8.48,1.96,12.46
			l-28.96,39.79c-2.9,3.98-8.48,4.86-12.46,1.96l-11.6-8.44C1238.25,940.33,1237.37,934.75,1240.27,930.77z"/>
		
			<rect x="1188.97" y="843.89" transform="matrix(-0.4925 0.8703 -0.8703 -0.4925 2584.3936 297.6581)" class="st14" width="32.88" height="116.98"/>
		
			<rect x="1214.37" y="808.98" transform="matrix(-0.648 0.7617 -0.7617 -0.648 2689.054 492.079)" class="st14" width="32.88" height="116.98"/>
	</g>
	<g>
		<path class="st15" d="M1419.59,854.32l-11.52-47.85c-1.15-4.79,1.79-9.6,6.58-10.76l13.94-3.36c4.79-1.15,9.6,1.79,10.76,6.58
			l11.52,47.85c1.15,4.79-1.79,9.6-6.58,10.76l-13.94,3.36C1425.56,862.06,1420.75,859.11,1419.59,854.32z"/>
		
			<rect x="1358.94" y="803.97" transform="matrix(0.3433 0.9392 -0.9392 0.3433 1713.1796 -725.425)" class="st15" width="32.88" height="116.98"/>
		
			<rect x="1348.83" y="762" transform="matrix(0.1598 0.9871 -0.9871 0.1598 1957.0382 -658.3527)" class="st15" width="32.88" height="116.98"/>
	</g>
	<g>
		
			<rect x="1263.91" y="811.93" transform="matrix(0.9859 0.1675 -0.1675 0.9859 164.8481 -206.345)" class="st16" width="83.57" height="124.32"/>
		
			<rect x="1346.66" y="822.79" transform="matrix(0.9163 -0.4004 0.4004 0.9163 -231.3173 616.6358)" class="st16" width="26.67" height="78.17"/>
		
			<rect x="1243.69" y="805.17" transform="matrix(-0.7327 -0.6806 0.6806 -0.7327 1603.4677 2318.575)" class="st16" width="26.76" height="78.44"/>
	</g>
	<g>
		
			<rect x="1372.32" y="869.19" transform="matrix(-0.261 0.9654 -0.9654 -0.261 2649.5999 -201.7203)" class="st17" width="59.4" height="88.37"/>
		
			<rect x="1397.49" y="924.84" transform="matrix(0.311 0.9504 -0.9504 0.311 1874.8181 -680.8306)" class="st17" width="18.96" height="55.56"/>
		
			<rect x="1416.82" y="853.11" transform="matrix(0.7475 -0.6643 0.6643 0.7475 -225.041 1169.9932)" class="st17" width="19.02" height="55.76"/>
	</g>
	<g>
		<path class="st18" d="M1391.47,934.42l-40.96,27.27c-4.1,2.73-9.64,1.62-12.36-2.48l-7.95-11.94c-2.73-4.1-1.62-9.64,2.48-12.36
			l40.97-27.27c4.1-2.73,9.64-1.62,12.36,2.48l7.95,11.94C1396.68,926.16,1395.57,931.69,1391.47,934.42z"/>
		
			<rect x="1397.88" y="914.65" transform="matrix(0.7638 -0.6455 0.6455 0.7638 -294.0521 1142.7559)" class="st18" width="32.88" height="116.98"/>
		
			<rect x="1361.95" y="938.57" transform="matrix(0.8719 -0.4896 0.4896 0.8719 -311.6599 802.5686)" class="st18" width="32.88" height="116.98"/>
	</g>
	<g>
		
			<rect x="1311.27" y="886.54" transform="matrix(-0.92 -0.3919 0.3919 -0.92 2206.3591 2300.1421)" class="st19" width="53.27" height="76.76"/>
		<polygon class="st19" points="1306.25,898.77 1289.63,901.51 1298.95,949.34 1315.56,946.61 		"/>
		<polygon class="st19" points="1379.58,929.91 1389.16,943.84 1348.07,970.36 1338.49,956.44 		"/>
	</g>
</g>
<g>
	<g>
		
			<rect x="557.23" y="1037.7" transform="matrix(0.1228 -0.9924 0.9924 0.1228 -562.8704 1547.1128)" class="st27" width="72.93" height="108.5"/>
		
			<rect x="569.27" y="1010.98" transform="matrix(-0.4414 -0.8973 0.8973 -0.4414 -100.4427 2027.6501)" class="st27" width="23.27" height="68.22"/>
		
			<rect x="558.04" y="1101.28" transform="matrix(-0.6467 0.7627 -0.7627 -0.6467 1804.2477 1435.3483)" class="st27" width="23.35" height="68.45"/>
	</g>
	<g>
		
			<rect x="385.33" y="1121.94" transform="matrix(0.4741 0.8805 -0.8805 0.4741 1232.1681 247.8801)" class="st13" width="46.49" height="66.99"/>
		<polygon class="st13" points="415.92,1190.5 428.74,1197.69 448.45,1160 435.63,1152.81 		"/>
		<polygon class="st13" points="382.89,1129.32 383.94,1114.61 426.41,1118.91 425.35,1133.62 		"/>
	</g>
	<g>
		<path class="st14" d="M379.31,1124.33l26.9-30.51c3.26-3.69,8.89-4.05,12.59-0.79l7.69,6.78c3.69,3.26,4.05,8.89,0.79,12.59
			l-26.9,30.51c-3.26,3.69-8.89,4.05-12.59,0.79l-7.69-6.78C376.41,1133.66,376.06,1128.03,379.31,1124.33z"/>
		
			<rect x="336.23" y="1046.63" transform="matrix(-0.5715 0.8206 -0.8206 -0.5715 1451.6854 1437.3351)" class="st14" width="28.69" height="102.09"/>
		
			<rect x="361.15" y="1018.37" transform="matrix(-0.7162 0.6979 -0.6979 -0.7162 1390.7686 1573.2716)" class="st14" width="28.69" height="102.09"/>
	</g>
	<g>
		<path class="st15" d="M540.44,1072.24l-5.79-40.27c-0.7-4.87,2.68-9.39,7.56-10.1l10.14-1.46c4.87-0.7,9.39,2.68,10.1,7.56
			l5.79,40.27c0.7,4.87-2.68,9.39-7.56,10.1l-10.14,1.46C545.66,1080.5,541.14,1077.11,540.44,1072.24z"/>
		
			<rect x="487.17" y="1025.79" transform="matrix(0.2542 0.9671 -0.9671 0.2542 1415.4778 318.0446)" class="st15" width="28.69" height="102.09"/>
		
			<rect x="481.81" y="988.5" transform="matrix(0.067 0.9978 -0.9978 0.067 1500.1147 474.8477)" class="st15" width="28.69" height="102.09"/>
	</g>
	<g>
		
			<rect x="403.56" y="1027.02" transform="matrix(0.9659 0.2587 -0.2587 0.9659 294.7568 -77.0317)" class="st28" width="72.93" height="108.5"/>
		
			<rect x="476.56" y="1040.96" transform="matrix(0.9497 -0.3132 0.3132 0.9497 -312.1051 206.9522)" class="st28" width="23.27" height="68.22"/>
		
			<rect x="388.51" y="1017.27" transform="matrix(-0.666 -0.7459 0.7459 -0.666 -117.6414 2050.3201)" class="st28" width="23.35" height="68.45"/>
	</g>
	<g>
		
			<rect x="494.6" y="1084.68" transform="matrix(-0.3499 0.9368 -0.9368 -0.3499 1754.8821 1028.6216)" class="st17" width="51.84" height="77.12"/>
		
			<rect x="513.36" y="1133.5" transform="matrix(0.2209 0.9753 -0.9753 0.2209 1535.509 393.2093)" class="st17" width="16.54" height="48.49"/>
		
			<rect x="535.99" y="1072.75" transform="matrix(0.8062 -0.5917 0.5917 0.8062 -543.6088 534.6625)" class="st17" width="16.6" height="48.66"/>
	</g>
	<g>
		<path class="st18" d="M512.23,1146.63l-35.82,19.29c-4.34,2.34-9.74,0.71-12.08-3.62l-4.86-9.02c-2.34-4.34-0.71-9.74,3.62-12.08
			l35.82-19.29c4.34-2.33,9.74-0.71,12.08,3.62l4.86,9.02C518.19,1138.88,516.56,1144.29,512.23,1146.63z"/>
		
			<rect x="515.58" y="1130.55" transform="matrix(0.8207 -0.5714 0.5714 0.8207 -580.1173 514.6739)" class="st18" width="28.69" height="102.09"/>
		
			<rect x="482.42" y="1148.41" transform="matrix(0.9138 -0.4061 0.4061 0.9138 -444.3181 305.1216)" class="st18" width="28.69" height="102.09"/>
	</g>
	<g>
		
			<rect x="440.63" y="1094.55" transform="matrix(-0.8794 -0.476 0.476 -0.8794 334.8727 2340.9053)" class="st19" width="46.49" height="66.99"/>
		<polygon class="st19" points="438.5,1102.76 423.84,1103.78 428.03,1146.1 442.69,1145.08 		"/>
		<polygon class="st19" points="499.68,1135.79 506.86,1148.66 469,1168.36 461.82,1155.48 		"/>
	</g>
</g>
<g class="st32">
	<g>
		
			<rect x="542.84" y="1158.9" transform="matrix(0.2636 0.9646 -0.9646 0.2636 1617.052 335.7203)" class="st22" width="91.58" height="136.25"/>
		
			<rect x="611.24" y="1232.51" transform="matrix(0.7493 0.6622 -0.6622 0.7493 1001.439 -94.7399)" class="st22" width="29.23" height="85.67"/>
		
			<rect x="581.03" y="1122" transform="matrix(0.3083 -0.9513 0.9513 0.3083 -696.1991 1372.4474)" class="st22" width="29.33" height="85.96"/>
	</g>
	<g>
		
			<rect x="668.41" y="1075.3" transform="matrix(-0.7732 -0.6342 0.6342 -0.7732 528.3445 2423.6843)" class="st13" width="58.38" height="84.12"/>
		<polygon class="st13" points="672.33,1080.13 654.01,1077.9 649.11,1131.08 667.43,1133.31 		"/>
		<polygon class="st13" points="739.9,1135.43 745.69,1153.02 694.32,1168.29 688.52,1150.7 		"/>
	</g>
	<g>
		<path class="st14" d="M828.65,1080.16l-18.17,52.59c-1.61,4.65-6.69,7.12-11.34,5.52l-16.47-5.69c-4.65-1.61-7.12-6.69-5.52-11.34
			l18.17-52.59c1.61-4.65,6.69-7.12,11.34-5.52l16.47,5.69C827.79,1070.43,830.26,1075.51,828.65,1080.16z"/>
		
			<rect x="855.99" y="1035.46" transform="matrix(0.2168 -0.9762 0.9762 0.2168 -388.8669 1714.4449)" class="st14" width="36.03" height="128.21"/>
		
			<rect x="840.53" y="1080.17" transform="matrix(0.3972 -0.9177 0.9177 0.3972 -532.6082 1477.6768)" class="st14" width="36.03" height="128.21"/>
	</g>
	<g>
		<path class="st15" d="M664.45,1217.76l28.26,47.94c2.5,4.24,1.09,9.71-3.15,12.21l-15.01,8.85c-4.24,2.5-9.71,1.09-12.21-3.15
			l-28.26-47.94c-2.5-4.24-1.09-9.71,3.15-12.21l15.01-8.85C656.49,1212.11,661.95,1213.52,664.45,1217.76z"/>
		
			<rect x="690.61" y="1131.71" transform="matrix(-0.6027 -0.798 0.798 -0.6027 181.5236 2482.0012)" class="st15" width="36.03" height="128.21"/>
		
			<rect x="714.64" y="1172.46" transform="matrix(-0.4412 -0.8974 0.8974 -0.4412 -53.8234 2439.6165)" class="st15" width="36.03" height="128.21"/>
	</g>
	<g>
		
			<rect x="732.15" y="1093.19" transform="matrix(-0.9918 0.1278 -0.1278 -0.9918 1697.912 2213.7004)" class="st23" width="91.58" height="136.25"/>
		
			<rect x="710.33" y="1148.67" transform="matrix(-0.7594 0.6506 -0.6506 -0.7594 2050.6655 1624.7126)" class="st23" width="29.23" height="85.67"/>
		
			<rect x="823.75" y="1133.9" transform="matrix(0.8995 0.4369 -0.4369 0.8995 598.3564 -248.027)" class="st23" width="29.33" height="85.96"/>
	</g>
	<g>
		
			<rect x="631.86" y="1102.55" transform="matrix(-0.0324 -0.9995 0.9995 -0.0324 -464.4315 1852.3395)" class="st17" width="65.1" height="96.85"/>
		
			<rect x="636.26" y="1080.97" transform="matrix(-0.575 -0.8181 0.8181 -0.575 109.2115 2279.5728)" class="st17" width="20.77" height="60.89"/>
		
			<rect x="638.86" y="1162.16" transform="matrix(-0.5208 0.8537 -0.8537 -0.5208 2005.6234 1259.6313)" class="st17" width="20.85" height="61.11"/>
	</g>
	<g>
		<path class="st18" d="M668.18,1126.2l35.29-43.02c3.12-3.81,8.74-4.36,12.55-1.24l13.48,11.05c3.81,3.12,4.36,8.74,1.24,12.55
			l-35.29,43.02c-3.12,3.81-8.74,4.36-12.55,1.24l-13.48-11.05C665.62,1135.63,665.06,1130.01,668.18,1126.2z"/>
		
			<rect x="614.36" y="1028.17" transform="matrix(-0.5419 0.8404 -0.8404 -0.5419 1893.0537 1152.7583)" class="st18" width="36.03" height="128.21"/>
		
			<rect x="644.36" y="991.59" transform="matrix(-0.6909 0.723 -0.723 -0.6909 1883.2371 1306.1947)" class="st18" width="36.03" height="128.21"/>
	</g>
	<g>
		
			<rect x="698.72" y="1076.3" transform="matrix(0.9944 0.106 -0.106 0.9944 122.7016 -70.8854)" class="st19" width="58.38" height="84.12"/>
		<polygon class="st19" points="769.46,1135.62 786,1127.44 760.92,1080.28 744.38,1088.46 		"/>
		<polygon class="st19" points="682.63,1126.46 668.13,1114.93 702.71,1073.98 717.21,1085.51 		"/>
	</g>
</g>
<g class="st33">
	<g>
		
			<rect x="907.71" y="1111.26" transform="matrix(0.0845 0.9964 -0.9964 0.0845 2031.9011 127.1606)" class="st24" width="78.09" height="116.17"/>
		
			<rect x="958.04" y="1179.1" transform="matrix(0.6169 0.787 -0.787 0.6169 1328.4634 -298.1351)" class="st24" width="24.92" height="73.04"/>
		
			<rect x="949.75" y="1081.77" transform="matrix(0.4756 -0.8797 0.8797 0.4756 -479.2135 1432.9945)" class="st24" width="25.01" height="73.3"/>
	</g>
	<g>
		
			<rect x="1030.18" y="1058.37" transform="matrix(-0.6455 -0.7638 0.7638 -0.6455 900.3351 2606.3635)" class="st13" width="49.78" height="71.72"/>
		<polygon class="st13" points="1039.63,1059.11 1024.61,1054.4 1012.28,1098.25 1027.3,1102.95 		"/>
		<polygon class="st13" points="1087.74,1115.92 1089.88,1131.56 1044.44,1136.43 1042.3,1120.78 		"/>
	</g>
	<g>
		<path class="st14" d="M1170.05,1084.42l-22.07,39.01c-2.43,4.29-7.87,5.8-12.15,3.37l-10.65-6.02c-4.29-2.43-5.8-7.87-3.37-12.15
			l22.07-39.01c2.43-4.29,7.87-5.8,12.15-3.37l10.65,6.02C1170.97,1074.7,1172.47,1080.14,1170.05,1084.42z"/>
		
			<rect x="1190.37" y="1051.9" transform="matrix(0.39 -0.9208 0.9208 0.39 -283.468 1785.1885)" class="st14" width="30.72" height="109.31"/>
		
			<rect x="1170.5" y="1087.01" transform="matrix(0.5569 -0.8306 0.8306 0.5569 -422.7869 1490.8184)" class="st14" width="30.72" height="109.31"/>
	</g>
	<g>
		<path class="st15" d="M1012.21,1174.53l15.39,42.09c1.69,4.63-0.69,9.75-5.31,11.44l-11.49,4.2c-4.63,1.69-9.75-0.69-11.44-5.31
			l-15.39-42.09c-1.69-4.63,0.69-9.75,5.31-11.44l11.49-4.2C1005.4,1167.53,1010.52,1169.91,1012.21,1174.53z"/>
		
			<rect x="1036.83" y="1107.06" transform="matrix(-0.4482 -0.8939 0.8939 -0.4482 485.2366 2622.9702)" class="st15" width="30.72" height="109.31"/>
		
			<rect x="1050.68" y="1144.95" transform="matrix(-0.2713 -0.9625 0.9625 -0.2713 200.6405 2551.1091)" class="st15" width="30.72" height="109.31"/>
	</g>
	<g>
		
			<rect x="1076.6" y="1085.41" transform="matrix(-0.9985 -0.054 0.054 -0.9985 2167.8879 2345.5938)" class="st25" width="78.09" height="116.17"/>
		
			<rect x="1054.08" y="1124.1" transform="matrix(-0.8647 0.5022 -0.5022 -0.8647 2571.7107 1628.5881)" class="st25" width="24.92" height="73.04"/>
		
			<rect x="1151.44" y="1129.25" transform="matrix(0.8055 0.5926 -0.5926 0.8055 917.29 -462.9833)" class="st25" width="25.01" height="73.3"/>
	</g>
	<g>
		
			<rect x="994.28" y="1076" transform="matrix(0.1492 -0.9888 0.9888 0.1492 -235.2423 1961.181)" class="st17" width="55.51" height="82.58"/>
		
			<rect x="1004.4" y="1055.42" transform="matrix(-0.4173 -0.9088 0.9088 -0.4173 453.3571 2453.4541)" class="st17" width="17.71" height="51.92"/>
		
			<rect x="994.02" y="1123.9" transform="matrix(-0.6669 0.7452 -0.7452 -0.6669 2528.6335 1169.4696)" class="st17" width="17.77" height="52.1"/>
	</g>
	<g>
		<path class="st18" d="M1030.03,1096.25l34.23-28.93c3.76-3.18,9.39-2.71,12.57,1.05l7.9,9.34c3.18,3.76,2.71,9.39-1.05,12.57
			l-34.23,28.93c-3.76,3.18-9.39,2.71-12.57-1.05l-7.9-9.34C1025.8,1105.06,1026.27,1099.43,1030.03,1096.25z"/>
		
			<rect x="988.89" y="1008.46" transform="matrix(-0.6852 0.7283 -0.7283 -0.6852 2466.686 1060.1874)" class="st18" width="30.72" height="109.31"/>
		
			<rect x="1019.69" y="982.43" transform="matrix(-0.8104 0.5858 -0.5858 -0.8104 2481.4512 1271.2191)" class="st18" width="30.72" height="109.31"/>
	</g>
	<g>
		
			<rect x="1055.44" y="1063.89" transform="matrix(0.9587 0.2844 -0.2844 0.9587 357.4421 -261.8633)" class="st19" width="49.78" height="71.72"/>
		<polygon class="st19" points="1112.5,1120.65 1127.63,1116.34 1113.89,1072.92 1098.75,1077.23 		"/>
		<polygon class="st19" points="1041.1,1099.55 1030.73,1087.64 1066.05,1058.64 1076.42,1070.55 		"/>
	</g>
</g>
<g>
	
		<rect x="1376.31" y="1107.86" transform="matrix(0.9077 0.4196 -0.4196 0.9077 624.6436 -488.1603)" class="st22" width="91.58" height="136.25"/>
	
		<rect x="1468.43" y="1135.8" transform="matrix(0.9892 -0.1467 0.1467 0.9892 -156.8833 230.3542)" class="st22" width="29.23" height="85.67"/>
	
		<rect x="1364.52" y="1087.64" transform="matrix(-0.5291 -0.8485 0.8485 -0.5291 1149.5959 2899.1724)" class="st22" width="29.33" height="85.96"/>
</g>
<g>
	
		<rect x="1379.21" y="979.93" transform="matrix(-0.9831 0.183 -0.183 -0.9831 2980.0457 1768.964)" class="st13" width="58.38" height="84.12"/>
	<polygon class="st13" points="1363.64,1017.35 1350.13,1029.92 1387.66,1067.93 1401.17,1055.35 	"/>
	<polygon class="st13" points="1449.46,1001.27 1466.65,1008.17 1445.24,1057.31 1428.05,1050.41 	"/>
</g>
<g>
	<path class="st14" d="M1464.34,897.79l28.53,47.78c2.52,4.23,1.14,9.7-3.08,12.23l-14.96,8.94c-4.23,2.52-9.7,1.14-12.23-3.08
		l-28.53-47.78c-2.52-4.23-1.14-9.7,3.08-12.23l14.96-8.94C1456.34,892.18,1461.82,893.56,1464.34,897.79z"/>
	
		<rect x="1490.38" y="811.49" transform="matrix(-0.6072 -0.7946 0.7946 -0.6072 1728.585 2605.7383)" class="st14" width="36.03" height="128.21"/>
	
		<rect x="1514.63" y="852.1" transform="matrix(-0.4462 -0.8949 0.8949 -0.4462 1396.6321 2696.6389)" class="st14" width="36.03" height="128.21"/>
</g>
<g>
	<path class="st15" d="M1463.86,1112.02l54.87,9.26c4.86,0.82,8.13,5.42,7.31,10.28l-2.9,17.19c-0.82,4.86-5.42,8.13-10.28,7.31
		l-54.87-9.26c-4.86-0.82-8.13-5.42-7.31-10.28l2.9-17.19C1454.4,1114.47,1459,1111.2,1463.86,1112.02z"/>
	
		<rect x="1457.5" y="999.98" transform="matrix(-0.9986 -0.0529 0.0529 -0.9986 2892.729 2204.6663)" class="st15" width="36.03" height="128.21"/>
	
		<rect x="1504.15" y="1007.85" transform="matrix(-0.9707 -0.2405 0.2405 -0.9707 2741.8826 2478.4937)" class="st15" width="36.03" height="128.21"/>
</g>
<g>
	
		<rect x="1447.98" y="920.72" transform="matrix(-0.541 0.841 -0.841 -0.541 3133.543 267.5337)" class="st23" width="91.58" height="136.25"/>
	
		<rect x="1468.11" y="1006" transform="matrix(8.595659e-03 1 -1 8.595659e-03 2518.77 -442.8519)" class="st23" width="29.23" height="85.67"/>
	
		<rect x="1529.96" y="909.63" transform="matrix(0.9135 -0.4068 0.4068 0.9135 -253.9323 710.6968)" class="st23" width="29.33" height="85.96"/>
</g>
<g>
	
		<rect x="1380.19" y="1020.61" transform="matrix(-0.7855 -0.6189 0.6189 -0.7855 1860.7407 2783.0864)" class="st17" width="65.1" height="96.85"/>
	
		<rect x="1360.65" y="1026.7" transform="matrix(-0.9962 -0.087 0.087 -0.9962 2644.8911 2229.5881)" class="st17" width="20.77" height="60.89"/>
	
		<rect x="1424.5" y="1076.93" transform="matrix(0.3176 0.9482 -0.9482 0.3176 2029.3212 -604.8852)" class="st17" width="20.85" height="61.11"/>
</g>
<g>
	<path class="st18" d="M1396.22,1050.19l-10.18-54.71c-0.9-4.84,2.29-9.5,7.13-10.4l17.13-3.19c4.84-0.9,9.5,2.29,10.4,7.13
		l10.18,54.71c0.9,4.84-2.29,9.5-7.13,10.4l-17.13,3.19C1401.77,1058.23,1397.12,1055.04,1396.22,1050.19z"/>
	
		<rect x="1329.18" y="991.63" transform="matrix(0.2939 0.9558 -0.9558 0.2939 1960.4071 -542.2316)" class="st18" width="36.03" height="128.21"/>
	
		<rect x="1320.52" y="945.12" transform="matrix(0.1081 0.9941 -0.9941 0.1081 2197.1724 -430.5585)" class="st18" width="36.03" height="128.21"/>
</g>
<g>
	
		<rect x="1399.49" y="957.39" transform="matrix(0.7215 -0.6924 0.6924 0.7215 -294.163 1267.4967)" class="st19" width="58.38" height="84.12"/>
	<polygon class="st19" points="1468.65,978.79 1473.04,960.86 1420.81,949.67 1416.42,967.6 	"/>
	<polygon class="st19" points="1405.71,1039.31 1387.56,1042.97 1378.5,990.15 1396.66,986.48 	"/>
</g>
<g>
	<g>
		
			<rect x="261.56" y="1124.19" transform="matrix(-0.2963 0.9551 -0.9551 -0.2963 1482.0461 1232.2825)" class="st24" width="51" height="75.87"/>
		
			<rect x="281.93" y="1172.1" transform="matrix(0.2758 0.9612 -0.9612 0.2758 1359.6321 587.2905)" class="st24" width="16.27" height="47.7"/>
		
			<rect x="300.78" y="1111.17" transform="matrix(0.7714 -0.6363 0.6363 0.7714 -651.6975 456.0782)" class="st24" width="16.33" height="47.87"/>
	</g>
	<g>
		
			<rect x="354.8" y="1119.83" transform="matrix(-0.311 -0.9504 0.9504 -0.311 -600.1272 1851.4357)" class="st13" width="32.51" height="46.84"/>
		<polygon class="st13" points="370.33,1118.21 362.4,1111.68 344.17,1135.18 352.1,1141.71 		"/>
		<polygon class="st13" points="385.5,1164.4 382.95,1174.4 354.26,1166.18 356.81,1156.19 		"/>
	</g>
	<g>
		<path class="st14" d="M440.62,1167.48l-18.09,14.34c-3.86,3.06-9.47,2.41-12.53-1.45l-1.12-1.41c-3.06-3.86-2.41-9.47,1.45-12.53
			l18.09-14.34c3.86-3.06,9.47-2.41,12.53,1.45l1.12,1.41C445.13,1158.81,444.48,1164.42,440.62,1167.48z"/>
		
			<rect x="449.17" y="1152.01" transform="matrix(0.7076 -0.7066 0.7066 0.7076 -704.9778 671.7618)" class="st14" width="20.06" height="71.39"/>
		
			<rect x="428.53" y="1168.38" transform="matrix(0.8283 -0.5603 0.5603 0.8283 -599.3166 452.4484)" class="st14" width="20.06" height="71.39"/>
	</g>
	<g>
		<path class="st15" d="M325.29,1184.42l-0.81,23.07c-0.17,4.92-4.3,8.77-9.22,8.6l-1.8-0.06c-4.92-0.17-8.77-4.3-8.6-9.22
			l0.81-23.07c0.17-4.92,4.3-8.77,9.22-8.6l1.8,0.06C321.61,1175.37,325.46,1179.5,325.29,1184.42z"/>
		
			<rect x="342.71" y="1147.7" transform="matrix(-0.0792 -0.9969 0.9969 -0.0792 -798.9918 1628.7612)" class="st15" width="20.06" height="71.39"/>
		
			<rect x="341.79" y="1174.02" transform="matrix(0.1105 -0.9939 0.9939 0.1105 -889.3576 1425.7616)" class="st15" width="20.06" height="71.39"/>
	</g>
	<g>
		
			<rect x="370.12" y="1150.01" transform="matrix(-0.905 -0.4255 0.4255 -0.905 248.2149 2431.3276)" class="st25" width="51" height="75.87"/>
		
			<rect x="353.55" y="1162.4" transform="matrix(-0.9901 0.1403 -0.1403 -0.9901 886.2347 2310.0237)" class="st25" width="16.27" height="47.7"/>
		
			<rect x="411.18" y="1189.42" transform="matrix(0.5236 0.852 -0.852 0.5236 1233.49 220.7544)" class="st25" width="16.33" height="47.87"/>
	</g>
	<g>
		
			<rect x="327.27" y="1122.14" transform="matrix(0.51 -0.8602 0.8602 0.51 -819.1809 860.1589)" class="st17" width="36.25" height="53.93"/>
		
			<rect x="343.12" y="1108.26" transform="matrix(-0.045 -0.999 0.999 -0.045 -759.4579 1524.4296)" class="st17" width="11.57" height="33.91"/>
		
			<rect x="320" y="1147.16" transform="matrix(-0.8981 0.4398 -0.4398 -0.8981 1130.4119 2066.4167)" class="st17" width="11.61" height="34.03"/>
	</g>
	<g>
		<path class="st18" d="M358.35,1137.37l21.94-7.18c4.68-1.53,9.72,1.02,11.25,5.7l0.56,1.71c1.53,4.68-1.02,9.72-5.7,11.25
			l-21.94,7.18c-4.68,1.53-9.72-1.02-11.25-5.7l-0.56-1.71C351.11,1143.94,353.67,1138.9,358.35,1137.37z"/>
		
			<rect x="337.9" y="1076.25" transform="matrix(-0.9088 0.4173 -0.4173 -0.9088 1128.1228 1977.2804)" class="st18" width="20.06" height="71.39"/>
		
			<rect x="362.94" y="1068.06" transform="matrix(-0.9712 0.2382 -0.2382 -0.9712 998.0812 2086.929)" class="st18" width="20.06" height="71.39"/>
	</g>
	<g>
		
			<rect x="368.73" y="1129.38" transform="matrix(0.7814 0.624 -0.624 0.7814 803.4909 11.745)" class="st19" width="32.51" height="46.84"/>
		<polygon class="st19" points="399.32,1173.34 409.54,1174.45 411.88,1144.8 401.66,1143.69 		"/>
		<polygon class="st19" points="361.3,1143.04 357.94,1133.29 386.44,1124.42 389.79,1134.17 		"/>
	</g>
</g>
<g>
	<g>
		
			<rect x="1298.98" y="1077.22" transform="matrix(0.9716 0.2367 -0.2367 0.9716 301.5912 -281.8118)" class="st24" width="51" height="75.87"/>
		
			<rect x="1349.92" y="1086.21" transform="matrix(0.9423 -0.3347 0.3347 0.9423 -293.1995 518.5352)" class="st24" width="16.27" height="47.7"/>
		
			<rect x="1288" y="1071.05" transform="matrix(-0.6828 -0.7306 0.7306 -0.6828 1381.1995 2789.614)" class="st24" width="16.33" height="47.87"/>
	</g>
	<g>
		
			<rect x="1284.2" y="1009.07" transform="matrix(-0.9294 0.3691 -0.3691 -0.9294 2890.1948 1512.0288)" class="st13" width="32.51" height="46.84"/>
		<polygon class="st13" points="1275.51,1034.75 1269.48,1043.08 1294.06,1059.81 1300.09,1051.49 		"/>
		<polygon class="st13" points="1320.67,1016.76 1330.8,1018.68 1324.38,1047.83 1314.25,1045.9 		"/>
	</g>
	<g>
		<path class="st14" d="M1320.33,961.55l15.43,17.17c3.29,3.66,2.99,9.3-0.67,12.59l-1.34,1.2c-3.66,3.29-9.3,2.99-12.59-0.67
			l-15.43-17.17c-3.29-3.66-2.99-9.3,0.67-12.59l1.34-1.2C1311.4,957.59,1317.04,957.89,1320.33,961.55z"/>
		
			<rect x="1329.35" y="906.06" transform="matrix(-0.749 -0.6626 0.6626 -0.749 1718.5769 2534.5679)" class="st14" width="20.06" height="71.39"/>
		
			<rect x="1346.96" y="925.65" transform="matrix(-0.6104 -0.7921 0.7921 -0.6104 1423.8176 2623.0164)" class="st14" width="20.06" height="71.39"/>
	</g>
	<g>
		<path class="st15" d="M1344.38,1075.62l23.07-0.62c4.92-0.13,9.02,3.75,9.15,8.67l0.05,1.8c0.13,4.92-3.75,9.02-8.67,9.15
			l-23.07,0.62c-4.92,0.13-9.02-3.75-9.15-8.67l-0.05-1.8C1335.57,1079.85,1339.45,1075.75,1344.38,1075.62z"/>
		
			<rect x="1331.62" y="1012.59" transform="matrix(-0.9901 0.1407 -0.1407 -0.9901 2817.4211 1897.4117)" class="st15" width="20.06" height="71.39"/>
		
			<rect x="1357.95" y="1011.88" transform="matrix(-0.9988 -0.0488 0.0488 -0.9988 2683.1919 2160.6853)" class="st15" width="20.06" height="71.39"/>
	</g>
	<g>
		
			<rect x="1318.05" y="967.27" transform="matrix(-0.3687 0.9295 -0.9295 -0.3687 2773.3152 126.9593)" class="st25" width="51" height="75.87"/>
		
			<rect x="1335.81" y="1015.32" transform="matrix(0.2012 0.9795 -0.9795 0.2012 2091.4319 -486.3959)" class="st25" width="16.27" height="47.7"/>
		
			<rect x="1359.28" y="956.02" transform="matrix(0.818 -0.5753 0.5753 0.818 -314.8116 965.0428)" class="st25" width="16.33" height="47.87"/>
	</g>
	<g>
		
			<rect x="1289.76" y="1030.76" transform="matrix(-0.89 -0.4559 0.4559 -0.89 1989.7731 2595.3755)" class="st17" width="36.25" height="53.93"/>
		
			<rect x="1278.04" y="1038.75" transform="matrix(-0.9943 0.1067 -0.1067 -0.9943 2672.9412 1968.4271)" class="st17" width="11.57" height="33.91"/>
		
			<rect x="1318.33" y="1059.34" transform="matrix(0.4945 0.8692 -0.8692 0.4945 1604.9606 -606.796)" class="st17" width="11.61" height="34.03"/>
	</g>
	<g>
		<path class="st18" d="M1295.37,1045.53l-8.52-21.45c-1.82-4.58,0.42-9.76,5-11.58l1.67-0.66c4.58-1.82,9.76,0.42,11.58,5
			l8.52,21.45c1.82,4.58-0.42,9.76-5,11.58l-1.67,0.67C1302.37,1052.35,1297.19,1050.11,1295.37,1045.53z"/>
		
			<rect x="1260.61" y="1021.8" transform="matrix(0.4726 0.8813 -0.8813 0.4726 1601.9985 -562.0826)" class="st18" width="20.06" height="71.39"/>
		
			<rect x="1250.89" y="997.31" transform="matrix(0.2977 0.9547 -0.9547 0.2977 1871.6731 -478.2812)" class="st18" width="20.06" height="71.39"/>
	</g>
	<g>
		
			<rect x="1292.87" y="994.57" transform="matrix(0.5745 -0.8185 0.8185 0.5745 -276.2083 1504.6577)" class="st19" width="32.51" height="46.84"/>
		<polygon class="st19" points="1328.74,1002.41 1329.22,992.15 1299.48,991.64 1299,1001.9 		"/>
		<polygon class="st19" points="1300.85,1042.24 1291.33,1046.19 1280.7,1018.3 1290.23,1014.34 		"/>
	</g>
</g>
<g>
	<g>
		
			<rect x="604.66" y="783.83" transform="matrix(0.6258 0.78 -0.78 0.6258 895.6865 -186.7628)" class="st27" width="75.65" height="112.54"/>
		
			<rect x="674.51" y="829.1" transform="matrix(0.951 0.3093 -0.3093 0.951 301.0035 -169.9516)" class="st27" width="24.14" height="70.76"/>
		
			<rect x="615.32" y="755.26" transform="matrix(-0.0958 -0.9954 0.9954 -0.0958 -99.6012 1491.0485)" class="st27" width="24.22" height="71.01"/>
	</g>
	<g>
		
			<rect x="705.06" y="621.79" transform="matrix(-0.9617 -0.2741 0.2741 -0.9617 1250.5035 1487.7683)" class="st13" width="48.22" height="69.48"/>
		<polygon class="st13" points="697.79,636.63 683.17,640.96 696.94,682.88 711.56,678.55 		"/>
		<polygon class="st13" points="767.17,656.32 777.34,667.75 743.43,696.21 733.26,684.78 		"/>
	</g>
	<g>
		<path class="st14" d="M773.44,656.94l3.28,42.74c0.38,4.91-3.3,9.2-8.21,9.57l-11.26,0.86c-4.91,0.38-9.2-3.3-9.57-8.21
			l-3.28-42.74c-0.38-4.91,3.3-9.2,8.21-9.57l11.26-0.86C768.78,648.36,773.06,652.03,773.44,656.94z"/>
		
			<rect x="799.18" y="602.24" transform="matrix(-0.1897 -0.9818 0.9818 -0.1897 325.2086 1578.7607)" class="st14" width="29.76" height="105.9"/>
		
			<rect x="802.18" y="641.2" transform="matrix(-8.817997e-04 -1 1 -8.817997e-04 123.6296 1511.8179)" class="st14" width="29.76" height="105.9"/>
	</g>
	<g>
		<path class="st15" d="M695.39,814.56l34.66,25.21c3.98,2.9,4.86,8.47,1.97,12.46l-6.64,9.13c-2.9,3.98-8.47,4.86-12.46,1.97
			l-34.66-25.21c-3.98-2.9-4.86-8.47-1.97-12.46l6.64-9.13C685.83,812.54,691.41,811.66,695.39,814.56z"/>
		
			<rect x="705.51" y="729.54" transform="matrix(-0.8705 -0.4921 0.4921 -0.8705 962.42 1818.1943)" class="st15" width="29.76" height="105.9"/>
		
			<rect x="737.12" y="752.52" transform="matrix(-0.7619 -0.6477 0.6477 -0.7619 803.2827 1906.2269)" class="st15" width="29.76" height="105.9"/>
	</g>
	<g>
		
			<rect x="723.76" y="677.29" transform="matrix(-0.859 0.512 -0.512 -0.859 1791.3425 973.7715)" class="st28" width="75.65" height="112.54"/>
		
			<rect x="719.27" y="738.48" transform="matrix(-0.4377 0.8991 -0.8991 -0.4377 1747.2509 455.0511)" class="st28" width="24.14" height="70.76"/>
		
			<rect x="800.41" y="689.97" transform="matrix(0.9991 0.0427 -0.0427 0.9991 31.7406 -34.0553)" class="st28" width="24.22" height="71.01"/>
	</g>
	<g>
		
			<rect x="645.26" y="723.05" transform="matrix(-0.4275 -0.904 0.904 -0.4275 269.7173 1696.9078)" class="st17" width="53.77" height="80"/>
		
			<rect x="637.11" y="713.77" transform="matrix(-0.8532 -0.5217 0.5217 -0.8532 811.091 1706.1573)" class="st17" width="17.16" height="50.3"/>
		
			<rect x="665.8" y="774.41" transform="matrix(-0.138 0.9904 -0.9904 -0.138 1559.485 242.0645)" class="st17" width="17.22" height="50.47"/>
	</g>
	<g>
		<path class="st18" d="M660.66,740.29l11.75-41.22c1.35-4.74,6.28-7.48,11.02-6.13l10.86,3.09c4.74,1.35,7.48,6.28,6.13,11.02
			l-11.75,41.22c-1.35,4.74-6.28,7.48-11.02,6.13l-10.86-3.1C662.06,749.96,659.31,745.03,660.66,740.29z"/>
		
			<rect x="607.07" y="674.9" transform="matrix(-0.1627 0.9867 -0.9867 -0.1627 1441.2721 232.5756)" class="st18" width="29.76" height="105.9"/>
		
			<rect x="617.78" y="637.32" transform="matrix(-0.3461 0.9382 -0.9382 -0.3461 1499.2137 335.5718)" class="st18" width="29.76" height="105.9"/>
	</g>
	<g>
		
			<rect x="685.43" y="682.72" transform="matrix(0.9544 -0.2985 0.2985 0.9544 -181.8084 244.4973)" class="st19" width="48.22" height="69.48"/>
		<polygon class="st19" points="746.7,716.88 756.55,705.24 722.04,677.75 712.19,689.39 		"/>
		<polygon class="st19" points="677.89,738.48 663.12,734.51 675.86,692.11 690.63,696.08 		"/>
	</g>
</g>
<g>
	<g>
		
			<rect x="467.71" y="757.74" transform="matrix(-0.5124 -0.8587 0.8587 -0.5124 65.8315 1669.0349)" class="st24" width="78.09" height="116.17"/>
		
			<rect x="452.68" y="748.11" transform="matrix(-0.8993 -0.4373 0.4373 -0.8993 540.3428 1693.6729)" class="st24" width="24.92" height="73.04"/>
		
			<rect x="502.63" y="831.76" transform="matrix(-0.0422 0.9991 -0.9991 -0.0422 1404.5209 390.4192)" class="st24" width="25.01" height="73.3"/>
	</g>
	<g>
		
			<rect x="417.4" y="894.94" transform="matrix(0.9148 0.4039 -0.4039 0.9148 413.6397 -99.339)" class="st13" width="49.78" height="71.72"/>
		<polygon class="st13" points="471.55,955.61 487.11,953.26 478.99,908.45 463.43,910.8 		"/>
		<polygon class="st13" points="403.41,925.62 394.64,912.49 433.35,888.21 442.13,901.34 		"/>
	</g>
	<g>
		<path class="st14" d="M343.21,989.98l2.76-44.73c0.3-4.92,4.53-8.66,9.45-8.35l12.21,0.75c4.92,0.3,8.66,4.53,8.35,9.45
			l-2.76,44.73c-0.3,4.92-4.53,8.66-9.45,8.35l-12.21-0.75C346.65,999.12,342.91,994.89,343.21,989.98z"/>
		
			<rect x="286.08" y="931.05" transform="matrix(0.0527 0.9986 -0.9986 0.0527 1269.9084 632.7723)" class="st14" width="30.72" height="109.31"/>
		
			<rect x="288.56" y="890.79" transform="matrix(-0.1369 0.9906 -0.9906 -0.1369 1282.0703 773.7785)" class="st14" width="30.72" height="109.31"/>
	</g>
	<g>
		<path class="st15" d="M445.64,839.84l-32.27-31.1c-3.55-3.42-3.65-9.06-0.23-12.61l8.49-8.81c3.42-3.55,9.06-3.65,12.61-0.23
			l32.27,31.1c3.55,3.42,3.65,9.06,0.23,12.61l-8.49,8.81C454.83,843.15,449.18,843.26,445.64,839.84z"/>
		
			<rect x="399.95" y="814.22" transform="matrix(0.7944 0.6073 -0.6073 0.7944 613.079 -73.6281)" class="st15" width="30.72" height="109.31"/>
		
			<rect x="370.9" y="786.23" transform="matrix(0.6655 0.7464 -0.7464 0.6655 756.8911 -7.0088)" class="st15" width="30.72" height="109.31"/>
	</g>
	<g>
		
			<rect x="327.2" y="854.96" transform="matrix(0.9213 -0.3888 0.3888 0.9213 -326.1681 214.2263)" class="st25" width="78.09" height="116.17"/>
		
			<rect x="390.43" y="839.62" transform="matrix(0.5574 -0.8302 0.8302 0.5574 -549.0889 722.2853)" class="st25" width="24.92" height="73.04"/>
		
			<rect x="300.51" y="877.42" transform="matrix(-0.9837 -0.1799 0.1799 -0.9837 456.4568 1869.535)" class="st25" width="25.01" height="73.3"/>
	</g>
	<g>
		
			<rect x="434.12" y="854.31" transform="matrix(0.299 0.9543 -0.9543 0.299 1178.4397 187.105)" class="st17" width="55.51" height="82.58"/>
		
			<rect x="476.64" y="898.08" transform="matrix(0.7732 0.6342 -0.6342 0.7732 696.145 -98.3032)" class="st17" width="17.71" height="51.92"/>
		
			<rect x="455.88" y="831.82" transform="matrix(0.2731 -0.962 0.962 0.2731 -487.4215 1070.6624)" class="st17" width="17.77" height="52.1"/>
	</g>
	<g>
		<path class="st18" d="M463.9,918.02l-18.1,41c-1.99,4.51-7.25,6.55-11.76,4.56l-11.19-4.94c-4.51-1.99-6.55-7.25-4.56-11.76
			l18.1-41c1.99-4.51,7.25-6.55,11.76-4.56l11.19,4.94C463.85,908.25,465.89,913.51,463.9,918.02z"/>
		
			<rect x="486.23" y="881.86" transform="matrix(0.297 -0.9549 0.9549 0.297 -541.6354 1137.3164)" class="st18" width="30.72" height="109.31"/>
		
			<rect x="469.94" y="918.76" transform="matrix(0.472 -0.8816 0.8816 0.472 -601.9191 941.8218)" class="st18" width="30.72" height="109.31"/>
	</g>
	<g>
		
			<rect x="392.27" y="901.04" transform="matrix(-0.9864 0.1642 -0.1642 -0.9864 982.4919 1792.5925)" class="st19" width="49.78" height="71.72"/>
		<polygon class="st19" points="379.09,932.21 367.37,942.71 398.74,975.72 410.46,965.22 		"/>
		<polygon class="st19" points="452.51,919.91 467.05,926.07 448,967.6 433.46,961.44 		"/>
	</g>
</g>
<g>
	<g>
		
			<rect x="80.62" y="1092.91" transform="matrix(0.1408 0.99 -0.99 0.1408 1248.7336 871.2734)" class="st12" width="83.57" height="124.32"/>
		
			<rect x="137.24" y="1163.98" transform="matrix(0.6605 0.7508 -0.7508 0.6605 954.4141 295.3845)" class="st12" width="26.67" height="78.17"/>
		
			<rect x="122.5" y="1060.49" transform="matrix(0.425 -0.9052 0.9052 0.425 -917.3134 755.3098)" class="st12" width="26.76" height="78.44"/>
	</g>
	<g>
		
			<rect x="206.94" y="1029.87" transform="matrix(-0.6877 -0.726 0.726 -0.6877 -381.3574 1972.4333)" class="st13" width="53.27" height="76.76"/>
		<polygon class="st13" points="214.96,1031.65 198.63,1027.54 188.11,1075.13 204.44,1079.24 		"/>
		<polygon class="st13" points="269.81,1089.44 273.04,1106.02 224.79,1113.97 221.55,1097.39 		"/>
	</g>
	<g>
		<path class="st14" d="M356.12,1050.24l-21.77,44.14c-2.18,4.42-7.53,6.23-11.94,4.05l-12.86-6.34c-4.42-2.18-6.23-7.53-4.05-11.94
			l21.77-44.14c2.18-4.42,7.53-6.23,11.94-4.05l12.86,6.34C356.48,1040.48,358.3,1045.83,356.12,1050.24z"/>
		
			<rect x="378.86" y="1013.8" transform="matrix(0.3373 -0.9414 0.9414 0.3373 -747.4813 1082.7554)" class="st14" width="32.88" height="116.98"/>
		
			<rect x="359.77" y="1052.51" transform="matrix(0.509 -0.8608 0.8608 0.509 -771.5968 869.3358)" class="st14" width="32.88" height="116.98"/>
	</g>
	<g>
		<path class="st15" d="M192.41,1156.07l19.49,45.19c1.95,4.52-0.14,9.77-4.66,11.72l-13.17,5.68c-4.52,1.95-9.77-0.14-11.72-4.66
			l-19.49-45.19c-1.95-4.52,0.14-9.77,4.66-11.72l13.17-5.68C185.21,1149.46,190.46,1151.55,192.41,1156.07z"/>
		
			<rect x="218.16" y="1082.04" transform="matrix(-0.4981 -0.8671 0.8671 -0.4981 -637.5611 1912.0034)" class="st15" width="32.88" height="116.98"/>
		
			<rect x="235.25" y="1121.67" transform="matrix(-0.3253 -0.9456 0.9456 -0.3253 -782.3815 1802.1237)" class="st15" width="32.88" height="116.98"/>
	</g>
	<g>
		
			<rect x="259.51" y="1055.06" transform="matrix(-1 2.592767e-03 -2.592767e-03 -1 605.4753 2233.6506)" class="st16" width="83.57" height="124.32"/>
		
			<rect x="236.52" y="1099.4" transform="matrix(-0.8349 0.5504 -0.5504 -0.8349 1085.074 1951.5072)" class="st16" width="26.67" height="78.17"/>
		
			<rect x="340.88" y="1099" transform="matrix(0.8378 0.546 -0.546 0.8378 678.9988 -8.7691)" class="st16" width="26.76" height="78.44"/>
	</g>
	<g>
		
			<rect x="169.99" y="1050.7" transform="matrix(0.093 -0.9957 0.9957 0.093 -909.0236 1191.892)" class="st17" width="59.4" height="88.37"/>
		
			<rect x="178.65" y="1029.27" transform="matrix(-0.4681 -0.8837 0.8837 -0.4681 -657.9155 1718.0713)" class="st17" width="18.96" height="55.56"/>
		
			<rect x="171.72" y="1103.06" transform="matrix(-0.6236 0.7817 -0.7817 -0.6236 1178.3373 1694.5372)" class="st17" width="19.02" height="55.76"/>
	</g>
	<g>
		<path class="st18" d="M206.5,1072.35l35.73-33.84c3.58-3.39,9.22-3.23,12.61,0.34l9.86,10.41c3.39,3.58,3.23,9.22-0.34,12.61
			l-35.73,33.84c-3.58,3.39-9.22,3.23-12.61-0.34l-9.86-10.41C202.78,1081.38,202.93,1075.74,206.5,1072.35z"/>
		
			<rect x="160.96" y="979.59" transform="matrix(-0.6429 0.7659 -0.7659 -0.6429 1086.5631 1569.5955)" class="st18" width="32.88" height="116.98"/>
		
			<rect x="192.3" y="949.91" transform="matrix(-0.776 0.6308 -0.6308 -0.776 1006.7704 1659.2296)" class="st18" width="32.88" height="116.98"/>
	</g>
	<g>
		
			<rect x="234.27" y="1034.23" transform="matrix(0.9733 0.2297 -0.2297 0.9733 253.3769 -31.249)" class="st19" width="53.27" height="76.76"/>
		<polygon class="st19" points="296.54,1092.99 312.45,1087.47 295.14,1041.91 279.23,1047.43 		"/>
		<polygon class="st19" points="218.98,1074.77 207.18,1062.68 243.16,1029.56 254.97,1041.65 		"/>
	</g>
</g>
<g class="st34">
	<g>
		
			<rect x="212.84" y="875.59" transform="matrix(-0.2937 0.9559 -0.9559 -0.2937 1236.6798 973.7004)" class="st22" width="91.58" height="136.25"/>
		
			<rect x="249.58" y="961.62" transform="matrix(0.2784 0.9605 -0.9605 0.2784 1155.4055 471.0907)" class="st22" width="29.23" height="85.67"/>
		
			<rect x="283.14" y="852.11" transform="matrix(0.7697 -0.6384 0.6384 0.7697 -502.8473 396.2615)" class="st22" width="29.33" height="85.96"/>
	</g>
	<g>
		
			<rect x="380.19" y="867.37" transform="matrix(-0.3135 -0.9496 0.9496 -0.3135 -325.8533 1583.2875)" class="st13" width="58.38" height="84.12"/>
		<polygon class="st13" points="407.97,864.46 393.69,852.76 361.07,895.06 375.35,906.75 		"/>
		<polygon class="st13" points="435.43,947.34 430.9,965.3 379.34,950.69 383.86,932.73 		"/>
	</g>
	<g>
		<path class="st14" d="M539.98,948.17l-43.51,34.69c-3.85,3.07-9.46,2.44-12.53-1.41l-10.87-13.63c-3.07-3.85-2.44-9.46,1.41-12.53
			l43.51-34.69c3.85-3.07,9.46-2.44,12.53,1.41l10.87,13.63C544.46,939.49,543.83,945.1,539.98,948.17z"/>
		
			<rect x="549.88" y="924.73" transform="matrix(0.7057 -0.7085 0.7085 0.7057 -533.4648 693.3577)" class="st14" width="36.03" height="128.21"/>
		
			<rect x="512.89" y="954.23" transform="matrix(0.8268 -0.5625 0.5625 0.8268 -480.8482 474.9974)" class="st14" width="36.03" height="128.21"/>
	</g>
	<g>
		<path class="st15" d="M327.63,976.49l-1.79,55.62c-0.16,4.92-4.28,8.78-9.2,8.63l-17.42-0.56c-4.92-0.16-8.78-4.28-8.63-9.2
			l1.79-55.62c0.16-4.92,4.28-8.78,9.2-8.63l17.42,0.56C323.92,967.45,327.79,971.56,327.63,976.49z"/>
		
			<rect x="358.67" y="917.49" transform="matrix(-0.0819 -0.9966 0.9966 -0.0819 -570.7707 1437.3896)" class="st15" width="36.03" height="128.21"/>
		
			<rect x="357.15" y="964.78" transform="matrix(0.1078 -0.9942 0.9942 0.1078 -688.1646 1290.9414)" class="st15" width="36.03" height="128.21"/>
	</g>
	<g>
		
			<rect x="407.91" y="921.44" transform="matrix(-0.9061 -0.423 0.423 -0.9061 446.1832 2078.1628)" class="st23" width="91.58" height="136.25"/>
		
			<rect x="378.16" y="943.86" transform="matrix(-0.9897 0.1429 -0.1429 -0.9897 922.5584 1907.0992)" class="st23" width="29.23" height="85.67"/>
		
			<rect x="481.78" y="992.11" transform="matrix(0.5259 0.8505 -0.8505 0.5259 1115.762 68.4889)" class="st23" width="29.33" height="85.96"/>
	</g>
	<g>
		
			<rect x="330.79" y="871.63" transform="matrix(0.5077 -0.8615 0.8615 0.5077 -613.7843 765.9703)" class="st17" width="65.1" height="96.85"/>
		
			<rect x="359.13" y="846.69" transform="matrix(-0.0477 -0.9989 0.9989 -0.0477 -488.9952 1288.0742)" class="st17" width="20.77" height="60.89"/>
		
			<rect x="317.8" y="916.65" transform="matrix(-0.8969 0.4422 -0.4422 -0.8969 1041.4731 1651.6315)" class="st17" width="20.85" height="61.11"/>
	</g>
	<g>
		<path class="st18" d="M379.8,901.15l52.84-17.45c4.68-1.54,9.72,1,11.26,5.67l5.46,16.55c1.54,4.68-1,9.72-5.67,11.26
			l-52.84,17.45c-4.68,1.54-9.72-1-11.26-5.67l-5.46-16.55C372.58,907.74,375.12,902.69,379.8,901.15z"/>
		
			<rect x="349.7" y="789.22" transform="matrix(-0.9077 0.4197 -0.4197 -0.9077 1059.6222 1473.5179)" class="st18" width="36.03" height="128.21"/>
		
			<rect x="394.62" y="774.39" transform="matrix(-0.9706 0.2408 -0.2408 -0.9706 1015.0108 1552.9746)" class="st18" width="36.03" height="128.21"/>
	</g>
	<g>
		
			<rect x="405.25" y="884.44" transform="matrix(0.7831 0.6219 -0.6219 0.7831 670.4319 -69.2138)" class="st19" width="58.38" height="84.12"/>
		<polygon class="st19" points="460.29,963.33 478.64,965.27 482.71,912.01 464.36,910.07 		"/>
		<polygon class="st19" points="391.86,909.1 385.79,891.6 436.92,875.53 442.99,893.02 		"/>
	</g>
</g>
</svg>
